{
.appVersion = "3108";
classes = (
{
automatic = 1;
code = "A Aacute Abreve Acircumflex Adieresis Adotbelow Agrave Amacron Aogonek Aring Aringacute Atilde AE AEacute B C Cacute Ccaron Ccedilla Ccircumflex Cdot D Eth Dcaron Dcroat E Eacute Ebreve Ecaron Ecircumflex Edieresis Edotaccent Edotbelow Egrave Emacron Eogonek Etilde F G Gacute Gbreve Gcaron Gcircumflex Gcommaaccent Gdotaccent H Hbar Hcaron Hcircumflex I IJ Iacute Ibreve Icircumflex Idieresis Idotaccent Idotbelow Igrave Imacron Iogonek Itilde J Jacute Jcircumflex K Kcommaaccent L Lacute Lcaron Lcommaaccent Ldot Lslash M N Nacute Ncaron Ncommaaccent Nhookleft Ntilde Eng O Oacute Obreve Ocircumflex Odieresis Odotbelow Ograve Ohungarumlaut Omacron Oogonek Oslash Oslashacute Otilde OE P Thorn Q R Racute Rcaron Rcommaaccent S Sacute Scaron Scedilla Scircumflex Scommaaccent Germandbls Schwa T Tbar Tcaron Tcedilla Tcommaaccent Tdotbelow U Uacute Ubreve Ucircumflex Udieresis Udotbelow Ugrave Uhungarumlaut Umacron Uogonek Uring Utilde V W Wacute Wcircumflex Wdieresis Wgrave X Y Yacute Ycircumflex Ydieresis Ygrave Ymacron Ytilde Z Zacute Zcaron Zcircumflex Zdotaccent Cacute.loclPLK Nacute.loclPLK Oacute.loclPLK Sacute.loclPLK Zacute.loclPLK K.ss01 Kcommaaccent.ss01 Q.ss01 R.ss01 Racute.ss01 Rcaron.ss01 Rcommaaccent.ss01 Y.ss01 Yacute.ss01 Ycircumflex.ss01 Ydieresis.ss01 Ygrave.ss01 Ymacron.ss01 Ytilde.ss01 Z.ss01 Zacute.ss01 Zcaron.ss01 Zcircumflex.ss01 Zdotaccent.ss01 A.ss10 B.ss10 C.ss10 D.ss10 E.ss10 F.ss10 G.ss10 H.ss10 I.ss10 J.ss10 K.ss10 L.ss10 M.ss10 N.ss10 O.ss10 P.ss10 Q.ss10 R.ss10 S.ss10 T.ss10 U.ss10 V.ss10 W.ss10 X.ss10 Y.ss10 Z.ss10 Zacute.loclPLK.ss01";
name = Uppercase;
},
{
automatic = 1;

glyphs = (
{
color = 6;
glyphname = A;
lastChange = "2022-03-18 09:39:33 +0000";
layers = (
{
anchors = (
{
name = BOTTOM;
position = "{344, 0}";
},
{
name = TOP;
position = "{361, 707}";
}
);
layerId = "6D97EE47-94AA-478E-ABFB-936E6C32B491";
paths = (
{
closed = 1;
nodes = (
"221 0 LINE",
"221 30 LINE",
"202 30 OFFCURVE",
"163 33 OFFCURVE",
"133 46 CURVE",
"355 589 LINE",
"552 46 LINE",
"522 33 OFFCURVE",
"483 30 OFFCURVE",
"464 30 CURVE",
"464 0 LINE",
"721 0 LINE",
"721 30 LINE",
"705 30 OFFCURVE",
"671 33 OFFCURVE",
"645 46 CURVE",
"394 737 LINE",
"312 707 LINE",
"327 665 LINE",
"75 45 LINE",
"50 33 OFFCURVE",
"19 30 OFFCURVE",
"4 30 CURVE",
"4 0 LINE"
);
},
{
closed = 1;
nodes = (
"503 249 LINE",
"503 300 LINE",
"208 300 LINE",
"208 249 LINE"
);
}
);
width = 715;
}
);
leftKerningGroup = A;
rightKerningGroup = A;
unicode = 0041;
},
{
color = 6;
glyphname = AE;
lastChange = "2022-03-18 09:39:33 +0000";
layers = (
{
anchors = (
{
name = TOP;
position = "{645, 707}";
}
);
layerId = "6D97EE47-94AA-478E-ABFB-936E6C32B491";
paths = (
{
closed = 1;
nodes = (
"224 0 LINE",
"224 30 LINE",
"205 30 OFFCURVE",
"166 33 OFFCURVE",
"136 46 CURVE",
"460 654 LINE",
"460 46 LINE",
"430 33 OFFCURVE",
"391 30 OFFCURVE",
"372 30 CURVE",
"372 0 LINE",
"861 0 LINE",
"894 151 LINE",
"863 159 LINE",
"859 146 OFFCURVE",
"835 85 OFFCURVE",
"809 51 CURVE",
"547 51 LINE",
"547 342 LINE",
"753 342 LINE",
"763 314 OFFCURVE",
"765 280 OFFCURVE",
"765 263 CURVE",
"797 263 LINE",
"797 463 LINE",
"765 463 LINE",
"765 447 OFFCURVE",
"763 419 OFFCURVE",
"755 393 CURVE",
"547 393 LINE",
"547 656 LINE",
"789 656 LINE",
"803 626 OFFCURVE",
"807 591 OFFCURVE",
"809 569 CURVE",
"842 571 LINE",
"837 707 LINE",
"332 707 LINE",
"332 677 LINE",
"348 677 OFFCURVE",
"378 675 OFFCURVE",
"405 666 CURVE",
"75 45 LINE",
"50 33 OFFCURVE",
"19 30 OFFCURVE",
"4 30 CURVE",
"4 0 LINE"
);
},
{
closed = 1;
nodes = (
"515 249 LINE",
"515 300 LINE",
"220 300 LINE",
"220 249 LINE"
);
}
);
width = 919;
}
);
leftKerningGroup = AE;
leftMetricsKey = A;
rightKerningGroup = E;
rightMetricsKey = E;
unicode = 00C6;
},
{
color = 6;
glyphname = B;
lastChange = "2022-03-18 09:39:33 +0000";
layers = (
{
layerId = "6D97EE47-94AA-478E-ABFB-936E6C32B491";
paths = (
{
closed = 1;
nodes = (
"360 0 LINE SMOOTH",
"547 0 OFFCURVE",
"620 137 OFFCURVE",
"595 238 CURVE SMOOTH",
"573 332 OFFCURVE",
"485 382 OFFCURVE",
"436 398 CURVE",
"508 432 OFFCURVE",
"559 535 OFFCURVE",
"520 622 CURVE SMOOTH",
"495 678 OFFCURVE",
"440 721 OFFCURVE",
"336 721 CURVE SMOOTH",
"267 721 OFFCURVE",
"207 716 OFFCURVE",
"50 704 CURVE",
"53 674 LINE",
"71 676 OFFCURVE",
"106 676 OFFCURVE",
"138 669 CURVE",
"138 46 LINE",
"108 33 OFFCURVE",
"69 30 OFFCURVE",
"50 30 CURVE",
"50 0 LINE"
);
},
{
closed = 1;
nodes = (
"348 33 OFFCURVE",
"252 46 OFFCURVE",
"225 69 CURVE",
"225 349 LINE",
"275 349 OFFCURVE",
"338 354 OFFCURVE",
"392 334 CURVE SMOOTH",
"445 316 OFFCURVE",
"489 276 OFFCURVE",
"504 217 CURVE SMOOTH",
"524 136 OFFCURVE",
"487 77 OFFCURVE",
"415 54 CURVE SMOOTH"
);
},
{
closed = 1;
nodes = (
"225 673 LINE",
"331 686 OFFCURVE",
"404 671 OFFCURVE",
"439 588 CURVE SMOOTH",
"467 521 OFFCURVE",
"440 447 OFFCURVE",
"396 419 CURVE SMOOTH",
"349 388 OFFCURVE",
"249 394 OFFCURVE",
"225 395 CURVE"
);
}
);
width = 625;
}
);
leftKerningGroup = H;
leftMetricsKey = H;
rightKerningGroup = B;
rightMetricsKey = "=H/2";
unicode = 0042;
},
{
color = 6;
glyphname = C;
lastChange = "2022-03-18 09:39:33 +0000";
layers = (
{
anchors = (
{
name = BOTTOM;
position = "{404, 0}";
},
{
name = TOP;
position = "{404, 707}";
}
);
layerId = "6D97EE47-94AA-478E-ABFB-936E6C32B491";
paths = (
{
closed = 1;
nodes = (
"716 161 LINE",
"686 176 LINE",
"629 87 OFFCURVE",
"588 56 OFFCURVE",
"505 38 CURVE SMOOTH",
"354 5 OFFCURVE",
"200 123 OFFCURVE",
"159 283 CURVE SMOOTH",
"114 456 OFFCURVE",
"192 622 OFFCURVE",
"340 661 CURVE SMOOTH",
"458 692 OFFCURVE",
"595 667 OFFCURVE",
"643 540 CURVE",
"673 546 LINE",
"653 688 LINE",
"586 706 OFFCURVE",
"449 741 OFFCURVE",
"328 708 CURVE SMOOTH",
"131 656 OFFCURVE",
"9 453 OFFCURVE",
"62 257 CURVE SMOOTH",
"114 61 OFFCURVE",
"314 -73 OFFCURVE",
"638 13 CURVE"
);
}
);
width = 741;
}
);
leftKerningGroup = O;
leftMetricsKey = O;
rightKerningGroup = C;
rightMetricsKey = "=H/2";
unicode = 0043;
},
{
color = 6;
glyphname = D;
lastChange = "2022-03-18 09:39:33 +0000";
layers = (
{
anchors = (
{
name = TOP;
position = "{380, 707}";
}
);
layerId = "6D97EE47-94AA-478E-ABFB-936E6C32B491";
paths = (
{
closed = 1;
nodes = (
"211 0 LINE",
"225 0 LINE",
"310 0 LINE SMOOTH",
"373 0 OFFCURVE",
"451 7 OFFCURVE",
"495 19 CURVE SMOOTH",
"658 62 OFFCURVE",
"782 203 OFFCURVE",
"782 364 CURVE SMOOTH",
"782 597 OFFCURVE",
"590 721 OFFCURVE",
"332 721 CURVE SMOOTH",
"237 721 OFFCURVE",
"141 707 OFFCURVE",
"50 699 CURVE",
"53 669 LINE",
"71 671 OFFCURVE",
"106 671 OFFCURVE",
"138 664 CURVE",
"138 46 LINE",
"108 33 OFFCURVE",
"69 30 OFFCURVE",
"50 30 CURVE",
"50 0 LINE"
);
},
{
closed = 1;
nodes = (
"302 47 OFFCURVE",
"259 56 OFFCURVE",
"225 69 CURVE",
"225 668 LINE",
"255 672 OFFCURVE",
"283 674 OFFCURVE",
"310 674 CURVE SMOOTH",
"526 674 OFFCURVE",
"684 544 OFFCURVE",
"684 337 CURVE SMOOTH",
"684 157 OFFCURVE",
"548 47 OFFCURVE",
"353 47 CURVE SMOOTH"
);
}
);
width = 832;
}
);
leftKerningGroup = H;
leftMetricsKey = H;
rightKerningGroup = O;
rightMetricsKey = O;
unicode = 0044;
},
{
color = 6;
glyphname = Eth;
lastChange = "2022-03-18 09:39:33 +0000";
layers = (
{
anchors = (
{
name = TOP;
position = "{384, 707}";
}
);
layerId = "6D97EE47-94AA-478E-ABFB-936E6C32B491";
paths = (
{
closed = 1;
nodes = (
"419 344 LINE",
"419 386 LINE",
"50 386 LINE",
"50 344 LINE"
);
},
{
closed = 1;
nodes = (
"215 0 LINE",
"229 0 LINE",
"314 0 LINE SMOOTH",
"377 0 OFFCURVE",
"455 7 OFFCURVE",
"499 19 CURVE SMOOTH",
"662 62 OFFCURVE",
"786 203 OFFCURVE",
"786 364 CURVE SMOOTH",
"786 597 OFFCURVE",
"594 721 OFFCURVE",
"336 721 CURVE SMOOTH",
"241 721 OFFCURVE",
"145 707 OFFCURVE",
"54 699 CURVE",
"57 669 LINE",
"75 671 OFFCURVE",
"110 671 OFFCURVE",
"142 664 CURVE",
"142 46 LINE",
"112 33 OFFCURVE",
"73 30 OFFCURVE",
"54 30 CURVE",
"54 0 LINE"
);
},
{
closed = 1;
nodes = (
"306 47 OFFCURVE",
"263 56 OFFCURVE",
"229 69 CURVE",
"229 668 LINE",
"259 672 OFFCURVE",
"287 674 OFFCURVE",
"314 674 CURVE SMOOTH",
"530 674 OFFCURVE",
"688 544 OFFCURVE",
"688 337 CURVE SMOOTH",
"688 157 OFFCURVE",
"552 47 OFFCURVE",
"357 47 CURVE SMOOTH"
);
}
);
width = 836;
}
);
leftKerningGroup = H;
leftMetricsKey = D;
rightKerningGroup = O;
rightMetricsKey = D;
unicode = 00D0;
},
{
color = 6;
glyphname = E;
lastChange = "2022-03-18 09:39:33 +0000";
layers = (
{
anchors = (
{
name = BOTTOM;
position = "{324, 0}";
},
{
name = TOP;
position = "{314, 707}";
}
);
layerId = "6D97EE47-94AA-478E-ABFB-936E6C32B491";
paths = (
{
closed = 1;
nodes = (
"540 0 LINE",
"573 151 LINE",
"541 159 LINE",
"538 146 OFFCURVE",
"514 85 OFFCURVE",
"488 51 CURVE",
"225 51 LINE",
"225 342 LINE",
"431 342 LINE",
"441 314 OFFCURVE",
"443 280 OFFCURVE",
"443 263 CURVE",
"475 263 LINE",
"475 463 LINE",
"443 463 LINE",
"443 447 OFFCURVE",
"441 419 OFFCURVE",
"434 393 CURVE",
"225 393 LINE",
"225 656 LINE",
"468 656 LINE",
"481 626 OFFCURVE",
"486 591 OFFCURVE",
"488 569 CURVE",
"520 571 LINE",
"515 707 LINE",
"50 707 LINE",
"50 677 LINE",
"69 677 OFFCURVE",
"108 674 OFFCURVE",
"138 661 CURVE",
"138 46 LINE",
"108 33 OFFCURVE",
"69 30 OFFCURVE",
"50 30 CURVE",
"50 0 LINE"
);
}
);
width = 598;
}
);
leftKerningGroup = H;
leftMetricsKey = H;
rightKerningGroup = E;
rightMetricsKey = "=H/2";
unicode = 0045;
},
{
color = 6;
glyphname = Schwa;
lastChange = "2022-03-18 09:39:33 +0000";
layers = (
{
layerId = "6D97EE47-94AA-478E-ABFB-936E6C32B491";
paths = (
{
closed = 1;
nodes = (
"533 -14 OFFCURVE",
"684 118 OFFCURVE",
"684 360 CURVE SMOOTH",
"684 562 OFFCURVE",
"527 721 OFFCURVE",
"324 721 CURVE SMOOTH",
"192 721 OFFCURVE",
"108 647 OFFCURVE",
"78 609 CURVE",
"108 580 LINE",
"142 613 OFFCURVE",
"216 667 OFFCURVE",
"301 667 CURVE SMOOTH",
"467 667 OFFCURVE",
"593 507 OFFCURVE",
"593 319 CURVE SMOOTH",
"593 172 OFFCURVE",
"524 34 OFFCURVE",
"347 34 CURVE SMOOTH",
"223 34 OFFCURVE",
"143 153 OFFCURVE",
"143 238 CURVE",
"619 238 LINE",
"628 289 LINE",
"42 289 LINE",
"22 108 OFFCURVE",
"168 -14 OFFCURVE",
"345 -14 CURVE SMOOTH"
);
}
);
width = 734;
}
);
leftKerningGroup = Schwa;
rightKerningGroup = O;
rightMetricsKey = O;
unicode = 018F;
},
{
color = 6;
glyphname = F;
lastChange = "2022-03-18 09:39:33 +0000";
layers = (
{
layerId = "6D97EE47-94AA-478E-ABFB-936E6C32B491";
paths = (
{
closed = 1;
nodes = (
"322 0 LINE",
"322 30 LINE",
"301 30 OFFCURVE",
"258 33 OFFCURVE",
"225 46 CURVE",
"225 331 LINE",
"428 331 LINE",
"438 303 OFFCURVE",
"440 269 OFFCURVE",
"440 252 CURVE",
"470 252 LINE",
"470 452 LINE",
"440 452 LINE",
"440 437 OFFCURVE",
"438 408 OFFCURVE",
"430 382 CURVE",
"225 382 LINE",
"225 656 LINE",
"468 656 LINE",
"481 626 OFFCURVE",
"486 591 OFFCURVE",
"488 569 CURVE",
"520 571 LINE",
"515 707 LINE",
"50 707 LINE",
"50 677 LINE",
"69 677 OFFCURVE",
"108 674 OFFCURVE",
"138 661 CURVE",
"138 46 LINE",
"108 33 OFFCURVE",
"69 30 OFFCURVE",
"50 30 CURVE",
"50 0 LINE"
);
}
);
width = 545;
}
);
leftKerningGroup = H;
leftMetricsKey = H;
rightKerningGroup = F;
rightMetricsKey = "=H/2";
unicode = 0046;
},
{
color = 6;
glyphname = G;
lastChange = "2022-03-18 09:39:33 +0000";
layers = (
{
anchors = (
{
name = BOTTOM;
position = "{430, 0}";
},
{
name = TOP;
position = "{430, 707}";
}
);
layerId = "6D97EE47-94AA-478E-ABFB-936E6C32B491";
paths = (
{
closed = 1;
nodes = (
"541 -22 OFFCURVE",
"636 11 OFFCURVE",
"731 16 CURVE",
"731 51 LINE",
"721 56 OFFCURVE",
"709 66 OFFCURVE",
"705 75 CURVE",
"705 220 LINE",
"716 227 OFFCURVE",
"744 236 OFFCURVE",
"760 236 CURVE",
"760 268 LINE",
"530 268 LINE",
"530 236 LINE",
"548 236 OFFCURVE",
"588 233 OFFCURVE",
"618 220 CURVE",
"618 69 LINE",
"383 -49 OFFCURVE",
"200 122 OFFCURVE",
"159 281 CURVE SMOOTH",
"114 454 OFFCURVE",
"191 620 OFFCURVE",
"340 659 CURVE SMOOTH",
"458 691 OFFCURVE",
"617 666 OFFCURVE",
"665 538 CURVE",
"695 544 LINE",
"674 686 LINE",
"609 705 OFFCURVE",
"449 739 OFFCURVE",
"327 707 CURVE SMOOTH",
"131 654 OFFCURVE",
"10 452 OFFCURVE",
"62 256 CURVE SMOOTH",
"106 87 OFFCURVE",
"249 -3 OFFCURVE",
"415 -13 CURVE SMOOTH"
);
}
);
width = 800;
}
);
leftKerningGroup = O;
leftMetricsKey = O;
rightKerningGroup = G;
rightMetricsKey = "=H-10";
unicode = 0047;
},
{
color = 6;
glyphname = H;
lastChange = "2022-03-18 09:39:33 +0000";
layers = (
{
anchors = (
{
name = BOTTOM;
position = "{669, 0}";
},
{
name = TOP;
position = "{425, 707}";
}
);
layerId = "6D97EE47-94AA-478E-ABFB-936E6C32B491";
paths = (
{
closed = 1;
nodes = (
"313 0 LINE",
"313 30 LINE",
"294 30 OFFCURVE",
"255 33 OFFCURVE",
"225 46 CURVE",
"225 348 LINE",
"625 348 LINE",
"625 46 LINE",
"595 33 OFFCURVE",
"556 30 OFFCURVE",
"537 30 CURVE",
"537 0 LINE",
"800 0 LINE",
"800 30 LINE",
"781 30 OFFCURVE",
"742 33 OFFCURVE",
"712 46 CURVE",
"712 661 LINE",
"742 674 OFFCURVE",
"781 677 OFFCURVE",
"800 677 CURVE",
"800 707 LINE",
"537 707 LINE",
"537 677 LINE",
"556 677 OFFCURVE",
"595 674 OFFCURVE",
"625 661 CURVE",
"625 399 LINE",
"225 399 LINE",
"225 661 LINE",
"255 674 OFFCURVE",
"294 677 OFFCURVE",
"313 677 CURVE",
"313 707 LINE",
"50 707 LINE",
"50 677 LINE",
"69 677 OFFCURVE",
"108 674 OFFCURVE",
"138 661 CURVE",
"138 46 LINE",
"108 33 OFFCURVE",
"69 30 OFFCURVE",
"50 30 CURVE",
"50 0 LINE"
);
}
);
width = 850;
}
);
leftKerningGroup = H;
rightKerningGroup = H;
unicode = 0048;
},
{
color = 3;
glyphname = Hbar;
lastChange = "2022-03-18 09:39:33 +0000";
layers = (
{
components = (
{
name = I;
transform = "{1, 0, 0, 1, -7, 0}";
},
{
name = I;
transform = "{1, 0, 0, 1, 480, 0}";
}
);
layerId = "6D97EE47-94AA-478E-ABFB-936E6C32B491";
paths = (
{
closed = 1;
nodes = (
"796 499 LINE",
"796 541 LINE",
"42 541 LINE",
"42 499 LINE"
);
},
{
closed = 1;
nodes = (
"640 328 LINE",
"640 379 LINE",
"196 379 LINE",
"196 328 LINE"
);
}
);
width = 834;
}
);
leftKerningGroup = H;
rightKerningGroup = H;
unicode = 0126;
},
{
color = 6;
glyphname = I;
lastChange = "2022-03-18 09:39:33 +0000";
layers = (
{
anchors = (
{
name = BOTTOM;
position = "{182, 0}";
},
{
name = TOP;
position = "{181, 707}";
}
);
layerId = "6D97EE47-94AA-478E-ABFB-936E6C32B491";
paths = (
{
closed = 1;
nodes = (
"313 0 LINE",
"313 30 LINE",
"294 30 OFFCURVE",
"255 33 OFFCURVE",
"225 46 CURVE",
"225 661 LINE",
"255 674 OFFCURVE",
"294 677 OFFCURVE",
"313 677 CURVE",
"313 707 LINE",
"50 707 LINE",
"50 677 LINE",
"69 677 OFFCURVE",
"108 674 OFFCURVE",
"138 661 CURVE",
"138 46 LINE",
"108 33 OFFCURVE",
"69 30 OFFCURVE",
"50 30 CURVE",
"50 0 LINE"
);
}
);
width = 363;
}
);
leftKerningGroup = H;
leftMetricsKey = H;
rightKerningGroup = H;
rightMetricsKey = H;
unicode = 0049;
},
{
color = 6;
glyphname = J;
lastChange = "2022-03-18 09:39:33 +0000";
layers = (
{
anchors = (
{
name = TOP;
position = "{220, 707}";
}
);
layerId = "6D97EE47-94AA-478E-ABFB-936E6C32B491";
paths = (
{
closed = 1;
nodes = (
"92 -271 OFFCURVE",
"221 -175 OFFCURVE",
"264 0 CURVE",
"264 661 LINE",
"294 674 OFFCURVE",
"333 677 OFFCURVE",
"352 677 CURVE",
"352 707 LINE",
"88 707 LINE",
"88 677 LINE",
"107 677 OFFCURVE",
"146 674 OFFCURVE",
"176 661 CURVE",
"176 20 LINE SMOOTH",
"175 -6 OFFCURVE",
"173 -33 OFFCURVE",
"166 -59 CURVE SMOOTH",
"141 -154 OFFCURVE",
"83 -230 OFFCURVE",
"46 -263 CURVE",
"68 -286 LINE"
);
}
);
width = 402;
}
);
leftKerningGroup = J;
rightKerningGroup = H;
rightMetricsKey = H;
unicode = 004A;
},
{
color = 6;
glyphname = K;
lastChange = "2022-03-18 09:39:33 +0000";
layers = (
{
anchors = (
{
name = BOTTOM;
position = "{356, 0}";
}
);
layerId = "6D97EE47-94AA-478E-ABFB-936E6C32B491";
paths = (
{
closed = 1;
nodes = (
"712 0 LINE",
"623 27 OFFCURVE",
"591 68 OFFCURVE",
"538 127 CURVE SMOOTH",
"475 197 OFFCURVE",
"374 333 OFFCURVE",
"331 392 CURVE",
"581 661 LINE",
"611 674 OFFCURVE",
"649 677 OFFCURVE",
"668 677 CURVE",
"668 707 LINE",
"440 707 LINE",
"440 677 LINE",
"455 677 OFFCURVE",
"487 674 OFFCURVE",
"512 661 CURVE",
"243 373 LINE",
"275 331 OFFCURVE",
"418 117 OFFCURVE",
"469 65 CURVE SMOOTH",
"525 7 OFFCURVE",
"568 -29 OFFCURVE",
"705 -30 CURVE"
);
},
{
closed = 1;
nodes = (
"317 0 LINE",
"317 30 LINE",
"297 30 OFFCURVE",
"256 33 OFFCURVE",
"225 46 CURVE",
"225 661 LINE",
"255 674 OFFCURVE",
"294 677 OFFCURVE",
"313 677 CURVE",
"313 707 LINE",
"50 707 LINE",
"50 677 LINE",
"69 677 OFFCURVE",
"108 674 OFFCURVE",
"138 661 CURVE",
"138 46 LINE",
"108 33 OFFCURVE",
"69 30 OFFCURVE",
"50 30 CURVE",
"50 0 LINE"
);
}
);
width = 706;
}
);
leftKerningGroup = H;
leftMetricsKey = H;
rightKerningGroup = K;
unicode = 004B;
},
{
color = 6;
glyphname = L;
lastChange = "2022-03-18 09:39:33 +0000";
layers = (
{
anchors = (
{
name = BOTTOM;
position = "{313, 0}";
},
{
name = TOP;
position = "{182, 707}";
}
);
layerId = "6D97EE47-94AA-478E-ABFB-936E6C32B491";
paths = (
{
closed = 1;
nodes = (
"540 0 LINE",
"586 148 LINE",
"555 158 LINE",
"547 139 OFFCURVE",
"516 77 OFFCURVE",
"493 51 CURVE",
"225 51 LINE",
"225 661 LINE",
"255 674 OFFCURVE",
"294 677 OFFCURVE",
"313 677 CURVE",
"313 707 LINE",
"50 707 LINE",
"50 677 LINE",
"69 677 OFFCURVE",
"108 674 OFFCURVE",
"138 661 CURVE",
"138 46 LINE",
"108 33 OFFCURVE",
"69 30 OFFCURVE",
"50 30 CURVE",
"50 0 LINE"
);
}
);
width = 590;
}
);
leftKerningGroup = H;
leftMetricsKey = H;
rightKerningGroup = E;
unicode = 004C;
},
{
color = 3;
glyphname = Lslash;
lastChange = "2022-03-18 09:39:33 +0000";
layers = (
{
components = (
{
name = L;
}
);
layerId = "6D97EE47-94AA-478E-ABFB-936E6C32B491";
paths = (
{
closed = 1;
nodes = (
"406 427 LINE",
"387 465 LINE",
"52 301 LINE",
"71 263 LINE"
);
}
);
width = 590;
}
);
leftKerningGroup = H;
leftMetricsKey = L;
rightKerningGroup = E;
rightMetricsKey = L;
unicode = 0141;
},
{
color = 6;
glyphname = M;
lastChange = "2022-03-18 09:39:33 +0000";
layers = (
{
layerId = "6D97EE47-94AA-478E-ABFB-936E6C32B491";
paths = (
{
closed = 1;
nodes = (
"272 0 LINE",
"272 30 LINE",
"253 30 OFFCURVE",
"214 33 OFFCURVE",
"184 46 CURVE",
"209 604 LINE",
"193 602 LINE",
"439 0 LINE",
"722 577 LINE",
"705 580 LINE",
"725 46 LINE",
"695 33 OFFCURVE",
"657 30 OFFCURVE",
"638 30 CURVE",
"638 0 LINE",
"901 0 LINE",
"901 30 LINE",
"882 30 OFFCURVE",
"843 33 OFFCURVE",
"813 46 CURVE",
"789 661 LINE",
"819 674 OFFCURVE",
"857 677 OFFCURVE",
"876 677 CURVE",
"876 707 LINE",
"729 707 LINE",
"449 136 LINE",
"479 135 LINE",
"245 707 LINE",
"67 707 LINE",
"67 677 LINE",
"86 677 OFFCURVE",
"125 674 OFFCURVE",
"155 661 CURVE",
"128 46 LINE",
"98 33 OFFCURVE",
"59 30 OFFCURVE",
"40 30 CURVE",
"40 0 LINE"
);
}
);
width = 951;
}
);
leftKerningGroup = M;
leftMetricsKey = "=H-10";
rightKerningGroup = M;
rightMetricsKey = H;
unicode = 004D;
},
{
color = 6;
glyphname = N;
lastChange = "2022-03-18 09:39:33 +0000";
layers = (
{
anchors = (
{
name = BOTTOM;
position = "{407, 0}";
},
{
name = TOP;
position = "{407, 707}";
}
);
layerId = "6D97EE47-94AA-478E-ABFB-936E6C32B491";
paths = (
{
closed = 1;
nodes = (
"678 -14 LINE",
"678 661 LINE",
"708 674 OFFCURVE",
"747 677 OFFCURVE",
"766 677 CURVE",
"766 707 LINE",
"534 707 LINE",
"534 677 LINE",
"553 677 OFFCURVE",
"592 674 OFFCURVE",
"622 661 CURVE",
"622 111 LINE",
"644 118 LINE",
"199 707 LINE",
"40 707 LINE",
"40 677 LINE",
"59 677 OFFCURVE",
"98 674 OFFCURVE",
"128 661 CURVE",
"128 46 LINE",
"98 33 OFFCURVE",
"59 30 OFFCURVE",
"40 30 CURVE",
"40 0 LINE",
"272 0 LINE",
"272 30 LINE",
"253 30 OFFCURVE",
"214 33 OFFCURVE",
"184 46 CURVE",
"184 618 LINE",
"162 611 LINE",
"633 -14 LINE"
);
}
);
width = 806;
}
);
leftMetricsKey = "=H-10";
rightKerningGroup = H;
rightMetricsKey = "=H-10";
unicode = 004E;
},
{
color = 6;
glyphname = Nhookleft;
lastChange = "2022-03-18 09:39:33 +0000";
layers = (
{
layerId = "6D97EE47-94AA-478E-ABFB-936E6C32B491";
paths = (
{
closed = 1;
nodes = (
"21 -239 OFFCURVE",
"64 -234 OFFCURVE",
"101 -209 CURVE SMOOTH",
"145 -179 OFFCURVE",
"165 -134 OFFCURVE",
"170 -92 CURVE SMOOTH",
"175 -53 OFFCURVE",
"173 89 OFFCURVE",
"173 141 CURVE SMOOTH",
"173 619 LINE",
"151 612 LINE",
"623 -14 LINE",
"667 -14 LINE",
"667 661 LINE",
"697 674 OFFCURVE",
"736 677 OFFCURVE",
"755 677 CURVE",
"755 707 LINE",
"523 707 LINE",
"523 677 LINE",
"542 677 OFFCURVE",
"581 674 OFFCURVE",
"611 661 CURVE",
"611 112 LINE",
"633 119 LINE",
"190 707 LINE",
"29 707 LINE",
"29 677 LINE",
"48 677 OFFCURVE",
"87 674 OFFCURVE",
"117 661 CURVE",
"117 2 LINE SMOOTH",
"119 -80 OFFCURVE",
"113 -109 OFFCURVE",
"91 -131 CURVE SMOOTH",
"66 -156 OFFCURVE",
"14 -159 OFFCURVE",
"-34 -147 CURVE",
"-28 -229 LINE"
);
}
);
width = 795;
}
);
rightKerningGroup = H;
rightMetricsKey = N;
unicode = 019D;
},
{
color = 6;
glyphname = Eng;
lastChange = "2022-03-18 09:39:33 +0000";
layers = (
{
layerId = "6D97EE47-94AA-478E-ABFB-936E6C32B491";
paths = (
{
closed = 1;
nodes = (
"526 -239 OFFCURVE",
"569 -234 OFFCURVE",
"606 -209 CURVE SMOOTH",
"650 -179 OFFCURVE",
"666 -129 OFFCURVE",
"671 -92 CURVE SMOOTH",
"676 -53 OFFCURVE",
"678 89 OFFCURVE",
"678 141 CURVE SMOOTH",
"678 662 LINE",
"708 674 OFFCURVE",
"745 677 OFFCURVE",
"764 677 CURVE",
"764 707 LINE",
"536 707 LINE",
"536 677 LINE",
"555 677 OFFCURVE",
"592 674 OFFCURVE",
"622 662 CURVE",
"622 112 LINE",
"644 119 LINE",
"201 707 LINE",
"40 707 LINE",
"40 677 LINE",
"59 677 OFFCURVE",
"98 674 OFFCURVE",
"128 661 CURVE",
"128 46 LINE",
"98 33 OFFCURVE",
"59 30 OFFCURVE",
"40 30 CURVE",
"40 0 LINE",
"272 0 LINE",
"272 30 LINE",
"253 30 OFFCURVE",
"214 33 OFFCURVE",
"184 46 CURVE",
"184 619 LINE",
"162 612 LINE",
"622 2 LINE",
"624 -80 OFFCURVE",
"618 -109 OFFCURVE",
"596 -131 CURVE SMOOTH",
"571 -155 OFFCURVE",
"519 -159 OFFCURVE",
"471 -147 CURVE",
"477 -229 LINE"
);
}
);
width = 804;
}
);
leftMetricsKey = N;
rightKerningGroup = H;
rightMetricsKey = N;
unicode = 014A;
},
{
color = 6;
glyphname = O;
lastChange = "2022-03-18 09:39:33 +0000";
layers = (
{
anchors = (
{
name = BOTTOM;
position = "{438, 0}";
},
{
name = TOP;
position = "{428, 707}";
}
);
layerId = "6D97EE47-94AA-478E-ABFB-936E6C32B491";
paths = (
{
closed = 1;
nodes = (
"625 -14 OFFCURVE",
"794 155 OFFCURVE",
"794 360 CURVE SMOOTH",
"794 562 OFFCURVE",
"627 721 OFFCURVE",
"424 721 CURVE SMOOTH",
"218 721 OFFCURVE",
"50 553 OFFCURVE",
"50 348 CURVE SMOOTH",
"50 146 OFFCURVE",
"215 -14 OFFCURVE",
"419 -14 CURVE SMOOTH"
);
},
{
closed = 1;
nodes = (
"276 41 OFFCURVE",
"141 215 OFFCURVE",
"141 390 CURVE SMOOTH",
"141 544 OFFCURVE",
"248 667 OFFCURVE",
"395 667 CURVE SMOOTH",
"566 667 OFFCURVE",
"702 496 OFFCURVE",
"702 319 CURVE SMOOTH",
"702 165 OFFCURVE",
"596 41 OFFCURVE",
"449 41 CURVE SMOOTH"
);
}
);
width = 844;
}
);
leftKerningGroup = O;
rightKerningGroup = O;
unicode = 004F;
},
{
color = 6;
glyphname = Oslash;
lastChange = "2022-03-18 09:39:33 +0000";
layers = (
{
anchors = (
{
name = BOTTOM;
position = "{438, 0}";
},
{
name = TOP;
position = "{428, 707}";
}
);
layerId = "6D97EE47-94AA-478E-ABFB-936E6C32B491";
paths = (
{
closed = 1;
nodes = (
"699 778 LINE",
"660 799 LINE",
"154 -78 LINE",
"192 -100 LINE"
);
},
{
closed = 1;
nodes = (
"625 -14 OFFCURVE",
"794 155 OFFCURVE",
"794 360 CURVE SMOOTH",
"794 562 OFFCURVE",
"627 721 OFFCURVE",
"424 721 CURVE SMOOTH",
"218 721 OFFCURVE",
"50 553 OFFCURVE",
"50 348 CURVE SMOOTH",
"50 146 OFFCURVE",
"215 -14 OFFCURVE",
"419 -14 CURVE SMOOTH"
);
},
{
closed = 1;
nodes = (
"276 41 OFFCURVE",
"141 215 OFFCURVE",
"141 390 CURVE SMOOTH",
"141 544 OFFCURVE",
"248 667 OFFCURVE",
"395 667 CURVE SMOOTH",
"566 667 OFFCURVE",
"702 496 OFFCURVE",
"702 319 CURVE SMOOTH",
"702 165 OFFCURVE",
"596 41 OFFCURVE",
"449 41 CURVE SMOOTH"
);
}
);
width = 844;
}
);
leftKerningGroup = O;
leftMetricsKey = O;
rightKerningGroup = O;
rightMetricsKey = O;
unicode = 00D8;
},
{
color = 6;
glyphname = OE;
lastChange = "2022-03-18 09:39:33 +0000";
layers = (
{
anchors = (
{
name = BOTTOM;
position = "{774, 0}";
},
{
name = TOP;
position = "{764, 707}";
}
);
layerId = "6D97EE47-94AA-478E-ABFB-936E6C32B491";
paths = (
{
closed = 1;
nodes = (
"459 -14 OFFCURVE",
"490 -9 OFFCURVE",
"521 0 CURVE",
"990 0 LINE",
"1023 151 LINE",
"991 159 LINE",
"988 146 OFFCURVE",
"964 85 OFFCURVE",
"938 51 CURVE",
"675 51 LINE",
"675 342 LINE",
"881 342 LINE",
"891 314 OFFCURVE",
"893 280 OFFCURVE",
"893 263 CURVE",
"925 263 LINE",
"925 463 LINE",
"893 463 LINE",
"893 447 OFFCURVE",
"891 419 OFFCURVE",
"884 393 CURVE",
"675 393 LINE",
"675 656 LINE",
"918 656 LINE",
"931 626 OFFCURVE",
"936 591 OFFCURVE",
"938 569 CURVE",
"970 571 LINE",
"965 707 LINE",
"526 707 LINE",
"493 716 OFFCURVE",
"459 721 OFFCURVE",
"424 721 CURVE SMOOTH",
"218 721 OFFCURVE",
"50 553 OFFCURVE",
"50 348 CURVE SMOOTH",
"50 149 OFFCURVE",
"213 -14 OFFCURVE",
"419 -14 CURVE SMOOTH"
);
},
{
closed = 1;
nodes = (
"276 41 OFFCURVE",
"141 216 OFFCURVE",
"141 390 CURVE SMOOTH",
"141 548 OFFCURVE",
"250 669 OFFCURVE",
"406 669 CURVE SMOOTH",
"471 669 OFFCURVE",
"536 646 OFFCURVE",
"588 606 CURVE",
"588 84 LINE",
"547 57 OFFCURVE",
"498 41 OFFCURVE",
"449 41 CURVE SMOOTH"
);
}
);
width = 1048;
}
);
leftKerningGroup = O;
leftMetricsKey = O;
rightKerningGroup = E;
rightMetricsKey = E;
unicode = 0152;
},
{
color = 6;
glyphname = P;
lastChange = "2022-03-18 09:39:33 +0000";
layers = (
{
layerId = "6D97EE47-94AA-478E-ABFB-936E6C32B491";
paths = (
{
closed = 1;
nodes = (
"322 0 LINE",
"322 30 LINE",
"301 30 OFFCURVE",
"258 33 OFFCURVE",
"225 46 CURVE",
"225 671 LINE",
"238 673 OFFCURVE",
"251 674 OFFCURVE",
"264 674 CURVE SMOOTH",
"386 674 OFFCURVE",
"487 591 OFFCURVE",
"487 470 CURVE SMOOTH",
"487 381 OFFCURVE",
"423 309 OFFCURVE",
"282 300 CURVE",
"287 268 LINE",
"474 261 OFFCURVE",
"580 375 OFFCURVE",
"580 491 CURVE SMOOTH",
"580 605 OFFCURVE",
"473 721 OFFCURVE",
"311 721 CURVE SMOOTH",
"236 721 OFFCURVE",
"178 712 OFFCURVE",
"51 702 CURVE",
"54 672 LINE",
"69 675 OFFCURVE",
"110 673 OFFCURVE",
"138 667 CURVE",
"138 46 LINE",
"108 33 OFFCURVE",
"69 30 OFFCURVE",
"50 30 CURVE",
"50 0 LINE"
);
}
);
width = 630;
}
);
leftKerningGroup = H;
leftMetricsKey = H;
rightKerningGroup = P;
rightMetricsKey = O;
unicode = 0050;
},
{
color = 6;
glyphname = Thorn;
lastChange = "2022-03-18 09:39:33 +0000";
layers = (
{
anchors = (
{
name = BOTTOM;
position = "{182, 0}";
},
{
name = TOP;
position = "{181, 707}";
}
);
layerId = "6D97EE47-94AA-478E-ABFB-936E6C32B491";
paths = (
{
closed = 1;
nodes = (
"313 0 LINE",
"313 30 LINE",
"294 30 OFFCURVE",
"255 33 OFFCURVE",
"225 46 CURVE",
"225 512 LINE",
"236 514 OFFCURVE",
"248 515 OFFCURVE",
"260 515 CURVE SMOOTH",
"351 515 OFFCURVE",
"444 456 OFFCURVE",
"444 339 CURVE SMOOTH",
"444 260 OFFCURVE",
"389 200 OFFCURVE",
"266 194 CURVE",
"270 163 LINE",
"441 155 OFFCURVE",
"532 258 OFFCURVE",
"532 358 CURVE SMOOTH",
"532 477 OFFCURVE",
"420 561 OFFCURVE",
"282 561 CURVE SMOOTH",
"263 561 OFFCURVE",
"246 559 OFFCURVE",
"225 556 CURVE",
"225 661 LINE",
"255 674 OFFCURVE",
"294 677 OFFCURVE",
"313 677 CURVE",
"313 707 LINE",
"50 707 LINE",
"50 677 LINE",
"69 677 OFFCURVE",
"108 674 OFFCURVE",
"138 661 CURVE",
"138 46 LINE",
"108 33 OFFCURVE",
"69 30 OFFCURVE",
"50 30 CURVE",
"50 0 LINE"
);
}
);
width = 582;
}
);
leftKerningGroup = H;
leftMetricsKey = H;
rightKerningGroup = Thorn;
rightMetricsKey = P;
unicode = 00DE;
},
{
color = 6;
glyphname = Q;
lastChange = "2022-03-18 09:39:33 +0000";
layers = (
{
layerId = "6D97EE47-94AA-478E-ABFB-936E6C32B491";
paths = (
{
closed = 1;
nodes = (
"853 -168 LINE",
"743 -158 OFFCURVE",
"631 -90 OFFCURVE",
"543 7 CURVE",
"689 58 OFFCURVE",
"795 197 OFFCURVE",
"795 359 CURVE SMOOTH",
"795 561 OFFCURVE",
"627 721 OFFCURVE",
"424 721 CURVE SMOOTH",
"219 721 OFFCURVE",
"50 553 OFFCURVE",
"50 348 CURVE SMOOTH",
"50 149 OFFCURVE",
"213 -14 OFFCURVE",
"419 -14 CURVE SMOOTH",
"428 -14 OFFCURVE",
"436 -14 OFFCURVE",
"445 -13 CURVE",
"561 -136 OFFCURVE",
"685 -190 OFFCURVE",
"850 -200 CURVE"
);
},
{
closed = 1;
nodes = (
"276 41 OFFCURVE",
"141 216 OFFCURVE",
"141 390 CURVE SMOOTH",
"141 543 OFFCURVE",
"247 667 OFFCURVE",
"395 667 CURVE SMOOTH",
"566 667 OFFCURVE",
"702 496 OFFCURVE",
"702 319 CURVE SMOOTH",
"702 165 OFFCURVE",
"597 41 OFFCURVE",
"449 41 CURVE SMOOTH"
);
}
);
width = 833;
}
);
leftKerningGroup = O;
leftMetricsKey = O;
rightKerningGroup = O;
unicode = 0051;
},
{
color = 6;
glyphname = R;
lastChange = "2022-03-18 09:39:33 +0000";
layers = (
{
anchors = (
{
name = BOTTOM;
position = "{356, 0}";
},
{
name = TOP;
position = "{287, 707}";
}
);
layerId = "6D97EE47-94AA-478E-ABFB-936E6C32B491";
paths = (
{
closed = 1;
nodes = (
"317 0 LINE",
"317 30 LINE",
"297 30 OFFCURVE",
"256 33 OFFCURVE",
"225 46 CURVE",
"225 317 LINE",
"526 343 OFFCURVE",
"570 519 OFFCURVE",
"532 613 CURVE SMOOTH",
"478 748 OFFCURVE",
"306 726 OFFCURVE",
"50 704 CURVE",
"53 674 LINE",
"71 676 OFFCURVE",
"106 676 OFFCURVE",
"138 669 CURVE",
"138 46 LINE",
"108 33 OFFCURVE",
"69 30 OFFCURVE",
"50 30 CURVE",
"50 0 LINE"
);
},
{
closed = 1;
nodes = (
"713 0 LINE",
"626 33 OFFCURVE",
"590 65 OFFCURVE",
"541 128 CURVE SMOOTH",
"482 203 OFFCURVE",
"413 311 OFFCURVE",
"379 376 CURVE",
"296 352 LINE",
"325 307 OFFCURVE",
"418 129 OFFCURVE",
"466 73 CURVE SMOOTH",
"519 12 OFFCURVE",
"566 -20 OFFCURVE",
"704 -29 CURVE"
);
},
{
closed = 1;
nodes = (
"225 677 LINE",
"356 691 OFFCURVE",
"420 653 OFFCURVE",
"450 572 CURVE SMOOTH",
"485 477 OFFCURVE",
"406 361 OFFCURVE",
"225 353 CURVE"
);
}
);
width = 707;
}
);
leftKerningGroup = H;
leftMetricsKey = H;
rightKerningGroup = R;
unicode = 0052;
},
{
color = 6;
glyphname = S;
lastChange = "2022-03-18 09:39:33 +0000";
layers = (
{
anchors = (
{
name = BOTTOM;
position = "{282, 0}";
},
{
name = TOP;
position = "{292, 707}";
}
);
layerId = "6D97EE47-94AA-478E-ABFB-936E6C32B491";
paths = (
{
closed = 1;
nodes = (
"401 -14 OFFCURVE",
"503 50 OFFCURVE",
"503 168 CURVE SMOOTH",
"503 400 OFFCURVE",
"179 402 OFFCURVE",
"179 560 CURVE SMOOTH",
"179 626 OFFCURVE",
"244 675 OFFCURVE",
"321 675 CURVE SMOOTH",
"405 675 OFFCURVE",
"445 620 OFFCURVE",
"456 536 CURVE",
"489 540 LINE",
"467 702 LINE",
"441 707 OFFCURVE",
"389 721 OFFCURVE",
"328 721 CURVE SMOOTH",
"197 721 OFFCURVE",
"91 660 OFFCURVE",
"91 537 CURVE SMOOTH",
"91 334 OFFCURVE",
"412 316 OFFCURVE",
"412 155 CURVE SMOOTH",
"412 79 OFFCURVE",
"350 33 OFFCURVE",
"262 33 CURVE SMOOTH",
"154 33 OFFCURVE",
"105 106 OFFCURVE",
"79 221 CURVE",
"46 215 LINE",
"77 23 LINE",
"83 15 OFFCURVE",
"178 -14 OFFCURVE",
"272 -14 CURVE SMOOTH"
);
}
);
width = 554;
}
);
leftKerningGroup = S;
rightKerningGroup = S;
unicode = 0053;
},
{
color = 6;
glyphname = Germandbls;
lastChange = "2022-03-18 09:39:33 +0000";
layers = (
{
layerId = "6D97EE47-94AA-478E-ABFB-936E6C32B491";
paths = (
{
closed = 1;
nodes = (
"638 -14 OFFCURVE",
"713 67 OFFCURVE",
"713 170 CURVE SMOOTH",
"713 290 OFFCURVE",
"596 386 OFFCURVE",
"476 472 CURVE",
"479 425 LINE",
"604 625 LINE",
"533 692 OFFCURVE",
"465 721 OFFCURVE",
"374 721 CURVE SMOOTH",
"314 721 OFFCURVE",
"246 698 OFFCURVE",
"199 653 CURVE SMOOTH",
"120 577 OFFCURVE",
"116 472 OFFCURVE",
"116 379 CURVE SMOOTH",
"116 46 LINE",
"86 33 OFFCURVE",
"47 30 OFFCURVE",
"28 30 CURVE",
"28 0 LINE",
"283 0 LINE",
"283 30 LINE",
"266 30 OFFCURVE",
"231 33 OFFCURVE",
"204 46 CURVE",
"204 418 LINE SMOOTH",
"204 561 OFFCURVE",
"219 671 OFFCURVE",
"350 671 CURVE SMOOTH",
"434 671 OFFCURVE",
"493 616 OFFCURVE",
"539 555 CURVE",
"543 605 LINE",
"415 397 LINE",
"536 305 OFFCURVE",
"638 232 OFFCURVE",
"638 141 CURVE SMOOTH",
"638 80 OFFCURVE",
"588 32 OFFCURVE",
"520 32 CURVE SMOOTH",
"438 32 OFFCURVE",
"381 110 OFFCURVE",
"359 219 CURVE",
"325 212 LINE",
"355 24 LINE",
"384 6 OFFCURVE",
"458 -14 OFFCURVE",
"504 -14 CURVE SMOOTH"
);
}
);
width = 738;
}
);
leftKerningGroup = H;
rightKerningGroup = B;
rightMetricsKey = B;
unicode = 1E9E;
},
{
color = 6;
glyphname = T;
lastChange = "2022-03-18 09:39:33 +0000";
layers = (
{
anchors = (
{
name = BOTTOM;
position = "{319, 0}";
},
{
name = TOP;
position = "{319, 707}";
}
);
layerId = "6D97EE47-94AA-478E-ABFB-936E6C32B491";
paths = (
{
closed = 1;
nodes = (
"450 0 LINE",
"450 30 LINE",
"431 30 OFFCURVE",
"392 33 OFFCURVE",
"362 46 CURVE",
"362 656 LINE",
"567 656 LINE",
"573 610 OFFCURVE",
"572 570 OFFCURVE",
"571 531 CURVE",
"602 528 LINE",
"628 707 LINE",
"10 707 LINE",
"10 531 LINE",
"42 531 LINE",
"48 571 OFFCURVE",
"54 612 OFFCURVE",
"66 656 CURVE",
"275 656 LINE",
"275 46 LINE",
"245 33 OFFCURVE",
"206 30 OFFCURVE",
"187 30 CURVE",
"187 0 LINE"
);
}
);
width = 638;
}
);
leftKerningGroup = T;
rightKerningGroup = T;
unicode = 0054;
},
{
color = 3;
glyphname = Tbar;
lastChange = "2022-03-18 09:39:33 +0000";
layers = (
{
components = (
{
name = T;
}
);
layerId = "6D97EE47-94AA-478E-ABFB-936E6C32B491";
paths = (
{
closed = 1;
nodes = (
"494 339 LINE",
"494 381 LINE",
"144 381 LINE",
"144 339 LINE"
);
}
);
width = 638;
}
);
leftKerningGroup = T;
leftMetricsKey = T;
rightKerningGroup = T;
rightMetricsKey = T;
unicode = 0166;
},
{
color = 6;
glyphname = U;
lastChange = "2022-03-18 09:39:33 +0000";
layers = (
{
anchors = (
{
name = BOTTOM;
position = "{437, 0}";
},
{
name = TOP;
position = "{436, 707}";
}
);
layerId = "6D97EE47-94AA-478E-ABFB-936E6C32B491";
paths = (
{
closed = 1;
nodes = (
"506 -14 OFFCURVE",
"647 15 OFFCURVE",
"688 139 CURVE SMOOTH",
"708 199 OFFCURVE",
"706 306 OFFCURVE",
"706 393 CURVE SMOOTH",
"706 661 LINE",
"736 674 OFFCURVE",
"775 677 OFFCURVE",
"794 677 CURVE",
"794 707 LINE",
"562 707 LINE",
"562 677 LINE",
"581 677 OFFCURVE",
"620 674 OFFCURVE",
"650 661 CURVE",
"650 400 LINE SMOOTH",
"650 305 OFFCURVE",
"653 218 OFFCURVE",
"637 162 CURVE SMOOTH",
"611 76 OFFCURVE",
"528 38 OFFCURVE",
"433 38 CURVE SMOOTH",
"335 38 OFFCURVE",
"263 97 OFFCURVE",
"240 166 CURVE SMOOTH",
"223 220 OFFCURVE",
"225 338 OFFCURVE",
"225 389 CURVE SMOOTH",
"225 661 LINE",
"255 674 OFFCURVE",
"294 677 OFFCURVE",
"313 677 CURVE",
"313 707 LINE",
"50 707 LINE",
"50 677 LINE",
"69 677 OFFCURVE",
"108 674 OFFCURVE",
"138 661 CURVE",
"138 384 LINE SMOOTH",
"138 281 OFFCURVE",
"139 192 OFFCURVE",
"163 134 CURVE SMOOTH",
"213 18 OFFCURVE",
"340 -14 OFFCURVE",
"423 -14 CURVE SMOOTH"
);
}
);
width = 834;
}
);
leftKerningGroup = U;
leftMetricsKey = H;
rightKerningGroup = U;
rightMetricsKey = "=H-10";
unicode = 0055;
},
{
color = 6;
glyphname = V;
lastChange = "2022-03-18 09:39:33 +0000";
layers = (
{
layerId = "6D97EE47-94AA-478E-ABFB-936E6C32B491";
paths = (
{
closed = 1;
nodes = (
"376 -14 LINE",
"652 661 LINE",
"676 674 OFFCURVE",
"707 677 OFFCURVE",
"722 677 CURVE",
"722 707 LINE",
"509 707 LINE",
"509 677 LINE",
"528 677 OFFCURVE",
"567 674 OFFCURVE",
"597 661 CURVE",
"363 91 LINE",
"390 91 LINE",
"177 661 LINE",
"207 674 OFFCURVE",
"246 677 OFFCURVE",
"265 677 CURVE",
"265 707 LINE",
"4 707 LINE",
"4 677 LINE",
"21 677 OFFCURVE",
"56 674 OFFCURVE",
"83 661 CURVE",
"335 -14 LINE"
);
}
);
width = 726;
}
);
rightKerningGroup = V;
unicode = 0056;
},
{
color = 6;
glyphname = W;
lastChange = "2022-03-18 09:39:33 +0000";
layers = (
{
layerId = "6D97EE47-94AA-478E-ABFB-936E6C32B491";
paths = (
{
closed = 1;
nodes = (
"296 -14 LINE",
"513 518 LINE",
"486 518 LINE",
"694 -14 LINE",
"735 -14 LINE",
"901 661 LINE",
"926 674 OFFCURVE",
"958 677 OFFCURVE",
"973 677 CURVE",
"973 707 LINE",
"761 707 LINE",
"761 677 LINE",
"780 677 OFFCURVE",
"819 674 OFFCURVE",
"848 661 CURVE",
"715 117 LINE",
"737 118 LINE",
"540 619 LINE",
"499 619 LINE",
"291 109 LINE",
"314 108 LINE",
"171 661 LINE",
"200 674 OFFCURVE",
"239 677 OFFCURVE",
"258 677 CURVE",
"258 707 LINE",
"4 707 LINE",
"4 677 LINE",
"20 677 OFFCURVE",
"54 674 OFFCURVE",
"80 662 CURVE",
"255 -14 LINE"
);
}
);
width = 949;
}
);
leftMetricsKey = V;
rightKerningGroup = W;
unicode = 0057;
},
{
color = 6;
glyphname = X;
lastChange = "2022-03-18 09:39:33 +0000";
layers = (
{
layerId = "6D97EE47-94AA-478E-ABFB-936E6C32B491";
paths = (
{
closed = 1;
nodes = (
"671 0 LINE",
"671 30 LINE",
"654 30 OFFCURVE",
"620 33 OFFCURVE",
"594 46 CURVE",
"194 661 LINE",
"224 674 OFFCURVE",
"263 677 OFFCURVE",
"282 677 CURVE",
"282 707 LINE",
"12 707 LINE",
"12 677 LINE",
"28 677 OFFCURVE",
"62 674 OFFCURVE",
"88 662 CURVE",
"488 46 LINE",
"458 33 OFFCURVE",
"420 30 OFFCURVE",
"401 30 CURVE",
"401 0 LINE"
);
},
{
closed = 1;
nodes = (
"227 0 LINE",
"227 30 LINE",
"208 30 OFFCURVE",
"169 33 OFFCURVE",
"139 46 CURVE",
"334 325 LINE",
"303 372 LINE",
"76 46 LINE",
"51 33 OFFCURVE",
"19 30 OFFCURVE",
"4 30 CURVE",
"4 0 LINE"
);
},
{
closed = 1;
nodes = (
"578 661 LINE",
"603 674 OFFCURVE",
"634 677 OFFCURVE",
"649 677 CURVE",
"649 707 LINE",
"427 707 LINE",
"427 677 LINE",
"446 677 OFFCURVE",
"485 674 OFFCURVE",
"515 661 CURVE",
"333 402 LINE",
"365 357 LINE"
);
}
);
width = 675;
}
);
rightKerningGroup = X;
unicode = 0058;
},
{
color = 6;
glyphname = Y;
lastChange = "2022-03-18 09:39:33 +0000";
layers = (
{
anchors = (
{
name = TOP;
position = "{339, 707}";
}
);
layerId = "6D97EE47-94AA-478E-ABFB-936E6C32B491";
paths = (
{
closed = 1;
nodes = (
"466 0 LINE",
"466 30 LINE",
"447 30 OFFCURVE",
"408 33 OFFCURVE",
"378 46 CURVE",
"378 303 LINE",
"577 662 LINE",
"602 674 OFFCURVE",
"633 677 OFFCURVE",
"648 677 CURVE",
"648 707 LINE",
"431 707 LINE",
"431 677 LINE",
"450 677 OFFCURVE",
"489 674 OFFCURVE",
"519 661 CURVE",
"331 325 LINE",
"367 325 LINE",
"181 661 LINE",
"211 674 OFFCURVE",
"249 677 OFFCURVE",
"268 677 CURVE",
"268 707 LINE",
"4 707 LINE",
"4 677 LINE",
"20 677 OFFCURVE",
"54 674 OFFCURVE",
"80 661 CURVE",
"291 280 LINE",
"291 46 LINE",
"261 33 OFFCURVE",
"222 30 OFFCURVE",
"203 30 CURVE",
"203 0 LINE"
);
}
);
width = 652;
}
);
rightKerningGroup = V;
unicode = 0059;
},
{
color = 6;
glyphname = Z;
lastChange = "2022-03-18 09:39:33 +0000";
layers = (
{
anchors = (
{
name = TOP;
position = "{289, 707}";
}
);
layerId = "6D97EE47-94AA-478E-ABFB-936E6C32B491";
paths = (
{
closed = 1;
nodes = (
"556 0 LINE",
"595 167 LINE",
"564 175 LINE",
"560 161 OFFCURVE",
"531 90 OFFCURVE",
"500 51 CURVE",
"139 51 LINE",
"555 669 LINE",
"538 707 LINE",
"43 707 LINE",
"36 536 LINE",
"68 534 LINE",
"76 574 OFFCURVE",
"82 613 OFFCURVE",
"94 656 CURVE",
"440 656 LINE",
"25 38 LINE",
"40 0 LINE"
);
}
);
width = 620;
}
);
leftMetricsKey = "=H/2";
rightKerningGroup = Z;
rightMetricsKey = "=H/2";
unicode = 005A;
},
{
color = 6;
glyphname = K.ss01;
lastChange = "2022-03-18 09:39:33 +0000";
layers = (
{
anchors = (
{
name = BOTTOM;
position = "{356, 0}";
}
);
layerId = "6D97EE47-94AA-478E-ABFB-936E6C32B491";
paths = (
{
closed = 1;
nodes = (
"857 -184 LINE",
"768 -157 OFFCURVE",
"736 -116 OFFCURVE",
"683 -57 CURVE SMOOTH",
"620 13 OFFCURVE",
"374 333 OFFCURVE",
"331 392 CURVE",
"581 661 LINE",
"611 674 OFFCURVE",
"649 677 OFFCURVE",
"668 677 CURVE",
"668 707 LINE",
"440 707 LINE",
"440 677 LINE",
"455 677 OFFCURVE",
"487 674 OFFCURVE",
"512 661 CURVE",
"243 373 LINE",
"275 331 OFFCURVE",
"563 -67 OFFCURVE",
"614 -119 CURVE SMOOTH",
"670 -177 OFFCURVE",
"713 -213 OFFCURVE",
"850 -214 CURVE"
);
},
{
closed = 1;
nodes = (
"317 0 LINE",
"317 30 LINE",
"297 30 OFFCURVE",
"256 33 OFFCURVE",
"225 46 CURVE",
"225 661 LINE",
"255 674 OFFCURVE",
"294 677 OFFCURVE",
"313 677 CURVE",
"313 707 LINE",
"50 707 LINE",
"50 677 LINE",
"69 677 OFFCURVE",
"108 674 OFFCURVE",
"138 661 CURVE",
"138 46 LINE",
"108 33 OFFCURVE",
"69 30 OFFCURVE",
"50 30 CURVE",
"50 0 LINE"
);
}
);
width = 657;
}
);
leftMetricsKey = K;
rightKerningGroup = K.ss01;
},
{
color = 6;
glyphname = Q.ss01;
lastChange = "2022-03-18 09:39:33 +0000";
layers = (
{
layerId = "6D97EE47-94AA-478E-ABFB-936E6C32B491";
paths = (
{
closed = 1;
nodes = (
"625 -14 OFFCURVE",
"795 154 OFFCURVE",
"795 359 CURVE SMOOTH",
"795 561 OFFCURVE",
"627 721 OFFCURVE",
"424 721 CURVE SMOOTH",
"219 721 OFFCURVE",
"50 553 OFFCURVE",
"50 348 CURVE SMOOTH",
"50 149 OFFCURVE",
"213 -14 OFFCURVE",
"419 -14 CURVE SMOOTH"
);
},
{
closed = 1;
nodes = (
"276 41 OFFCURVE",
"141 216 OFFCURVE",
"141 390 CURVE SMOOTH",
"141 543 OFFCURVE",
"247 667 OFFCURVE",
"395 667 CURVE SMOOTH",
"566 667 OFFCURVE",
"702 496 OFFCURVE",
"702 319 CURVE SMOOTH",
"702 165 OFFCURVE",
"597 41 OFFCURVE",
"449 41 CURVE SMOOTH"
);
},
{
closed = 1;
nodes = (
"1166 -251 OFFCURVE",
"1314 -221 OFFCURVE",
"1456 -126 CURVE",
"1437 -101 LINE",
"1361 -149 OFFCURVE",
"1279 -178 OFFCURVE",
"1134 -175 CURVE SMOOTH",
"986 -172 OFFCURVE",
"620 1 OFFCURVE",
"534 34 CURVE",
"385 0 LINE",
"475 -16 OFFCURVE",
"854 -206 OFFCURVE",
"997 -227 CURVE SMOOTH"
);
}
);
width = 849;
}
);
leftMetricsKey = O;
rightKerningGroup = Q.ss01;
},
{
color = 6;
glyphname = R.ss01;
lastChange = "2022-03-18 09:39:33 +0000";
layers = (
{
anchors = (
{
name = BOTTOM;
position = "{356, 0}";
},
{
name = TOP;
position = "{287, 707}";
}
);
layerId = "6D97EE47-94AA-478E-ABFB-936E6C32B491";
paths = (
{
closed = 1;
nodes = (
"317 0 LINE",
"317 30 LINE",
"297 30 OFFCURVE",
"256 33 OFFCURVE",
"225 46 CURVE",
"225 317 LINE",
"526 343 OFFCURVE",
"570 519 OFFCURVE",
"532 613 CURVE SMOOTH",
"478 748 OFFCURVE",
"306 726 OFFCURVE",
"50 704 CURVE",
"53 672 LINE",
"71 673 OFFCURVE",
"108 675 OFFCURVE",
"138 665 CURVE",
"138 46 LINE",
"108 33 OFFCURVE",
"69 30 OFFCURVE",
"50 30 CURVE",
"50 0 LINE"
);
},
{
closed = 1;
nodes = (
"837 -185 LINE",
"750 -152 OFFCURVE",
"714 -120 OFFCURVE",
"665 -57 CURVE SMOOTH",
"607 17 OFFCURVE",
"416 311 OFFCURVE",
"379 376 CURVE",
"296 352 LINE",
"325 307 OFFCURVE",
"542 -56 OFFCURVE",
"590 -112 CURVE SMOOTH",
"643 -173 OFFCURVE",
"690 -205 OFFCURVE",
"828 -214 CURVE"
);
},
{
closed = 1;
nodes = (
"225 677 LINE",
"356 691 OFFCURVE",
"420 653 OFFCURVE",
"450 572 CURVE SMOOTH",
"485 477 OFFCURVE",
"406 361 OFFCURVE",
"225 353 CURVE"
);
}
);
width = 637;
}
);
leftKerningGroup = H;
leftMetricsKey = R;
rightKerningGroup = R.ss01;
},
{
color = 6;
glyphname = Y.ss01;
lastChange = "2022-03-18 09:39:33 +0000";
layers = (
{
anchors = (
{
name = TOP;
position = "{301, 707}";
}
);
layerId = "6D97EE47-94AA-478E-ABFB-936E6C32B491";
paths = (
{
closed = 1;
nodes = (
"430 0 LINE",
"430 30 LINE",
"411 30 OFFCURVE",
"372 33 OFFCURVE",
"342 46 CURVE",
"342 245 LINE SMOOTH",
"342 447 OFFCURVE",
"426 624 OFFCURVE",
"582 700 CURVE",
"570 728 LINE",
"446 678 OFFCURVE",
"359 587 OFFCURVE",
"308 470 CURVE",
"256 598 OFFCURVE",
"150 690 OFFCURVE",
"16 728 CURVE",
"4 698 LINE",
"150 628 OFFCURVE",
"254 435 OFFCURVE",
"254 249 CURVE SMOOTH",
"254 46 LINE",
"224 33 OFFCURVE",
"185 30 OFFCURVE",
"166 30 CURVE",
"166 0 LINE"
);
}
);
width = 586;
}
);
leftMetricsKey = Y;
rightKerningGroup = V;
rightMetricsKey = Y;
},
{
color = 6;
glyphname = Z.ss01;
lastChange = "2022-03-18 09:39:33 +0000";
layers = (
{
anchors = (
{
name = TOP;
position = "{279, 707}";
}
);
layerId = "6D97EE47-94AA-478E-ABFB-936E6C32B491";
paths = (
{
closed = 1;
nodes = (
"522 0 LINE",
"561 167 LINE",
"530 175 LINE",
"527 164 OFFCURVE",
"508 118 OFFCURVE",
"486 80 CURVE",
"125 80 LINE",
"521 669 LINE",
"504 707 LINE",
"43 707 LINE",
"36 536 LINE",
"68 534 LINE",
"74 565 OFFCURVE",
"79 596 OFFCURVE",
"87 629 CURVE",
"422 629 LINE",
"25 38 LINE",
"40 0 LINE"
);
}
);
width = 586;
}
);
leftMetricsKey = Z;
rightKerningGroup = Z;
rightMetricsKey = Z;
},
{
color = 6;
glyphname = A.ss10;
lastChange = "2022-03-18 09:39:33 +0000";
layers = (
{
layerId = "6D97EE47-94AA-478E-ABFB-936E6C32B491";
paths = (
{
closed = 1;
nodes = (
"1305 -440 LINE",
"1305 1117 LINE",
"100 1117 LINE",
"100 -440 LINE"
);
},
{
closed = 1;
nodes = (
"180 1037 LINE",
"1225 1037 LINE",
"1225 -360 LINE",
"180 -360 LINE"
);
},
{
closed = 1;
nodes = (
"1201 -336 LINE",
"1201 1013 LINE",
"204 1013 LINE",
"204 -336 LINE"
);
},
{
closed = 1;
nodes = (
"344 30 LINE",
"359 30 OFFCURVE",
"390 33 OFFCURVE",
"415 45 CURVE",
"667 665 LINE",
"652 707 LINE",
"734 737 LINE",
"985 46 LINE",
"1011 33 OFFCURVE",
"1045 30 OFFCURVE",
"1061 30 CURVE",
"1061 0 LINE",
"804 0 LINE",
"804 30 LINE",
"823 30 OFFCURVE",
"862 33 OFFCURVE",
"892 46 CURVE",
"818 249 LINE",
"556 249 LINE",
"473 46 LINE",
"503 33 OFFCURVE",
"542 30 OFFCURVE",
"561 30 CURVE",
"561 0 LINE",
"344 0 LINE"
);
},
{
closed = 1;
nodes = (
"800 300 LINE",
"695 589 LINE",
"577 300 LINE"
);
}
);
width = 1405;
}
);
},
{
color = 6;
glyphname = B.ss10;
lastChange = "2022-03-18 09:39:33 +0000";
layers = (
{
layerId = "6D97EE47-94AA-478E-ABFB-936E6C32B491";
paths = (
{
closed = 1;
nodes = (
"1138 -440 LINE",
"1138 1117 LINE",
"100 1117 LINE",
"100 -440 LINE"
);
},
{
closed = 1;
nodes = (
"781 77 OFFCURVE",
"818 136 OFFCURVE",
"798 217 CURVE SMOOTH",
"783 276 OFFCURVE",
"739 316 OFFCURVE",
"686 334 CURVE SMOOTH",
"632 354 OFFCURVE",
"569 349 OFFCURVE",
"519 349 CURVE",
"519 69 LINE",
"546 46 OFFCURVE",
"642 33 OFFCURVE",
"709 54 CURVE SMOOTH"
);
},
{
closed = 1;
nodes = (
"180 1037 LINE",
"1058 1037 LINE",
"1058 -360 LINE",
"180 -360 LINE"
);
},
{
closed = 1;
nodes = (
"1034 -336 LINE",
"1034 1013 LINE",
"204 1013 LINE",
"204 -336 LINE"
);
},
{
closed = 1;
nodes = (
"344 30 LINE",
"363 30 OFFCURVE",
"402 33 OFFCURVE",
"432 46 CURVE",
"432 669 LINE",
"400 676 OFFCURVE",
"365 676 OFFCURVE",
"347 674 CURVE",
"344 704 LINE",
"501 716 OFFCURVE",
"561 721 OFFCURVE",
"630 721 CURVE SMOOTH",
"734 721 OFFCURVE",
"789 678 OFFCURVE",
"814 622 CURVE SMOOTH",
"853 535 OFFCURVE",
"802 432 OFFCURVE",
"730 398 CURVE",
"779 382 OFFCURVE",
"867 332 OFFCURVE",
"889 238 CURVE SMOOTH",
"914 137 OFFCURVE",
"841 0 OFFCURVE",
"654 0 CURVE SMOOTH",
"344 0 LINE"
);
},
{
closed = 1;
nodes = (
"543 394 OFFCURVE",
"643 388 OFFCURVE",
"690 419 CURVE SMOOTH",
"734 447 OFFCURVE",
"761 521 OFFCURVE",
"733 588 CURVE SMOOTH",
"698 671 OFFCURVE",
"625 686 OFFCURVE",
"519 673 CURVE",
"519 395 LINE"
);
}
);
width = 1238;
}
);
},
{
color = 6;
glyphname = C.ss10;
lastChange = "2022-03-18 09:39:33 +0000";
layers = (
{
layerId = "6D97EE47-94AA-478E-ABFB-936E6C32B491";
paths = (
{
closed = 1;
nodes = (
"1255 -440 LINE",
"1255 1117 LINE",
"100 1117 LINE",
"100 -440 LINE"
);
},
{
closed = 1;
nodes = (
"609 -73 OFFCURVE",
"409 61 OFFCURVE",
"357 257 CURVE SMOOTH",
"304 453 OFFCURVE",
"426 656 OFFCURVE",
"623 708 CURVE SMOOTH",
"744 741 OFFCURVE",
"881 706 OFFCURVE",
"948 688 CURVE",
"968 546 LINE",
"938 540 LINE",
"890 667 OFFCURVE",
"753 692 OFFCURVE",
"635 661 CURVE SMOOTH",
"487 622 OFFCURVE",
"409 456 OFFCURVE",
"454 283 CURVE SMOOTH",
"495 123 OFFCURVE",
"649 5 OFFCURVE",
"800 38 CURVE SMOOTH",
"883 56 OFFCURVE",
"924 87 OFFCURVE",
"981 176 CURVE",
"1011 161 LINE",
"933 13 LINE"
);
},
{
closed = 1;
nodes = (
"180 1037 LINE",
"1175 1037 LINE",
"1175 -360 LINE",
"180 -360 LINE"
);
},
{
closed = 1;
nodes = (
"1151 -336 LINE",
"1151 1013 LINE",
"204 1013 LINE",
"204 -336 LINE"
);
}
);
width = 1355;
}
);
},
{
color = 6;
glyphname = D.ss10;
lastChange = "2022-03-18 09:39:33 +0000";
layers = (
{
layerId = "6D97EE47-94AA-478E-ABFB-936E6C32B491";
paths = (
{
closed = 1;
nodes = (
"1320 -440 LINE",
"1320 1117 LINE",
"100 1117 LINE",
"100 -440 LINE"
);
},
{
closed = 1;
nodes = (
"180 1037 LINE",
"1240 1037 LINE",
"1240 -360 LINE",
"180 -360 LINE"
);
},
{
closed = 1;
nodes = (
"1216 -336 LINE",
"1216 1013 LINE",
"204 1013 LINE",
"204 -336 LINE"
);
},
{
closed = 1;
nodes = (
"344 30 LINE",
"363 30 OFFCURVE",
"402 33 OFFCURVE",
"432 46 CURVE",
"432 664 LINE",
"400 671 OFFCURVE",
"365 671 OFFCURVE",
"347 669 CURVE",
"344 699 LINE",
"435 707 OFFCURVE",
"531 721 OFFCURVE",
"626 721 CURVE SMOOTH",
"884 721 OFFCURVE",
"1076 597 OFFCURVE",
"1076 364 CURVE SMOOTH",
"1076 203 OFFCURVE",
"952 62 OFFCURVE",
"789 19 CURVE SMOOTH",
"745 7 OFFCURVE",
"667 0 OFFCURVE",
"604 0 CURVE SMOOTH",
"344 0 LINE"
);
},
{
closed = 1;
nodes = (
"842 47 OFFCURVE",
"978 157 OFFCURVE",
"978 337 CURVE SMOOTH",
"978 544 OFFCURVE",
"820 674 OFFCURVE",
"604 674 CURVE SMOOTH",
"577 674 OFFCURVE",
"549 672 OFFCURVE",
"519 668 CURVE",
"519 69 LINE",
"553 56 OFFCURVE",
"596 47 OFFCURVE",
"647 47 CURVE SMOOTH"
);
}
);
width = 1420;
}
);
},
{
color = 6;
glyphname = E.ss10;
lastChange = "2022-03-18 09:39:33 +0000";
layers = (
{
layerId = "6D97EE47-94AA-478E-ABFB-936E6C32B491";
paths = (
{
closed = 1;
nodes = (
"1111 -440 LINE",
"1111 1117 LINE",
"100 1117 LINE",
"100 -440 LINE"
);
},
{
closed = 1;
nodes = (
"180 1037 LINE",
"1031 1037 LINE",
"1031 -360 LINE",
"180 -360 LINE"
);
},
{
closed = 1;
nodes = (
"1007 -336 LINE",
"1007 1013 LINE",
"204 1013 LINE",
"204 -336 LINE"
);
},
{
closed = 1;
nodes = (
"344 30 LINE",
"363 30 OFFCURVE",
"402 33 OFFCURVE",
"432 46 CURVE",
"432 661 LINE",
"402 674 OFFCURVE",
"363 677 OFFCURVE",
"344 677 CURVE",
"344 707 LINE",
"809 707 LINE",
"814 571 LINE",
"782 569 LINE",
"780 592 OFFCURVE",
"775 626 OFFCURVE",
"762 656 CURVE",
"519 656 LINE",
"519 393 LINE",
"728 393 LINE",
"735 419 OFFCURVE",
"737 447 OFFCURVE",
"737 463 CURVE",
"769 463 LINE",
"769 263 LINE",
"737 263 LINE",
"737 280 OFFCURVE",
"735 314 OFFCURVE",
"725 342 CURVE",
"519 342 LINE",
"519 51 LINE",
"782 51 LINE",
"808 85 OFFCURVE",
"832 146 OFFCURVE",
"835 159 CURVE",
"867 151 LINE",
"834 0 LINE",
"344 0 LINE"
);
}
);
width = 1211;
}
);
},
{
color = 6;
glyphname = F.ss10;
lastChange = "2022-03-18 09:39:33 +0000";
layers = (
{
layerId = "6D97EE47-94AA-478E-ABFB-936E6C32B491";
paths = (
{
closed = 1;
nodes = (
"1058 -440 LINE",
"1058 1117 LINE",
"100 1117 LINE",
"100 -440 LINE"
);
},
{
closed = 1;
nodes = (
"180 1037 LINE",
"978 1037 LINE",
"978 -360 LINE",
"180 -360 LINE"
);
},
{
closed = 1;
nodes = (
"954 -336 LINE",
"954 1013 LINE",
"204 1013 LINE",
"204 -336 LINE"
);
},
{
closed = 1;
nodes = (
"344 30 LINE",
"363 30 OFFCURVE",
"402 33 OFFCURVE",
"432 46 CURVE",
"432 661 LINE",
"402 674 OFFCURVE",
"363 677 OFFCURVE",
"344 677 CURVE",
"344 707 LINE",
"809 707 LINE",
"814 571 LINE",
"782 569 LINE",
"780 592 OFFCURVE",
"775 626 OFFCURVE",
"762 656 CURVE",
"519 656 LINE",
"519 382 LINE",
"724 382 LINE",
"732 408 OFFCURVE",
"734 437 OFFCURVE",
"734 452 CURVE",
"764 452 LINE",
"764 252 LINE",
"734 252 LINE",
"734 269 OFFCURVE",
"732 303 OFFCURVE",
"722 331 CURVE",
"519 331 LINE",
"519 46 LINE",
"552 33 OFFCURVE",
"595 30 OFFCURVE",
"616 30 CURVE",
"616 0 LINE",
"344 0 LINE"
);
}
);
width = 1158;
}
);
},
{
color = 6;
glyphname = G.ss10;
lastChange = "2022-03-18 09:39:33 +0000";
layers = (
{
anchors = (
{
name = BOTTOM;
position = "{724, 0}";
},
{
name = TOP;
position = "{724, 707}";
}
);
layerId = "6D97EE47-94AA-478E-ABFB-936E6C32B491";
paths = (
{
closed = 1;
nodes = (
"1298 -440 LINE",
"1298 1117 LINE",
"100 1117 LINE",
"100 -440 LINE"
);
},
{
closed = 1;
nodes = (
"543 -3 OFFCURVE",
"400 87 OFFCURVE",
"356 256 CURVE SMOOTH",
"304 452 OFFCURVE",
"425 654 OFFCURVE",
"621 707 CURVE SMOOTH",
"743 739 OFFCURVE",
"903 705 OFFCURVE",
"968 686 CURVE",
"989 544 LINE",
"959 538 LINE",
"911 666 OFFCURVE",
"752 691 OFFCURVE",
"634 659 CURVE SMOOTH",
"485 620 OFFCURVE",
"408 454 OFFCURVE",
"453 281 CURVE SMOOTH",
"494 122 OFFCURVE",
"677 -49 OFFCURVE",
"912 69 CURVE",
"912 220 LINE",
"882 233 OFFCURVE",
"842 236 OFFCURVE",
"824 236 CURVE",
"824 268 LINE",
"1054 268 LINE",
"1054 236 LINE",
"1038 236 OFFCURVE",
"1010 227 OFFCURVE",
"999 220 CURVE",
"999 75 LINE",
"1003 66 OFFCURVE",
"1015 56 OFFCURVE",
"1025 51 CURVE",
"1025 16 LINE",
"930 11 OFFCURVE",
"835 -22 OFFCURVE",
"709 -13 CURVE SMOOTH"
);
},
{
closed = 1;
nodes = (
"180 1037 LINE",
"1218 1037 LINE",
"1218 -360 LINE",
"180 -360 LINE"
);
},
{
closed = 1;
nodes = (
"1194 -336 LINE",
"1194 1013 LINE",
"204 1013 LINE",
"204 -336 LINE"
);
}
);
width = 1398;
}
);
},
{
color = 6;
glyphname = H.ss10;
lastChange = "2022-03-18 09:39:33 +0000";
layers = (
{
layerId = "6D97EE47-94AA-478E-ABFB-936E6C32B491";
paths = (
{
closed = 1;
nodes = (
"1338 -440 LINE",
"1338 1117 LINE",
"100 1117 LINE",
"100 -440 LINE"
);
},
{
closed = 1;
nodes = (
"180 1037 LINE",
"1258 1037 LINE",
"1258 -360 LINE",
"180 -360 LINE"
);
},
{
closed = 1;
nodes = (
"1234 -336 LINE",
"1234 1013 LINE",
"204 1013 LINE",
"204 -336 LINE"
);
},
{
closed = 1;
nodes = (
"344 30 LINE",
"363 30 OFFCURVE",
"402 33 OFFCURVE",
"432 46 CURVE",
"432 661 LINE",
"402 674 OFFCURVE",
"363 677 OFFCURVE",
"344 677 CURVE",
"344 707 LINE",
"607 707 LINE",
"607 677 LINE",
"588 677 OFFCURVE",
"549 674 OFFCURVE",
"519 661 CURVE",
"519 399 LINE",
"919 399 LINE",
"919 661 LINE",
"889 674 OFFCURVE",
"850 677 OFFCURVE",
"831 677 CURVE",
"831 707 LINE",
"1094 707 LINE",
"1094 677 LINE",
"1075 677 OFFCURVE",
"1036 674 OFFCURVE",
"1006 661 CURVE",
"1006 46 LINE",
"1036 33 OFFCURVE",
"1075 30 OFFCURVE",
"1094 30 CURVE",
"1094 0 LINE",
"831 0 LINE",
"831 30 LINE",
"850 30 OFFCURVE",
"889 33 OFFCURVE",
"919 46 CURVE",
"919 348 LINE",
"519 348 LINE",
"519 46 LINE",
"549 33 OFFCURVE",
"588 30 OFFCURVE",
"607 30 CURVE",
"607 0 LINE",
"344 0 LINE"
);
}
);
width = 1438;
}
);
},
{
color = 6;
glyphname = I.ss10;
lastChange = "2022-03-18 09:39:33 +0000";
layers = (
{
anchors = (
{
name = BOTTOM;
position = "{476, 0}";
},
{
name = TOP;
position = "{475, 707}";
}
);
layerId = "6D97EE47-94AA-478E-ABFB-936E6C32B491";
paths = (
{
closed = 1;
nodes = (
"851 -440 LINE",
"851 1117 LINE",
"100 1117 LINE",
"100 -440 LINE"
);
},
{
closed = 1;
nodes = (
"180 1037 LINE",
"771 1037 LINE",
"771 -360 LINE",
"180 -360 LINE"
);
},
{
closed = 1;
nodes = (
"747 -336 LINE",
"747 1013 LINE",
"204 1013 LINE",
"204 -336 LINE"
);
},
{
closed = 1;
nodes = (
"344 30 LINE",
"363 30 OFFCURVE",
"402 33 OFFCURVE",
"432 46 CURVE",
"432 661 LINE",
"402 674 OFFCURVE",
"363 677 OFFCURVE",
"344 677 CURVE",
"344 707 LINE",
"607 707 LINE",
"607 677 LINE",
"588 677 OFFCURVE",
"549 674 OFFCURVE",
"519 661 CURVE",
"519 46 LINE",
"549 33 OFFCURVE",
"588 30 OFFCURVE",
"607 30 CURVE",
"607 0 LINE",
"344 0 LINE"
);
}
);
width = 951;
}
);
},
{
color = 6;
glyphname = J.ss10;
lastChange = "2022-03-18 09:39:33 +0000";
layers = (
{
layerId = "6D97EE47-94AA-478E-ABFB-936E6C32B491";
paths = (
{
closed = 1;
nodes = (
"894 -440 LINE",
"894 1117 LINE",
"100 1117 LINE",
"100 -440 LINE"
);
},
{
closed = 1;
nodes = (
"344 -163 LINE",
"381 -130 OFFCURVE",
"439 -54 OFFCURVE",
"464 41 CURVE SMOOTH",
"471 67 OFFCURVE",
"474 94 OFFCURVE",
"474 120 CURVE SMOOTH",
"474 661 LINE",
"444 674 OFFCURVE",
"405 677 OFFCURVE",
"386 677 CURVE",
"386 707 LINE",
"650 707 LINE",
"650 677 LINE",
"631 677 OFFCURVE",
"592 674 OFFCURVE",
"562 661 CURVE",
"562 100 LINE",
"519 -75 OFFCURVE",
"390 -171 OFFCURVE",
"366 -186 CURVE"
);
},
{
closed = 1;
nodes = (
"180 1037 LINE",
"814 1037 LINE",
"814 -360 LINE",
"180 -360 LINE"
);
},
{
closed = 1;
nodes = (
"790 -336 LINE",
"790 1013 LINE",
"204 1013 LINE",
"204 -336 LINE"
);
}
);
width = 994;
}
);
},
{
color = 6;
glyphname = K.ss10;
lastChange = "2022-03-18 09:39:33 +0000";
layers = (
{
anchors = (
{
name = BOTTOM;
position = "{650, 0}";
}
);
layerId = "6D97EE47-94AA-478E-ABFB-936E6C32B491";
paths = (
{
closed = 1;
nodes = (
"1250 -440 LINE",
"1250 1117 LINE",
"100 1117 LINE",
"100 -440 LINE"
);
},
{
closed = 1;
nodes = (
"344 30 LINE",
"363 30 OFFCURVE",
"402 33 OFFCURVE",
"432 46 CURVE",
"432 661 LINE",
"402 674 OFFCURVE",
"363 677 OFFCURVE",
"344 677 CURVE",
"344 707 LINE",
"607 707 LINE",
"607 677 LINE",
"588 677 OFFCURVE",
"549 674 OFFCURVE",
"519 661 CURVE",
"519 46 LINE",
"550 33 OFFCURVE",
"591 30 OFFCURVE",
"611 30 CURVE",
"611 0 LINE",
"344 0 LINE"
);
},
{
closed = 1;
nodes = (
"180 1037 LINE",
"1170 1037 LINE",
"1170 -360 LINE",
"180 -360 LINE"
);
},
{
closed = 1;
nodes = (
"1146 -336 LINE",
"1146 1013 LINE",
"204 1013 LINE",
"204 -336 LINE"
);
},
{
closed = 1;
nodes = (
"862 -29 OFFCURVE",
"819 7 OFFCURVE",
"763 65 CURVE SMOOTH",
"712 117 OFFCURVE",
"569 331 OFFCURVE",
"537 373 CURVE",
"806 661 LINE",
"781 674 OFFCURVE",
"749 677 OFFCURVE",
"734 677 CURVE",
"734 707 LINE",
"962 707 LINE",
"962 677 LINE",
"943 677 OFFCURVE",
"905 674 OFFCURVE",
"875 661 CURVE",
"625 392 LINE",
"668 333 OFFCURVE",
"769 197 OFFCURVE",
"832 127 CURVE SMOOTH",
"885 68 OFFCURVE",
"917 27 OFFCURVE",
"1006 0 CURVE",
"999 -30 LINE"
);
}
);
width = 1350;
}
);
},
{
color = 6;
glyphname = L.ss10;
lastChange = "2022-03-18 09:39:33 +0000";
layers = (
{
layerId = "6D97EE47-94AA-478E-ABFB-936E6C32B491";
paths = (
{
closed = 1;
nodes = (
"1124 -440 LINE",
"1124 1117 LINE",
"100 1117 LINE",
"100 -440 LINE"
);
},
{
closed = 1;
nodes = (
"180 1037 LINE",
"1044 1037 LINE",
"1044 -360 LINE",
"180 -360 LINE"
);
},
{
closed = 1;
nodes = (
"1020 -336 LINE",
"1020 1013 LINE",
"204 1013 LINE",
"204 -336 LINE"
);
},
{
closed = 1;
nodes = (
"344 30 LINE",
"363 30 OFFCURVE",
"402 33 OFFCURVE",
"432 46 CURVE",
"432 661 LINE",
"402 674 OFFCURVE",
"363 677 OFFCURVE",
"344 677 CURVE",
"344 707 LINE",
"607 707 LINE",
"607 677 LINE",
"588 677 OFFCURVE",
"549 674 OFFCURVE",
"519 661 CURVE",
"519 51 LINE",
"787 51 LINE",
"810 77 OFFCURVE",
"841 139 OFFCURVE",
"849 158 CURVE",
"880 148 LINE",
"834 0 LINE",
"344 0 LINE"
);
}
);
width = 1224;
}
);
},
{
color = 6;
glyphname = M.ss10;
lastChange = "2022-03-18 09:39:33 +0000";
layers = (
{
layerId = "6D97EE47-94AA-478E-ABFB-936E6C32B491";
paths = (
{
closed = 1;
nodes = (
"1447 -440 LINE",
"1447 1117 LINE",
"100 1117 LINE",
"100 -440 LINE"
);
},
{
closed = 1;
nodes = (
"180 1037 LINE",
"1367 1037 LINE",
"1367 -360 LINE",
"180 -360 LINE"
);
},
{
closed = 1;
nodes = (
"1343 -336 LINE",
"1343 1013 LINE",
"204 1013 LINE",
"204 -336 LINE"
);
},
{
closed = 1;
nodes = (
"342 30 LINE",
"361 30 OFFCURVE",
"400 33 OFFCURVE",
"430 46 CURVE",
"457 661 LINE",
"427 674 OFFCURVE",
"388 677 OFFCURVE",
"369 677 CURVE",
"369 707 LINE",
"547 707 LINE",
"782 133 LINE",
"750 134 LINE",
"1031 707 LINE",
"1178 707 LINE",
"1178 677 LINE",
"1159 677 OFFCURVE",
"1121 674 OFFCURVE",
"1091 661 CURVE",
"1115 46 LINE",
"1145 33 OFFCURVE",
"1184 30 OFFCURVE",
"1203 30 CURVE",
"1203 0 LINE",
"939 0 LINE",
"939 30 LINE",
"958 30 OFFCURVE",
"997 33 OFFCURVE",
"1027 46 CURVE",
"1008 544 LINE",
"741 0 LINE",
"509 568 LINE",
"486 46 LINE",
"516 33 OFFCURVE",
"555 30 OFFCURVE",
"574 30 CURVE",
"574 0 LINE",
"342 0 LINE"
);
}
);
width = 1547;
}
);
},
{
color = 6;
glyphname = N.ss10;
lastChange = "2022-03-18 09:39:33 +0000";
layers = (
{
layerId = "6D97EE47-94AA-478E-ABFB-936E6C32B491";
paths = (
{
closed = 1;
nodes = (
"1314 -440 LINE",
"1314 1117 LINE",
"100 1117 LINE",
"100 -440 LINE"
);
},
{
closed = 1;
nodes = (
"180 1037 LINE",
"1234 1037 LINE",
"1234 -360 LINE",
"180 -360 LINE"
);
},
{
closed = 1;
nodes = (
"1210 -336 LINE",
"1210 1013 LINE",
"204 1013 LINE",
"204 -336 LINE"
);
},
{
closed = 1;
nodes = (
"488 582 LINE",
"488 46 LINE",
"518 33 OFFCURVE",
"557 30 OFFCURVE",
"576 30 CURVE",
"576 0 LINE",
"344 0 LINE",
"344 30 LINE",
"363 30 OFFCURVE",
"402 33 OFFCURVE",
"432 46 CURVE",
"432 661 LINE",
"402 674 OFFCURVE",
"363 677 OFFCURVE",
"344 677 CURVE",
"344 707 LINE",
"503 707 LINE",
"926 147 LINE",
"926 661 LINE",
"896 674 OFFCURVE",
"857 677 OFFCURVE",
"838 677 CURVE",
"838 707 LINE",
"1070 707 LINE",
"1070 677 LINE",
"1051 677 OFFCURVE",
"1012 674 OFFCURVE",
"982 661 CURVE",
"982 -14 LINE",
"937 -14 LINE"
);
}
);
width = 1414;
}
);
},
{
color = 6;
glyphname = O.ss10;
lastChange = "2022-03-18 09:39:33 +0000";
layers = (
{
layerId = "6D97EE47-94AA-478E-ABFB-936E6C32B491";
paths = (
{
closed = 1;
nodes = (
"1332 -440 LINE",
"1332 1117 LINE",
"100 1117 LINE",
"100 -440 LINE"
);
},
{
closed = 1;
nodes = (
"180 1037 LINE",
"1252 1037 LINE",
"1252 -360 LINE",
"180 -360 LINE"
);
},
{
closed = 1;
nodes = (
"1228 -336 LINE",
"1228 1013 LINE",
"204 1013 LINE",
"204 -336 LINE"
);
},
{
closed = 1;
nodes = (
"509 -14 OFFCURVE",
"344 146 OFFCURVE",
"344 348 CURVE SMOOTH",
"344 553 OFFCURVE",
"512 721 OFFCURVE",
"718 721 CURVE SMOOTH",
"921 721 OFFCURVE",
"1088 562 OFFCURVE",
"1088 360 CURVE SMOOTH",
"1088 155 OFFCURVE",
"919 -14 OFFCURVE",
"713 -14 CURVE SMOOTH"
);
},
{
closed = 1;
nodes = (
"890 41 OFFCURVE",
"996 165 OFFCURVE",
"996 319 CURVE SMOOTH",
"996 496 OFFCURVE",
"860 667 OFFCURVE",
"689 667 CURVE SMOOTH",
"542 667 OFFCURVE",
"435 544 OFFCURVE",
"435 390 CURVE SMOOTH",
"435 215 OFFCURVE",
"570 41 OFFCURVE",
"743 41 CURVE SMOOTH"
);
}
);
width = 1432;
}
);
},
{
color = 6;
glyphname = P.ss10;
lastChange = "2022-03-18 09:39:33 +0000";
layers = (
{
layerId = "6D97EE47-94AA-478E-ABFB-936E6C32B491";
paths = (
{
closed = 1;
nodes = (
"1118 -440 LINE",
"1118 1117 LINE",
"100 1117 LINE",
"100 -440 LINE"
);
},
{
closed = 1;
nodes = (
"180 1037 LINE",
"1038 1037 LINE",
"1038 -360 LINE",
"180 -360 LINE"
);
},
{
closed = 1;
nodes = (
"1014 -336 LINE",
"1014 1013 LINE",
"204 1013 LINE",
"204 -336 LINE"
);
},
{
closed = 1;
nodes = (
"344 30 LINE",
"363 30 OFFCURVE",
"402 33 OFFCURVE",
"432 46 CURVE",
"432 667 LINE",
"404 673 OFFCURVE",
"363 675 OFFCURVE",
"348 672 CURVE",
"345 702 LINE",
"472 712 OFFCURVE",
"530 721 OFFCURVE",
"605 721 CURVE SMOOTH",
"767 721 OFFCURVE",
"874 605 OFFCURVE",
"874 491 CURVE SMOOTH",
"874 375 OFFCURVE",
"768 261 OFFCURVE",
"581 268 CURVE",
"576 300 LINE",
"717 309 OFFCURVE",
"781 381 OFFCURVE",
"781 470 CURVE SMOOTH",
"781 591 OFFCURVE",
"680 674 OFFCURVE",
"558 674 CURVE SMOOTH",
"545 674 OFFCURVE",
"532 673 OFFCURVE",
"519 671 CURVE",
"519 46 LINE",
"552 33 OFFCURVE",
"595 30 OFFCURVE",
"616 30 CURVE",
"616 0 LINE",
"344 0 LINE"
);
}
);
width = 1218;
}
);
},
{
color = 6;
glyphname = Q.ss10;
lastChange = "2022-03-18 09:39:33 +0000";
layers = (
{
layerId = "6D97EE47-94AA-478E-ABFB-936E6C32B491";
paths = (
{
closed = 1;
nodes = (
"1391 -440 LINE",
"1391 1117 LINE",
"100 1117 LINE",
"100 -440 LINE"
);
},
{
closed = 1;
nodes = (
"979 -190 OFFCURVE",
"855 -136 OFFCURVE",
"739 -13 CURVE",
"730 -14 OFFCURVE",
"722 -14 OFFCURVE",
"713 -14 CURVE SMOOTH",
"507 -14 OFFCURVE",
"344 149 OFFCURVE",
"344 348 CURVE SMOOTH",
"344 553 OFFCURVE",
"513 721 OFFCURVE",
"718 721 CURVE SMOOTH",
"921 721 OFFCURVE",
"1089 561 OFFCURVE",
"1089 359 CURVE SMOOTH",
"1089 197 OFFCURVE",
"983 58 OFFCURVE",
"837 7 CURVE",
"925 -90 OFFCURVE",
"1037 -158 OFFCURVE",
"1147 -168 CURVE",
"1144 -200 LINE"
);
},
{
closed = 1;
nodes = (
"891 41 OFFCURVE",
"996 165 OFFCURVE",
"996 319 CURVE SMOOTH",
"996 496 OFFCURVE",
"860 667 OFFCURVE",
"689 667 CURVE SMOOTH",
"541 667 OFFCURVE",
"435 543 OFFCURVE",
"435 390 CURVE SMOOTH",
"435 216 OFFCURVE",
"570 41 OFFCURVE",
"743 41 CURVE SMOOTH"
);
},
{
closed = 1;
nodes = (
"180 1037 LINE",
"1311 1037 LINE",
"1311 -360 LINE",
"180 -360 LINE"
);
},
{
closed = 1;
nodes = (
"1287 -336 LINE",
"1287 1013 LINE",
"204 1013 LINE",
"204 -336 LINE"
);
}
);
width = 1491;
}
);
},
{
color = 6;
glyphname = R.ss10;
lastChange = "2022-03-18 09:39:33 +0000";
layers = (
{
layerId = "6D97EE47-94AA-478E-ABFB-936E6C32B491";
paths = (
{
closed = 1;
nodes = (
"1251 -440 LINE",
"1251 1117 LINE",
"100 1117 LINE",
"100 -440 LINE"
);
},
{
closed = 1;
nodes = (
"180 1037 LINE",
"1171 1037 LINE",
"1171 -360 LINE",
"180 -360 LINE"
);
},
{
closed = 1;
nodes = (
"1147 -336 LINE",
"1147 1013 LINE",
"204 1013 LINE",
"204 -336 LINE"
);
},
{
closed = 1;
nodes = (
"860 -20 OFFCURVE",
"813 12 OFFCURVE",
"760 73 CURVE SMOOTH",
"718 122 OFFCURVE",
"641 265 OFFCURVE",
"603 330 CURVE",
"578 324 OFFCURVE",
"550 320 OFFCURVE",
"519 317 CURVE",
"519 46 LINE",
"550 33 OFFCURVE",
"591 30 OFFCURVE",
"611 30 CURVE",
"611 0 LINE",
"344 0 LINE",
"344 30 LINE",
"363 30 OFFCURVE",
"402 33 OFFCURVE",
"432 46 CURVE",
"432 669 LINE",
"400 676 OFFCURVE",
"365 676 OFFCURVE",
"347 674 CURVE",
"344 704 LINE",
"600 726 OFFCURVE",
"772 748 OFFCURVE",
"826 613 CURVE SMOOTH",
"855 540 OFFCURVE",
"835 418 OFFCURVE",
"684 355 CURVE",
"721 289 OFFCURVE",
"782 195 OFFCURVE",
"835 128 CURVE SMOOTH",
"884 65 OFFCURVE",
"920 33 OFFCURVE",
"1007 0 CURVE",
"998 -29 LINE"
);
},
{
closed = 1;
nodes = (
"700 361 OFFCURVE",
"779 477 OFFCURVE",
"744 572 CURVE SMOOTH",
"714 653 OFFCURVE",
"650 691 OFFCURVE",
"519 677 CURVE",
"519 353 LINE"
);
}
);
width = 1351;
}
);
},
{
color = 6;
glyphname = S.ss10;
lastChange = "2022-03-18 09:39:33 +0000";
layers = (
{
layerId = "6D97EE47-94AA-478E-ABFB-936E6C32B491";
paths = (
{
closed = 1;
nodes = (
"1045 -440 LINE",
"1045 1117 LINE",
"100 1117 LINE",
"100 -440 LINE"
);
},
{
closed = 1;
nodes = (
"180 1037 LINE",
"965 1037 LINE",
"965 -360 LINE",
"180 -360 LINE"
);
},
{
closed = 1;
nodes = (
"941 -336 LINE",
"941 1013 LINE",
"204 1013 LINE",
"204 -336 LINE"
);
},
{
closed = 1;
nodes = (
"476 -14 OFFCURVE",
"381 15 OFFCURVE",
"375 23 CURVE",
"344 215 LINE",
"377 221 LINE",
"403 106 OFFCURVE",
"452 33 OFFCURVE",
"560 33 CURVE SMOOTH",
"648 33 OFFCURVE",
"710 79 OFFCURVE",
"710 155 CURVE SMOOTH",
"710 316 OFFCURVE",
"389 334 OFFCURVE",
"389 537 CURVE SMOOTH",
"389 660 OFFCURVE",
"495 721 OFFCURVE",
"626 721 CURVE SMOOTH",
"687 721 OFFCURVE",
"739 707 OFFCURVE",
"765 702 CURVE",
"787 540 LINE",
"754 536 LINE",
"743 620 OFFCURVE",
"703 675 OFFCURVE",
"619 675 CURVE SMOOTH",
"542 675 OFFCURVE",
"477 626 OFFCURVE",
"477 560 CURVE SMOOTH",
"477 402 OFFCURVE",
"801 400 OFFCURVE",
"801 168 CURVE SMOOTH",
"801 50 OFFCURVE",
"699 -14 OFFCURVE",
"570 -14 CURVE SMOOTH"
);
}
);
width = 1145;
}
);
},
{
color = 6;
glyphname = T.ss10;
lastChange = "2022-03-18 09:39:33 +0000";
layers = (
{
layerId = "6D97EE47-94AA-478E-ABFB-936E6C32B491";
paths = (
{
closed = 1;
nodes = (
"1206 -440 LINE",
"1206 1117 LINE",
"100 1117 LINE",
"100 -440 LINE"
);
},
{
closed = 1;
nodes = (
"180 1037 LINE",
"1126 1037 LINE",
"1126 -360 LINE",
"180 -360 LINE"
);
},
{
closed = 1;
nodes = (
"1102 -336 LINE",
"1102 1013 LINE",
"204 1013 LINE",
"204 -336 LINE"
);
},
{
closed = 1;
nodes = (
"521 30 LINE",
"540 30 OFFCURVE",
"579 33 OFFCURVE",
"609 46 CURVE",
"609 656 LINE",
"400 656 LINE",
"388 612 OFFCURVE",
"382 571 OFFCURVE",
"376 531 CURVE",
"344 531 LINE",
"344 707 LINE",
"962 707 LINE",
"936 528 LINE",
"905 531 LINE",
"906 570 OFFCURVE",
"907 610 OFFCURVE",
"901 656 CURVE",
"696 656 LINE",
"696 46 LINE",
"727 33 OFFCURVE",
"766 30 OFFCURVE",
"785 30 CURVE",
"785 0 LINE",
"521 0 LINE"
);
}
);
width = 1306;
}
);
},
{
color = 6;
glyphname = U.ss10;
lastChange = "2022-03-18 09:39:33 +0000";
layers = (
{
anchors = (
{
name = BOTTOM;
position = "{731, 0}";
},
{
name = TOP;
position = "{730, 707}";
}
);
layerId = "6D97EE47-94AA-478E-ABFB-936E6C32B491";
paths = (
{
closed = 1;
nodes = (
"1332 -440 LINE",
"1332 1117 LINE",
"100 1117 LINE",
"100 -440 LINE"
);
},
{
closed = 1;
nodes = (
"180 1037 LINE",
"1252 1037 LINE",
"1252 -360 LINE",
"180 -360 LINE"
);
},
{
closed = 1;
nodes = (
"1228 -336 LINE",
"1228 1013 LINE",
"204 1013 LINE",
"204 -336 LINE"
);
},
{
closed = 1;
nodes = (
"634 -14 OFFCURVE",
"507 18 OFFCURVE",
"457 134 CURVE SMOOTH",
"433 192 OFFCURVE",
"432 281 OFFCURVE",
"432 384 CURVE SMOOTH",
"432 661 LINE",
"402 674 OFFCURVE",
"363 677 OFFCURVE",
"344 677 CURVE",
"344 707 LINE",
"607 707 LINE",
"607 677 LINE",
"588 677 OFFCURVE",
"549 674 OFFCURVE",
"519 661 CURVE",
"519 389 LINE SMOOTH",
"519 338 OFFCURVE",
"517 220 OFFCURVE",
"534 166 CURVE SMOOTH",
"557 97 OFFCURVE",
"629 38 OFFCURVE",
"727 38 CURVE SMOOTH",
"822 38 OFFCURVE",
"905 76 OFFCURVE",
"931 162 CURVE SMOOTH",
"947 218 OFFCURVE",
"944 305 OFFCURVE",
"944 400 CURVE SMOOTH",
"944 661 LINE",
"914 674 OFFCURVE",
"875 677 OFFCURVE",
"856 677 CURVE",
"856 707 LINE",
"1088 707 LINE",
"1088 677 LINE",
"1069 677 OFFCURVE",
"1030 674 OFFCURVE",
"1000 661 CURVE",
"1000 393 LINE SMOOTH",
"1000 306 OFFCURVE",
"1002 199 OFFCURVE",
"982 139 CURVE SMOOTH",
"941 15 OFFCURVE",
"800 -14 OFFCURVE",
"717 -14 CURVE SMOOTH"
);
}
);
width = 1432;
}
);
},
{
color = 6;
glyphname = V.ss10;
lastChange = "2022-03-18 09:39:33 +0000";
layers = (
{
layerId = "6D97EE47-94AA-478E-ABFB-936E6C32B491";
paths = (
{
closed = 1;
nodes = (
"1306 -440 LINE",
"1306 1117 LINE",
"100 1117 LINE",
"100 -440 LINE"
);
},
{
closed = 1;
nodes = (
"180 1037 LINE",
"1226 1037 LINE",
"1226 -360 LINE",
"180 -360 LINE"
);
},
{
closed = 1;
nodes = (
"1202 -336 LINE",
"1202 1013 LINE",
"204 1013 LINE",
"204 -336 LINE"
);
},
{
closed = 1;
nodes = (
"423 661 LINE",
"396 674 OFFCURVE",
"361 677 OFFCURVE",
"344 677 CURVE",
"344 707 LINE",
"605 707 LINE",
"605 677 LINE",
"586 677 OFFCURVE",
"547 674 OFFCURVE",
"517 661 CURVE",
"717 124 LINE",
"937 661 LINE",
"907 674 OFFCURVE",
"868 677 OFFCURVE",
"849 677 CURVE",
"849 707 LINE",
"1062 707 LINE",
"1062 677 LINE",
"1047 677 OFFCURVE",
"1016 674 OFFCURVE",
"992 661 CURVE",
"716 -14 LINE",
"675 -14 LINE"
);
}
);
width = 1406;
}
);
},
{
color = 6;
glyphname = W.ss10;
lastChange = "2022-03-18 09:39:33 +0000";
layers = (
{
layerId = "6D97EE47-94AA-478E-ABFB-936E6C32B491";
paths = (
{
closed = 1;
nodes = (
"1557 -440 LINE",
"1557 1117 LINE",
"100 1117 LINE",
"100 -440 LINE"
);
},
{
closed = 1;
nodes = (
"180 1037 LINE",
"1477 1037 LINE",
"1477 -360 LINE",
"180 -360 LINE"
);
},
{
closed = 1;
nodes = (
"1453 -336 LINE",
"1453 1013 LINE",
"204 1013 LINE",
"204 -336 LINE"
);
},
{
closed = 1;
nodes = (
"420 661 LINE",
"394 674 OFFCURVE",
"360 677 OFFCURVE",
"344 677 CURVE",
"344 707 LINE",
"598 707 LINE",
"598 677 LINE",
"579 677 OFFCURVE",
"540 674 OFFCURVE",
"511 661 CURVE",
"645 143 LINE",
"839 619 LINE",
"880 619 LINE",
"1064 152 LINE",
"1188 661 LINE",
"1159 674 OFFCURVE",
"1120 677 OFFCURVE",
"1101 677 CURVE",
"1101 707 LINE",
"1313 707 LINE",
"1313 677 LINE",
"1298 677 OFFCURVE",
"1266 674 OFFCURVE",
"1241 661 CURVE",
"1075 -14 LINE",
"1034 -14 LINE",
"839 484 LINE",
"636 -14 LINE",
"595 -14 LINE"
);
}
);
width = 1657;
}
);
},
{
color = 6;
glyphname = X.ss10;
lastChange = "2022-03-18 09:39:33 +0000";
layers = (
{
layerId = "6D97EE47-94AA-478E-ABFB-936E6C32B491";
paths = (
{
closed = 1;
nodes = (
"1255 -440 LINE",
"1255 1117 LINE",
"100 1117 LINE",
"100 -440 LINE"
);
},
{
closed = 1;
nodes = (
"180 1037 LINE",
"1175 1037 LINE",
"1175 -360 LINE",
"180 -360 LINE"
);
},
{
closed = 1;
nodes = (
"1151 -336 LINE",
"1151 1013 LINE",
"204 1013 LINE",
"204 -336 LINE"
);
},
{
closed = 1;
nodes = (
"344 30 LINE",
"359 30 OFFCURVE",
"391 33 OFFCURVE",
"416 46 CURVE",
"629 352 LINE",
"428 662 LINE",
"402 674 OFFCURVE",
"368 677 OFFCURVE",
"352 677 CURVE",
"352 707 LINE",
"622 707 LINE",
"622 677 LINE",
"603 677 OFFCURVE",
"564 674 OFFCURVE",
"534 661 CURVE",
"688 424 LINE",
"855 661 LINE",
"825 674 OFFCURVE",
"786 677 OFFCURVE",
"767 677 CURVE",
"767 707 LINE",
"989 707 LINE",
"989 677 LINE",
"974 677 OFFCURVE",
"942 674 OFFCURVE",
"918 661 CURVE",
"719 377 LINE",
"934 46 LINE",
"960 33 OFFCURVE",
"994 30 OFFCURVE",
"1011 30 CURVE",
"1011 0 LINE",
"741 0 LINE",
"741 30 LINE",
"760 30 OFFCURVE",
"798 33 OFFCURVE",
"828 46 CURVE",
"660 305 LINE",
"479 46 LINE",
"509 33 OFFCURVE",
"548 30 OFFCURVE",
"567 30 CURVE",
"567 0 LINE",
"344 0 LINE"
);
}
);
width = 1355;
}
);
},
{
color = 6;
glyphname = Y.ss10;
lastChange = "2022-03-18 09:39:33 +0000";
layers = (
{
layerId = "6D97EE47-94AA-478E-ABFB-936E6C32B491";
paths = (
{
closed = 1;
nodes = (
"1232 -440 LINE",
"1232 1117 LINE",
"100 1117 LINE",
"100 -440 LINE"
);
},
{
closed = 1;
nodes = (
"180 1037 LINE",
"1152 1037 LINE",
"1152 -360 LINE",
"180 -360 LINE"
);
},
{
closed = 1;
nodes = (
"1128 -336 LINE",
"1128 1013 LINE",
"204 1013 LINE",
"204 -336 LINE"
);
},
{
closed = 1;
nodes = (
"542 30 LINE",
"561 30 OFFCURVE",
"600 33 OFFCURVE",
"630 46 CURVE",
"630 282 LINE",
"420 661 LINE",
"394 674 OFFCURVE",
"360 677 OFFCURVE",
"344 677 CURVE",
"344 707 LINE",
"608 707 LINE",
"608 677 LINE",
"589 677 OFFCURVE",
"551 674 OFFCURVE",
"521 661 CURVE",
"689 357 LINE",
"859 661 LINE",
"829 674 OFFCURVE",
"790 677 OFFCURVE",
"771 677 CURVE",
"771 707 LINE",
"988 707 LINE",
"988 677 LINE",
"973 677 OFFCURVE",
"942 674 OFFCURVE",
"917 662 CURVE",
"718 303 LINE",
"718 46 LINE",
"748 33 OFFCURVE",
"787 30 OFFCURVE",
"806 30 CURVE",
"806 0 LINE",
"542 0 LINE"
);
}
);
width = 1332;
}
);
},
{
color = 6;
glyphname = Z.ss10;
lastChange = "2022-03-18 09:39:33 +0000";
layers = (
{
layerId = "6D97EE47-94AA-478E-ABFB-936E6C32B491";
paths = (
{
closed = 1;
nodes = (
"1158 -440 LINE",
"1158 1117 LINE",
"100 1117 LINE",
"100 -440 LINE"
);
},
{
closed = 1;
nodes = (
"180 1037 LINE",
"1078 1037 LINE",
"1078 -360 LINE",
"180 -360 LINE"
);
},
{
closed = 1;
nodes = (
"1054 -336 LINE",
"1054 1013 LINE",
"204 1013 LINE",
"204 -336 LINE"
);
},
{
closed = 1;
nodes = (
"344 38 LINE",
"759 656 LINE",
"413 656 LINE",
"401 613 OFFCURVE",
"395 574 OFFCURVE",
"387 534 CURVE",
"355 536 LINE",
"362 707 LINE",
"857 707 LINE",
"874 669 LINE",
"458 51 LINE",
"819 51 LINE",
"850 90 OFFCURVE",
"879 161 OFFCURVE",
"883 175 CURVE",
"914 167 LINE",
"875 0 LINE",
"359 0 LINE"
);
}
);
width = 1258;
}
);
},
{
color = 6;
glyphname = T_T.liga;
lastChange = "2022-03-18 09:39:33 +0000";
layers = (
{
layerId = "6D97EE47-94AA-478E-ABFB-936E6C32B491";
paths = (
{
closed = 1;
nodes = (
"451 0 LINE",
"451 30 LINE",
"432 30 OFFCURVE",
"393 33 OFFCURVE",
"363 46 CURVE",
"363 656 LINE",
"548 656 LINE",
"548 531 LINE",
"580 531 LINE",
"586 571 OFFCURVE",
"592 612 OFFCURVE",
"604 656 CURVE",
"774 656 LINE",
"774 46 LINE",
"744 33 OFFCURVE",
"705 30 OFFCURVE",
"686 30 CURVE",
"686 0 LINE",
"949 0 LINE",
"949 30 LINE",
"930 30 OFFCURVE",
"891 33 OFFCURVE",
"861 46 CURVE",
"861 656 LINE",
"1068 656 LINE",
"1074 610 OFFCURVE",
"1073 570 OFFCURVE",
"1072 531 CURVE",
"1103 528 LINE",
"1129 707 LINE",
"10 707 LINE",
"10 531 LINE",
"42 531 LINE",
"48 571 OFFCURVE",
"54 612 OFFCURVE",
"66 656 CURVE",
"275 656 LINE",
"275 46 LINE",
"245 33 OFFCURVE",
"206 30 OFFCURVE",
"187 30 CURVE",
"187 0 LINE"
);
}
);
width = 1139;
}
);
leftMetricsKey = T;
rightKerningGroup = T;
rightMetricsKey = T;
},
{
color = 6;
glyphname = T_h.liga;
lastChange = "2022-03-18 09:39:33 +0000";
layers = (
{
anchors = (
{
name = BOTTOM;
position = "{319, 0}";
},
{
name = TOP;
position = "{319, 707}";
}
);
layerId = "6D97EE47-94AA-478E-ABFB-936E6C32B491";
paths = (
{
closed = 1;
nodes = (
"451 0 LINE",
"451 30 LINE",
"432 30 OFFCURVE",
"393 33 OFFCURVE",
"363 46 CURVE",
"363 656 LINE",
"653 656 LINE",
"653 707 LINE",
"10 707 LINE",
"10 531 LINE",
"42 531 LINE",
"48 571 OFFCURVE",
"54 612 OFFCURVE",
"66 656 CURVE",
"275 656 LINE",
"275 46 LINE",
"245 33 OFFCURVE",
"206 30 OFFCURVE",
"187 30 CURVE",
"187 0 LINE"
);
},
{
closed = 1;
nodes = (
"760 0 LINE",
"760 30 LINE",
"743 30 OFFCURVE",
"708 33 OFFCURVE",
"681 46 CURVE",
"681 340 LINE",
"712 364 OFFCURVE",
"761 402 OFFCURVE",
"804 402 CURVE SMOOTH",
"826 402 OFFCURVE",
"846 398 OFFCURVE",
"860 387 CURVE SMOOTH",
"898 358 OFFCURVE",
"900 327 OFFCURVE",
"900 276 CURVE SMOOTH",
"900 46 LINE",
"873 33 OFFCURVE",
"838 30 OFFCURVE",
"821 30 CURVE",
"821 0 LINE",
"1060 0 LINE",
"1060 30 LINE",
"1043 30 OFFCURVE",
"1008 33 OFFCURVE",
"981 46 CURVE",
"981 314 LINE SMOOTH",
"981 374 OFFCURVE",
"968 419 OFFCURVE",
"917 447 CURVE SMOOTH",
"898 458 OFFCURVE",
"876 464 OFFCURVE",
"852 464 CURVE SMOOTH",
"794 464 OFFCURVE",
"725 416 OFFCURVE",
"681 384 CURVE",
"681 789 LINE",
"600 765 LINE",
"600 46 LINE",
"573 33 OFFCURVE",
"538 30 OFFCURVE",
"521 30 CURVE",
"521 0 LINE"
);
}
);
width = 1082;
}
);
leftMetricsKey = T;
rightKerningGroup = h;
rightMetricsKey = h;
},
{
color = 6;
glyphname = a;
lastChange = "2022-03-18 09:39:33 +0000";
layers = (
{
anchors = (
{
name = BOTTOM;
position = "{222, 0}";
},
{
name = TOP;
position = "{211, 456}";
}
);
layerId = "6D97EE47-94AA-478E-ABFB-936E6C32B491";
paths = (
{
closed = 1;
nodes = (
"197 -9 OFFCURVE",
"231 19 OFFCURVE",
"274 44 CURVE",
"279 14 OFFCURVE",
"301 -9 OFFCURVE",
"333 -9 CURVE SMOOTH",
"370 -9 OFFCURVE",
"397 4 OFFCURVE",
"421 21 CURVE",
"409 47 LINE",
"400 44 OFFCURVE",
"391 42 OFFCURVE",
"382 42 CURVE SMOOTH",
"375 42 OFFCURVE",
"368 43 OFFCURVE",
"362 47 CURVE SMOOTH",
"348 57 OFFCURVE",
"349 73 OFFCURVE",
"349 106 CURVE SMOOTH",
"349 363 LINE SMOOTH",
"349 432 OFFCURVE",
"302 464 OFFCURVE",
"233 464 CURVE SMOOTH",
"136 464 OFFCURVE",
"52 405 OFFCURVE",
"55 299 CURVE",
"135 331 LINE",
"127 381 OFFCURVE",
"160 420 OFFCURVE",
"208 420 CURVE SMOOTH",
"234 420 OFFCURVE",
"252 407 OFFCURVE",
"260 394 CURVE SMOOTH",
"269 379 OFFCURVE",
"270 365 OFFCURVE",
"270 339 CURVE SMOOTH",
"270 261 LINE",
"215 242 OFFCURVE",
"69 190 OFFCURVE",
"46 178 CURVE",
"37 161 OFFCURVE",
"32 135 OFFCURVE",
"32 110 CURVE SMOOTH",
"32 39 OFFCURVE",
"82 -9 OFFCURVE",
"152 -9 CURVE SMOOTH"
);
},
{
closed = 1;
nodes = (
"130 53 OFFCURVE",
"100 96 OFFCURVE",
"114 155 CURVE",
"130 164 OFFCURVE",
"209 196 OFFCURVE",
"270 217 CURVE",
"270 79 LINE",
"232 60 OFFCURVE",
"203 53 OFFCURVE",
"182 53 CURVE SMOOTH"
);
}
);
width = 443;
}
);
leftKerningGroup = a;
rightKerningGroup = a;
rightMetricsKey = "=n";
unicode = 0061;
},
{
color = 6;
glyphname = ae;
lastChange = "2022-03-18 09:39:33 +0000";
layers = (
{
anchors = (
{
name = TOP;
position = "{484, 456}";
}
);
layerId = "6D97EE47-94AA-478E-ABFB-936E6C32B491";
paths = (
{
closed = 1;
nodes = (
"539 -8 OFFCURVE",
"606 46 OFFCURVE",
"637 91 CURVE",
"616 109 LINE",
"591 86 OFFCURVE",
"552 65 OFFCURVE",
"507 65 CURVE SMOOTH",
"417 65 OFFCURVE",
"351 145 OFFCURVE",
"344 242 CURVE",
"344 261 LINE SMOOTH",
"344 339 OFFCURVE",
"391 414 OFFCURVE",
"459 414 CURVE SMOOTH",
"495 414 OFFCURVE",
"539 394 OFFCURVE",
"551 344 CURVE",
"333 270 LINE",
"335 227 LINE",
"638 320 LINE",
"644 404 OFFCURVE",
"567 464 OFFCURVE",
"485 464 CURVE SMOOTH",
"430 464 OFFCURVE",
"380 442 OFFCURVE",
"342 403 CURVE",
"327 445 OFFCURVE",
"287 464 OFFCURVE",
"233 464 CURVE SMOOTH",
"136 464 OFFCURVE",
"52 405 OFFCURVE",
"55 299 CURVE",
"135 331 LINE",
"127 381 OFFCURVE",
"160 420 OFFCURVE",
"208 420 CURVE SMOOTH",
"234 420 OFFCURVE",
"252 407 OFFCURVE",
"260 394 CURVE SMOOTH",
"269 379 OFFCURVE",
"270 365 OFFCURVE",
"270 339 CURVE SMOOTH",
"271 211 LINE SMOOTH",
"271 167 OFFCURVE",
"284 120 OFFCURVE",
"316 71 CURVE SMOOTH",
"348 22 OFFCURVE",
"401 -8 OFFCURVE",
"462 -8 CURVE SMOOTH"
);
},
{
closed = 1;
nodes = (
"198 -9 OFFCURVE",
"285 43 OFFCURVE",
"327 67 CURVE",
"309 98 LINE",
"270 79 LINE SMOOTH",
"232 60 OFFCURVE",
"203 53 OFFCURVE",
"182 53 CURVE SMOOTH",
"130 53 OFFCURVE",
"100 88 OFFCURVE",
"114 147 CURVE",
"131 157 OFFCURVE",
"220 192 OFFCURVE",
"282 213 CURVE",
"277 255 LINE",
"229 239 OFFCURVE",
"70 183 OFFCURVE",
"46 170 CURVE",
"37 153 OFFCURVE",
"32 135 OFFCURVE",
"32 110 CURVE SMOOTH",
"32 39 OFFCURVE",
"82 -9 OFFCURVE",
"152 -9 CURVE SMOOTH"
);
}
);
width = 660;
}
);
leftKerningGroup = a;
leftMetricsKey = a;
rightKerningGroup = ae;
rightMetricsKey = e;
unicode = 00E6;
},
{
color = 6;
glyphname = b;
lastChange = "2022-03-18 09:39:33 +0000";
layers = (
{
layerId = "6D97EE47-94AA-478E-ABFB-936E6C32B491";
paths = (
{
closed = 1;
nodes = (
"285 -8 OFFCURVE",
"340 8 OFFCURVE",
"384 39 CURVE SMOOTH",
"447 84 OFFCURVE",
"494 171 OFFCURVE",
"494 261 CURVE SMOOTH",
"494 298 OFFCURVE",
"486 335 OFFCURVE",
"468 371 CURVE SMOOTH",
"441 425 OFFCURVE",
"389 464 OFFCURVE",
"331 464 CURVE SMOOTH",
"277 464 OFFCURVE",
"217 429 OFFCURVE",
"168 375 CURVE",
"168 334 LINE",
"202 368 OFFCURVE",
"245 395 OFFCURVE",
"288 395 CURVE SMOOTH",
"330 395 OFFCURVE",
"368 366 OFFCURVE",
"392 325 CURVE SMOOTH",
"409 296 OFFCURVE",
"419 256 OFFCURVE",
"419 215 CURVE SMOOTH",
"419 158 OFFCURVE",
"400 100 OFFCURVE",
"355 69 CURVE SMOOTH",
"328 50 OFFCURVE",
"298 42 OFFCURVE",
"271 42 CURVE SMOOTH",
"233 42 OFFCURVE",
"198 58 OFFCURVE",
"176 83 CURVE",
"176 775 LINE",
"156 789 LINE",
"24 734 LINE",
"33 708 LINE",
"52 711 OFFCURVE",
"77 711 OFFCURVE",
"95 704 CURVE",
"95 23 LINE",
"142 -2 OFFCURVE",
"181 -8 OFFCURVE",
"229 -8 CURVE SMOOTH"
);
}
);
width = 518;
}
);
leftKerningGroup = b;
leftMetricsKey = "=n-2";
rightKerningGroup = o;
rightMetricsKey = o;
unicode = 0062;
},
{
color = 6;
glyphname = c;
lastChange = "2022-03-18 09:39:33 +0000";
layers = (
{
anchors = (
{
name = BOTTOM;
position = "{240, 0}";
},
{
name = TOP;
position = "{240, 456}";
}
);
layerId = "6D97EE47-94AA-478E-ABFB-936E6C32B491";
paths = (
{
closed = 1;
nodes = (
"307 -9 OFFCURVE",
"376 30 OFFCURVE",
"405 73 CURVE",
"384 92 LINE",
"362 72 OFFCURVE",
"330 59 OFFCURVE",
"295 59 CURVE SMOOTH",
"264 59 OFFCURVE",
"230 66 OFFCURVE",
"195 88 CURVE SMOOTH",
"138 124 OFFCURVE",
"110 186 OFFCURVE",
"110 261 CURVE SMOOTH",
"110 318 OFFCURVE",
"132 373 OFFCURVE",
"177 399 CURVE SMOOTH",
"241 433 OFFCURVE",
"310 398 OFFCURVE",
"350 337 CURVE",
"412 396 LINE",
"394 424 OFFCURVE",
"350 464 OFFCURVE",
"257 464 CURVE SMOOTH",
"209 464 OFFCURVE",
"164 447 OFFCURVE",
"129 421 CURVE SMOOTH",
"75 381 OFFCURVE",
"34 311 OFFCURVE",
"34 221 CURVE SMOOTH",
"34 138 OFFCURVE",
"68 53 OFFCURVE",
"151 11 CURVE SMOOTH",
"178 -3 OFFCURVE",
"207 -9 OFFCURVE",
"235 -9 CURVE SMOOTH"
);
}
);
width = 434;
}
);
leftKerningGroup = o;
leftMetricsKey = o;
rightKerningGroup = c;
rightMetricsKey = "=o-2";
unicode = 0063;
},
{
color = 6;
glyphname = d;
lastChange = "2022-03-18 09:39:33 +0000";
layers = (
{
layerId = "6D97EE47-94AA-478E-ABFB-936E6C32B491";
paths = (
{
closed = 1;
nodes = (
"529 52 LINE",
"517 79 LINE",
"497 72 OFFCURVE",
"468 63 OFFCURVE",
"440 66 CURVE",
"440 775 LINE",
"420 789 LINE",
"288 734 LINE",
"297 708 LINE",
"317 711 OFFCURVE",
"341 711 OFFCURVE",
"359 704 CURVE",
"362 67 LINE SMOOTH",
"362 44 OFFCURVE",
"364 7 OFFCURVE",
"408 -8 CURVE"
);
},
{
closed = 1;
nodes = (
"285 -8 OFFCURVE",
"323 27 OFFCURVE",
"370 84 CURVE",
"370 126 LINE",
"339 79 OFFCURVE",
"300 62 OFFCURVE",
"263 62 CURVE SMOOTH",
"171 62 OFFCURVE",
"107 149 OFFCURVE",
"107 249 CURVE SMOOTH",
"107 347 OFFCURVE",
"166 412 OFFCURVE",
"254 412 CURVE SMOOTH",
"302 412 OFFCURVE",
"345 387 OFFCURVE",
"370 342 CURVE",
"376 439 LINE",
"341 456 OFFCURVE",
"308 464 OFFCURVE",
"275 464 CURVE SMOOTH",
"144 464 OFFCURVE",
"34 339 OFFCURVE",
"34 202 CURVE SMOOTH",
"34 82 OFFCURVE",
"109 -8 OFFCURVE",
"217 -8 CURVE SMOOTH"
);
}
);
width = 551;
}
);
leftKerningGroup = o;
leftMetricsKey = o;
rightKerningGroup = d;
rightMetricsKey = n;
unicode = 0064;
},
{
color = 6;
glyphname = eth;
lastChange = "2022-03-18 09:39:33 +0000";
layers = (
{
layerId = "6D97EE47-94AA-478E-ABFB-936E6C32B491";
paths = (
{
closed = 1;
nodes = (
"295 -8 OFFCURVE",
"324 -3 OFFCURVE",
"352 9 CURVE SMOOTH",
"440 46 OFFCURVE",
"491 131 OFFCURVE",
"496 231 CURVE SMOOTH",
"503 369 OFFCURVE",
"453 493 OFFCURVE",
"394 572 CURVE SMOOTH",
"318 673 OFFCURVE",
"190 738 OFFCURVE",
"77 770 CURVE",
"65 737 LINE",
"182 697 OFFCURVE",
"281 629 OFFCURVE",
"329 551 CURVE SMOOTH",
"378 471 OFFCURVE",
"418 357 OFFCURVE",
"407 204 CURVE SMOOTH",
"400 121 OFFCURVE",
"367 52 OFFCURVE",
"304 38 CURVE SMOOTH",
"297 36 OFFCURVE",
"289 36 OFFCURVE",
"282 36 CURVE SMOOTH",
"213 36 OFFCURVE",
"147 103 OFFCURVE",
"128 198 CURVE SMOOTH",
"124 217 OFFCURVE",
"122 236 OFFCURVE",
"122 254 CURVE SMOOTH",
"122 337 OFFCURVE",
"163 404 OFFCURVE",
"225 418 CURVE SMOOTH",
"233 420 OFFCURVE",
"240 421 OFFCURVE",
"248 421 CURVE SMOOTH",
"330 421 OFFCURVE",
"420 322 OFFCURVE",
"429 243 CURVE",
"468 328 LINE",
"427 409 OFFCURVE",
"354 464 OFFCURVE",
"263 464 CURVE SMOOTH",
"235 464 OFFCURVE",
"206 459 OFFCURVE",
"178 447 CURVE SMOOTH",
"90 411 OFFCURVE",
"34 321 OFFCURVE",
"34 226 CURVE SMOOTH",
"34 197 OFFCURVE",
"39 167 OFFCURVE",
"50 139 CURVE SMOOTH",
"87 47 OFFCURVE",
"175 -8 OFFCURVE",
"266 -8 CURVE SMOOTH"
);
},
{
closed = 1;
nodes = (
"442 665 LINE",
"430 714 LINE",
"151 579 LINE",
"163 529 LINE"
);
}
);
width = 521;
}
);
leftKerningGroup = o;
leftMetricsKey = o;
rightKerningGroup = o;
rightMetricsKey = o;
unicode = 00F0;
},
{
color = 3;
glyphname = dcroat;
lastChange = "2022-03-18 09:39:33 +0000";
layers = (
{
components = (
{
name = d;
}
);
layerId = "6D97EE47-94AA-478E-ABFB-936E6C32B491";
paths = (
{
closed = 1;
nodes = (
"529 558 LINE",
"529 596 LINE",
"229 596 LINE",
"229 558 LINE"
);
}
);
width = 541;
}
);
leftKerningGroup = o;
rightKerningGroup = d;
unicode = 0111;
},
{
color = 6;
glyphname = e;
lastChange = "2022-03-18 09:39:33 +0000";
layers = (
{
anchors = (
{
name = BOTTOM;
position = "{230, 0}";
},
{
name = TOP;
position = "{232, 456}";
}
);
layerId = "6D97EE47-94AA-478E-ABFB-936E6C32B491";
paths = (
{
closed = 1;
nodes = (
"302 -8 OFFCURVE",
"369 46 OFFCURVE",
"400 91 CURVE",
"379 109 LINE",
"354 86 OFFCURVE",
"315 65 OFFCURVE",
"270 65 CURVE SMOOTH",
"175 65 OFFCURVE",
"107 154 OFFCURVE",
"107 259 CURVE SMOOTH",
"107 338 OFFCURVE",
"153 412 OFFCURVE",
"224 412 CURVE SMOOTH",
"275 412 OFFCURVE",
"318 368 OFFCURVE",
"318 318 CURVE",
"103 301 LINE",
"103 262 LINE",
"407 278 LINE",
"418 380 OFFCURVE",
"348 464 OFFCURVE",
"248 464 CURVE SMOOTH",
"130 465 OFFCURVE",
"34 361 OFFCURVE",
"34 215 CURVE SMOOTH",
"34 96 OFFCURVE",
"113 -8 OFFCURVE",
"225 -8 CURVE SMOOTH"
);
}
);
width = 430;
}
);
leftKerningGroup = o;
leftMetricsKey = c;
rightKerningGroup = e;
rightMetricsKey = c;
unicode = 0065;
},
{
color = 3;
glyphname = eogonek;
lastChange = "2022-03-18 09:39:33 +0000";
layers = (
{
components = (
{
name = ogonekcomb;
transform = "{1, 0, 0, 1, 137, 0}";
},
{
name = e;
}
);
layerId = "6D97EE47-94AA-478E-ABFB-936E6C32B491";
paths = (
{
closed = 1;
nodes = (
"289 0 LINE",
"308 18 LINE",
"291 30 LINE",
"250 0 LINE"
);
}
);
width = 430;
}
);
leftKerningGroup = o;
leftMetricsKey = e;
rightKerningGroup = e;
rightMetricsKey = e;
unicode = 0119;
},
{
color = 6;
glyphname = schwa;
lastChange = "2022-03-18 09:39:33 +0000";
layers = (
{
anchors = (
{
name = BOTTOM;
position = "{211, 456}";
},
{
name = TOP;
position = "{209, 0}";
}
);
layerId = "6D97EE47-94AA-478E-ABFB-936E6C32B491";
paths = (
{
closed = 1;
nodes = (
"250 -8 OFFCURVE",
"289 12 OFFCURVE",
"329 50 CURVE SMOOTH",
"373 91 OFFCURVE",
"407 160 OFFCURVE",
"407 242 CURVE SMOOTH",
"407 363 OFFCURVE",
"326 465 OFFCURVE",
"216 465 CURVE SMOOTH",
"139 465 OFFCURVE",
"72 411 OFFCURVE",
"41 366 CURVE",
"62 348 LINE",
"87 371 OFFCURVE",
"128 394 OFFCURVE",
"173 394 CURVE SMOOTH",
"272 394 OFFCURVE",
"334 305 OFFCURVE",
"334 198 CURVE SMOOTH",
"334 117 OFFCURVE",
"287 45 OFFCURVE",
"217 45 CURVE SMOOTH",
"164 45 OFFCURVE",
"119 91 OFFCURVE",
"123 149 CURVE",
"338 166 LINE",
"338 205 LINE",
"34 189 LINE",
"33 179 OFFCURVE",
"32 170 OFFCURVE",
"32 161 CURVE SMOOTH",
"32 56 OFFCURVE",
"110 -8 OFFCURVE",
"189 -8 CURVE SMOOTH"
);
}
);
width = 431;
}
);
leftKerningGroup = o;
rightKerningGroup = o;
rightMetricsKey = o;
unicode = 0259;
},
{
color = 6;
glyphname = f;
lastChange = "2022-03-18 09:39:33 +0000";
layers = (
{
layerId = "6D97EE47-94AA-478E-ABFB-936E6C32B491";
paths = (
{
closed = 1;
nodes = (
"283 0 LINE",
"283 30 LINE",
"263 30 OFFCURVE",
"220 33 OFFCURVE",
"188 46 CURVE",
"188 400 LINE",
"334 400 LINE",
"334 456 LINE",
"186 456 LINE",
"187 504 OFFCURVE",
"177 636 OFFCURVE",
"225 689 CURVE SMOOTH",
"274 744 OFFCURVE",
"355 738 OFFCURVE",
"404 684 CURVE",
"474 752 LINE",
"418 807 OFFCURVE",
"286 823 OFFCURVE",
"189 729 CURVE SMOOTH",
"110 653 OFFCURVE",
"107 548 OFFCURVE",
"107 456 CURVE",
"57 456 LINE",
"46 400 LINE",
"107 400 LINE",
"107 46 LINE",
"80 33 OFFCURVE",
"45 30 OFFCURVE",
"28 30 CURVE",
"28 0 LINE"
);
}
);
width = 364;
}
);
leftKerningGroup = f;
rightKerningGroup = f;
unicode = 0066;
},
{
color = 6;
glyphname = g;
lastChange = "2022-03-18 09:39:33 +0000";
layers = (
{
anchors = (
{
name = TOP;
position = "{231, 456}";
}
);
layerId = "6D97EE47-94AA-478E-ABFB-936E6C32B491";
paths = (
{
closed = 1;
nodes = (
"363 -312 OFFCURVE",
"487 -232 OFFCURVE",
"487 -122 CURVE SMOOTH",
"487 -104 OFFCURVE",
"483 -87 OFFCURVE",
"474 -69 CURVE SMOOTH",
"424 31 OFFCURVE",
"290 13 OFFCURVE",
"237 14 CURVE SMOOTH",
"183 15 OFFCURVE",
"153 29 OFFCURVE",
"147 54 CURVE SMOOTH",
"141 79 OFFCURVE",
"191 126 OFFCURVE",
"218 139 CURVE",
"173 152 LINE",
"138 130 OFFCURVE",
"61 75 OFFCURVE",
"61 28 CURVE SMOOTH",
"61 -16 OFFCURVE",
"154 -37 OFFCURVE",
"233 -44 CURVE SMOOTH",
"318 -51 OFFCURVE",
"406 -60 OFFCURVE",
"406 -148 CURVE SMOOTH",
"406 -192 OFFCURVE",
"381 -233 OFFCURVE",
"313 -255 CURVE SMOOTH",
"293 -262 OFFCURVE",
"273 -264 OFFCURVE",
"253 -264 CURVE SMOOTH",
"199 -264 OFFCURVE",
"150 -243 OFFCURVE",
"128 -207 CURVE SMOOTH",
"122 -196 OFFCURVE",
"118 -182 OFFCURVE",
"118 -166 CURVE SMOOTH",
"118 -123 OFFCURVE",
"144 -79 OFFCURVE",
"208 -36 CURVE",
"163 -24 LINE",
"112 -74 OFFCURVE",
"28 -118 OFFCURVE",
"28 -187 CURVE SMOOTH",
"28 -200 OFFCURVE",
"31 -214 OFFCURVE",
"38 -228 CURVE SMOOTH",
"70 -292 OFFCURVE",
"160 -312 OFFCURVE",
"237 -312 CURVE SMOOTH"
);
},
{
closed = 1;
nodes = (
"248 116 OFFCURVE",
"269 120 OFFCURVE",
"289 129 CURVE SMOOTH",
"355 157 OFFCURVE",
"396 222 OFFCURVE",
"396 292 CURVE SMOOTH",
"396 313 OFFCURVE",
"392 336 OFFCURVE",
"383 356 CURVE SMOOTH",
"357 423 OFFCURVE",
"292 464 OFFCURVE",
"224 464 CURVE SMOOTH",
"203 464 OFFCURVE",
"182 461 OFFCURVE",
"162 452 CURVE SMOOTH",
"97 426 OFFCURVE",
"56 358 OFFCURVE",
"56 288 CURVE SMOOTH",
"56 267 OFFCURVE",
"59 246 OFFCURVE",
"68 225 CURVE SMOOTH",
"94 157 OFFCURVE",
"159 116 OFFCURVE",
"226 116 CURVE SMOOTH"
);
},
{
closed = 1;
nodes = (
"194 152 OFFCURVE",
"148 213 OFFCURVE",
"137 268 CURVE SMOOTH",
"127 331 OFFCURVE",
"146 401 OFFCURVE",
"202 414 CURVE SMOOTH",
"258 427 OFFCURVE",
"304 366 OFFCURVE",
"315 309 CURVE SMOOTH",
"327 248 OFFCURVE",
"305 178 OFFCURVE",
"250 164 CURVE SMOOTH"
);
},
{
closed = 1;
nodes = (
"494 415 LINE",
"327 396 LINE",
"349 352 LINE",
"486 351 LINE"
);
}
);
width = 512;
}
);
leftKerningGroup = g;
rightKerningGroup = g;
unicode = 0067;
},
{
color = 6;
glyphname = h;
lastChange = "2022-03-18 09:39:33 +0000";
layers = (
{
anchors = (
{
name = TOP;
position = "{278, 707}";
}
);
layerId = "6D97EE47-94AA-478E-ABFB-936E6C32B491";
paths = (
{
closed = 1;
nodes = (
"267 0 LINE",
"267 30 LINE",
"250 30 OFFCURVE",
"215 33 OFFCURVE",
"188 46 CURVE",
"188 775 LINE",
"168 789 LINE",
"36 734 LINE",
"45 708 LINE",
"64 711 OFFCURVE",
"89 711 OFFCURVE",
"107 704 CURVE",
"107 46 LINE",
"80 33 OFFCURVE",
"45 30 OFFCURVE",
"28 30 CURVE",
"28 0 LINE"
);
},
{
closed = 1;
nodes = (
"567 0 LINE",
"567 30 LINE",
"550 30 OFFCURVE",
"515 33 OFFCURVE",
"488 46 CURVE",
"488 314 LINE SMOOTH",
"488 374 OFFCURVE",
"475 419 OFFCURVE",
"424 447 CURVE SMOOTH",
"405 458 OFFCURVE",
"383 464 OFFCURVE",
"359 464 CURVE SMOOTH",
"298 464 OFFCURVE",
"224 411 OFFCURVE",
"181 378 CURVE",
"181 335 LINE",
"211 358 OFFCURVE",
"265 402 OFFCURVE",
"311 402 CURVE SMOOTH",
"333 402 OFFCURVE",
"353 398 OFFCURVE",
"367 387 CURVE SMOOTH",
"405 358 OFFCURVE",
"407 327 OFFCURVE",
"407 276 CURVE SMOOTH",
"407 46 LINE",
"380 33 OFFCURVE",
"345 30 OFFCURVE",
"328 30 CURVE",
"328 0 LINE"
);
}
);
width = 589;
}
);
leftMetricsKey = "=n+2";
rightKerningGroup = n;
rightMetricsKey = n;
unicode = 0068;
},
{
color = 3;
glyphname = hbar;
lastChange = "2022-03-18 09:39:33 +0000";
layers = (
{
components = (
{
name = h;
}
);
layerId = "6D97EE47-94AA-478E-ABFB-936E6C32B491";
paths = (
{
closed = 1;
nodes = (
"329 557 LINE",
"329 595 LINE",
"29 595 LINE",
"29 557 LINE"
);
}
);
width = 589;
}
);
leftMetricsKey = h;
rightKerningGroup = n;
rightMetricsKey = h;
unicode = 0127;
},
{
color = 3;
glyphname = hcaron;
lastChange = "2022-03-18 09:39:33 +0000";
layers = (
{
components = (
{
name = circumflexcomb.case;
transform = "{-1, 0, 0, -1, 374, 1743}";
}
);
layerId = "6D97EE47-94AA-478E-ABFB-936E6C32B491";
paths = (
{
closed = 1;
nodes = (
"627 0 LINE",
"627 30 LINE",
"610 30 OFFCURVE",
"575 33 OFFCURVE",
"548 46 CURVE",
"548 314 LINE SMOOTH",
"548 374 OFFCURVE",
"535 419 OFFCURVE",
"484 447 CURVE SMOOTH",
"465 458 OFFCURVE",
"443 464 OFFCURVE",
"419 464 CURVE SMOOTH",
"358 464 OFFCURVE",
"284 411 OFFCURVE",
"241 378 CURVE",
"241 335 LINE",
"271 358 OFFCURVE",
"325 402 OFFCURVE",
"371 402 CURVE SMOOTH",
"393 402 OFFCURVE",
"413 398 OFFCURVE",
"427 387 CURVE SMOOTH",
"465 358 OFFCURVE",
"467 327 OFFCURVE",
"467 276 CURVE SMOOTH",
"467 46 LINE",
"440 33 OFFCURVE",
"405 30 OFFCURVE",
"388 30 CURVE",
"388 0 LINE"
);
},
{
closed = 1;
nodes = (
"327 0 LINE",
"327 30 LINE",
"310 30 OFFCURVE",
"275 33 OFFCURVE",
"248 46 CURVE",
"248 735 LINE",
"228 749 LINE",
"96 694 LINE",
"105 668 LINE",
"124 671 OFFCURVE",
"149 671 OFFCURVE",
"167 664 CURVE",
"167 46 LINE",
"140 33 OFFCURVE",
"105 30 OFFCURVE",
"88 30 CURVE",
"88 0 LINE"
);
}
);
width = 649;
}
);
leftMetricsKey = h;
rightKerningGroup = n;
rightMetricsKey = h;
unicode = 021F;
},
{
color = 3;
glyphname = hcircumflex;
lastChange = "2022-03-18 09:39:33 +0000";
layers = (
{
components = (
{
name = circumflexcomb.case;
transform = "{1, 0, 0, 1, 28, 0}";
}
);
layerId = "6D97EE47-94AA-478E-ABFB-936E6C32B491";
paths = (
{
closed = 1;
nodes = (
"328 0 LINE",
"328 30 LINE",
"311 30 OFFCURVE",
"276 33 OFFCURVE",
"249 46 CURVE",
"249 755 LINE",
"229 769 LINE",
"97 714 LINE",
"106 688 LINE",
"125 691 OFFCURVE",
"150 691 OFFCURVE",
"168 684 CURVE",
"168 46 LINE",
"141 33 OFFCURVE",
"106 30 OFFCURVE",
"89 30 CURVE",
"89 0 LINE"
);
},
{
closed = 1;
nodes = (
"628 0 LINE",
"628 30 LINE",
"611 30 OFFCURVE",
"576 33 OFFCURVE",
"549 46 CURVE",
"549 314 LINE SMOOTH",
"549 374 OFFCURVE",
"536 419 OFFCURVE",
"485 447 CURVE SMOOTH",
"466 458 OFFCURVE",
"444 464 OFFCURVE",
"420 464 CURVE SMOOTH",
"359 464 OFFCURVE",
"285 411 OFFCURVE",
"242 378 CURVE",
"242 335 LINE",
"272 358 OFFCURVE",
"326 402 OFFCURVE",
"372 402 CURVE SMOOTH",
"394 402 OFFCURVE",
"414 398 OFFCURVE",
"428 387 CURVE SMOOTH",
"466 358 OFFCURVE",
"468 327 OFFCURVE",
"468 276 CURVE SMOOTH",
"468 46 LINE",
"441 33 OFFCURVE",
"406 30 OFFCURVE",
"389 30 CURVE",
"389 0 LINE"
);
}
);
width = 650;
}
);
leftMetricsKey = h;
rightKerningGroup = n;
rightMetricsKey = h;
unicode = 0125;
},
{
color = 6;
glyphname = idotless;
lastChange = "2022-03-18 09:39:33 +0000";
layers = (
{
anchors = (
{
name = BOTTOM;
position = "{148, 0}";
},
{
name = TOP;
position = "{147, 456}";
}
);
layerId = "6D97EE47-94AA-478E-ABFB-936E6C32B491";
paths = (
{
closed = 1;
nodes = (
"267 0 LINE",
"267 30 LINE",
"250 30 OFFCURVE",
"215 33 OFFCURVE",
"188 46 CURVE",
"188 456 LINE",
"168 470 LINE",
"36 415 LINE",
"45 389 LINE",
"64 392 OFFCURVE",
"89 392 OFFCURVE",
"107 385 CURVE",
"107 46 LINE",
"80 33 OFFCURVE",
"45 30 OFFCURVE",
"28 30 CURVE",
"28 0 LINE"
);
}
);
width = 289;
}
);
leftKerningGroup = i;
leftMetricsKey = "=n+2";
rightKerningGroup = i;
rightMetricsKey = n;
unicode = 0131;
},
{
color = 6;
glyphname = jdotless;
lastChange = "2022-03-18 09:39:33 +0000";
layers = (
{
anchors = (
{
name = TOP;
position = "{137, 456}";
}
);
layerId = "6D97EE47-94AA-478E-ABFB-936E6C32B491";
paths = (
{
closed = 1;
nodes = (
"17 -270 OFFCURVE",
"140 -182 OFFCURVE",
"178 -20 CURVE",
"178 456 LINE",
"158 470 LINE",
"26 415 LINE",
"35 389 LINE",
"54 392 OFFCURVE",
"79 392 OFFCURVE",
"97 385 CURVE",
"97 13 LINE SMOOTH",
"96 -16 OFFCURVE",
"94 -46 OFFCURVE",
"89 -69 CURVE SMOOTH",
"67 -159 OFFCURVE",
"12 -231 OFFCURVE",
"-22 -262 CURVE",
"-5 -284 LINE"
);
}
);
width = 238;
}
);
leftKerningGroup = j;
rightKerningGroup = j;
unicode = 0237;
},
{
color = 6;
glyphname = k;
lastChange = "2022-03-18 09:39:33 +0000";
layers = (
{
anchors = (
{
name = BOTTOM;
position = "{283, 0}";
}
);
layerId = "6D97EE47-94AA-478E-ABFB-936E6C32B491";
paths = (
{
closed = 1;
nodes = (
"270 0 LINE",
"270 30 LINE",
"253 30 OFFCURVE",
"216 33 OFFCURVE",
"188 46 CURVE",
"188 775 LINE",
"168 789 LINE",
"36 734 LINE",
"45 708 LINE",
"64 711 OFFCURVE",
"89 711 OFFCURVE",
"107 704 CURVE",
"107 46 LINE",
"80 33 OFFCURVE",
"45 30 OFFCURVE",
"28 30 CURVE",
"28 0 LINE"
);
},
{
closed = 1;
nodes = (
"534 -2 LINE",
"481 17 OFFCURVE",
"459 42 OFFCURVE",
"424 81 CURVE SMOOTH",
"383 127 OFFCURVE",
"317 214 OFFCURVE",
"285 258 CURVE",
"441 413 LINE",
"465 423 OFFCURVE",
"493 426 OFFCURVE",
"507 426 CURVE",
"507 456 LINE",
"286 456 LINE",
"286 426 LINE",
"303 426 OFFCURVE",
"338 423 OFFCURVE",
"365 410 CURVE",
"365 408 LINE",
"366 408 LINE",
"202 246 LINE",
"224 216 OFFCURVE",
"323 68 OFFCURVE",
"358 31 CURVE SMOOTH",
"396 -6 OFFCURVE",
"429 -28 OFFCURVE",
"529 -31 CURVE"
);
}
);
width = 544;
}
);
leftKerningGroup = h;
leftMetricsKey = "=n+2";
rightKerningGroup = k;
unicode = 006B;
},
{
color = 6;
glyphname = kgreenlandic;
lastChange = "2022-03-18 09:39:33 +0000";
layers = (
{
layerId = "6D97EE47-94AA-478E-ABFB-936E6C32B491";
paths = (
{
closed = 1;
nodes = (
"534 -2 LINE",
"481 17 OFFCURVE",
"459 42 OFFCURVE",
"424 81 CURVE SMOOTH",
"383 127 OFFCURVE",
"317 214 OFFCURVE",
"285 258 CURVE",
"441 413 LINE",
"465 423 OFFCURVE",
"493 426 OFFCURVE",
"507 426 CURVE",
"507 456 LINE",
"286 456 LINE",
"286 426 LINE",
"303 426 OFFCURVE",
"338 423 OFFCURVE",
"365 410 CURVE",
"365 408 LINE",
"202 246 LINE",
"224 216 OFFCURVE",
"323 68 OFFCURVE",
"358 31 CURVE SMOOTH",
"396 -6 OFFCURVE",
"429 -28 OFFCURVE",
"529 -31 CURVE"
);
},
{
closed = 1;
nodes = (
"267 0 LINE",
"267 30 LINE",
"250 30 OFFCURVE",
"215 33 OFFCURVE",
"188 46 CURVE",
"188 456 LINE",
"168 470 LINE",
"36 415 LINE",
"45 389 LINE",
"64 392 OFFCURVE",
"89 392 OFFCURVE",
"107 385 CURVE",
"107 46 LINE",
"80 33 OFFCURVE",
"45 30 OFFCURVE",
"28 30 CURVE",
"28 0 LINE"
);
}
);
width = 544;
}
);
leftKerningGroup = n;
leftMetricsKey = k;
rightKerningGroup = k;
rightMetricsKey = k;
unicode = 0138;
},
{
color = 6;
glyphname = l;
lastChange = "2022-03-18 09:39:33 +0000";
layers = (
{
anchors = (
{
name = BOTTOM;
position = "{147, 0}";
},
{
name = TOP;
position = "{118, 739}";
}
);
layerId = "6D97EE47-94AA-478E-ABFB-936E6C32B491";
paths = (
{
closed = 1;
nodes = (
"267 0 LINE",
"267 30 LINE",
"250 30 OFFCURVE",
"215 33 OFFCURVE",
"188 46 CURVE",
"188 775 LINE",
"168 789 LINE",
"36 734 LINE",
"45 708 LINE",
"64 711 OFFCURVE",
"89 711 OFFCURVE",
"107 704 CURVE",
"107 46 LINE",
"80 33 OFFCURVE",
"45 30 OFFCURVE",
"28 30 CURVE",
"28 0 LINE"
);
}
);
width = 289;
}
);
leftKerningGroup = h;
leftMetricsKey = "=n+2";
rightKerningGroup = n;
rightMetricsKey = n;
unicode = 006C;
},
{
color = 3;
glyphname = lslash;
lastChange = "2022-03-18 09:39:33 +0000";
layers = (
{
components = (
{
name = l;
transform = "{1, 0, 0, 1, 3, 0}";
}
);
layerId = "6D97EE47-94AA-478E-ABFB-936E6C32B491";
paths = (
{
closed = 1;
nodes = (
"282 471 LINE",
"264 504 LINE",
"22 386 LINE",
"40 353 LINE"
);
}
);
width = 298;
}
);
leftKerningGroup = h;
leftMetricsKey = "=l-6";
rightKerningGroup = n;
rightMetricsKey = "=l-6";
unicode = 0142;
},
{
color = 6;
glyphname = m;
lastChange = "2022-03-18 09:39:33 +0000";
layers = (
{
layerId = "6D97EE47-94AA-478E-ABFB-936E6C32B491";
paths = (
{
closed = 1;
nodes = (
"840 0 LINE",
"840 30 LINE",
"823 30 OFFCURVE",
"788 33 OFFCURVE",
"761 46 CURVE",
"761 314 LINE SMOOTH",
"761 374 OFFCURVE",
"748 419 OFFCURVE",
"697 447 CURVE SMOOTH",
"678 458 OFFCURVE",
"656 464 OFFCURVE",
"632 464 CURVE SMOOTH",
"567 464 OFFCURVE",
"498 413 OFFCURVE",
"457 383 CURVE",
"466 346 LINE",
"495 369 OFFCURVE",
"538 402 OFFCURVE",
"584 402 CURVE SMOOTH",
"606 402 OFFCURVE",
"626 398 OFFCURVE",
"640 387 CURVE SMOOTH",
"678 358 OFFCURVE",
"680 327 OFFCURVE",
"680 276 CURVE SMOOTH",
"680 46 LINE",
"656 33 OFFCURVE",
"624 30 OFFCURVE",
"609 30 CURVE",
"609 0 LINE"
);
},
{
closed = 1;
nodes = (
"257 0 LINE",
"257 30 LINE",
"242 30 OFFCURVE",
"210 33 OFFCURVE",
"186 46 CURVE",
"186 456 LINE",
"166 470 LINE",
"34 415 LINE",
"43 389 LINE",
"62 392 OFFCURVE",
"87 392 OFFCURVE",
"105 385 CURVE",
"105 46 LINE",
"78 33 OFFCURVE",
"43 30 OFFCURVE",
"26 30 CURVE",
"26 0 LINE"
);
},
{
closed = 1;
nodes = (
"545 0 LINE",
"545 30 LINE",
"530 30 OFFCURVE",
"498 33 OFFCURVE",
"474 46 CURVE",
"474 314 LINE SMOOTH",
"474 370 OFFCURVE",
"461 418 OFFCURVE",
"410 447 CURVE SMOOTH",
"390 458 OFFCURVE",
"369 464 OFFCURVE",
"345 464 CURVE SMOOTH",
"288 464 OFFCURVE",
"223 420 OFFCURVE",
"178 387 CURVE",
"178 344 LINE",
"209 368 OFFCURVE",
"256 402 OFFCURVE",
"296 402 CURVE SMOOTH",
"318 402 OFFCURVE",
"338 398 OFFCURVE",
"352 387 CURVE SMOOTH",
"390 358 OFFCURVE",
"392 327 OFFCURVE",
"392 276 CURVE SMOOTH",
"392 46 LINE",
"368 33 OFFCURVE",
"336 30 OFFCURVE",
"321 30 CURVE",
"321 0 LINE"
);
}
);
width = 862;
}
);
leftKerningGroup = n;
leftMetricsKey = n;
rightKerningGroup = n;
rightMetricsKey = n;
unicode = 006D;
},
{
color = 6;
glyphname = n;
lastChange = "2022-03-18 09:39:33 +0000";
layers = (
{
anchors = (
{
name = BOTTOM;
position = "{292, 0}";
},
{
name = TOP;
position = "{282, 456}";
}
);
layerId = "6D97EE47-94AA-478E-ABFB-936E6C32B491";
paths = (
{
closed = 1;
nodes = (
"558 0 LINE",
"558 30 LINE",
"541 30 OFFCURVE",
"506 33 OFFCURVE",
"479 46 CURVE",
"479 314 LINE SMOOTH",
"479 374 OFFCURVE",
"466 419 OFFCURVE",
"415 447 CURVE SMOOTH",
"396 458 OFFCURVE",
"374 464 OFFCURVE",
"350 464 CURVE SMOOTH",
"291 464 OFFCURVE",
"223 416 OFFCURVE",
"178 384 CURVE",
"179 340 LINE",
"209 364 OFFCURVE",
"259 402 OFFCURVE",
"301 402 CURVE SMOOTH",
"324 402 OFFCURVE",
"344 398 OFFCURVE",
"358 387 CURVE SMOOTH",
"396 358 OFFCURVE",
"398 327 OFFCURVE",
"398 276 CURVE SMOOTH",
"398 46 LINE",
"374 33 OFFCURVE",
"342 30 OFFCURVE",
"327 30 CURVE",
"327 0 LINE"
);
},
{
closed = 1;
nodes = (
"265 0 LINE",
"265 30 LINE",
"248 30 OFFCURVE",
"213 33 OFFCURVE",
"186 46 CURVE",
"186 456 LINE",
"166 470 LINE",
"34 415 LINE",
"43 389 LINE",
"62 392 OFFCURVE",
"87 392 OFFCURVE",
"105 385 CURVE",
"105 46 LINE",
"78 33 OFFCURVE",
"43 30 OFFCURVE",
"26 30 CURVE",
"26 0 LINE"
);
}
);
width = 580;
}
);
leftKerningGroup = n;
rightKerningGroup = n;
unicode = 006E;
},
{
color = 6;
glyphname = nhookleft;
lastChange = "2022-03-18 09:39:33 +0000";
layers = (
{
layerId = "6D97EE47-94AA-478E-ABFB-936E6C32B491";
paths = (
{
closed = 1;
nodes = (
"-11 -247 OFFCURVE",
"49 -235 OFFCURVE",
"91 -210 CURVE SMOOTH",
"133 -185 OFFCURVE",
"162 -147 OFFCURVE",
"174 -110 CURVE SMOOTH",
"179 -94 OFFCURVE",
"183 -70 OFFCURVE",
"184 -52 CURVE SMOOTH",
"185 -35 OFFCURVE",
"186 -4 OFFCURVE",
"186 10 CURVE SMOOTH",
"186 456 LINE",
"166 470 LINE",
"34 415 LINE",
"43 389 LINE",
"62 392 OFFCURVE",
"87 392 OFFCURVE",
"105 385 CURVE",
"105 0 LINE SMOOTH",
"105 -75 OFFCURVE",
"107 -155 OFFCURVE",
"65 -175 CURVE SMOOTH",
"28 -193 OFFCURVE",
"-19 -168 OFFCURVE",
"-47 -143 CURVE",
"-68 -235 LINE"
);
},
{
closed = 1;
nodes = (
"558 0 LINE",
"558 30 LINE",
"541 30 OFFCURVE",
"506 33 OFFCURVE",
"479 46 CURVE",
"479 314 LINE SMOOTH",
"479 374 OFFCURVE",
"466 419 OFFCURVE",
"415 447 CURVE SMOOTH",
"396 458 OFFCURVE",
"374 464 OFFCURVE",
"350 464 CURVE SMOOTH",
"291 464 OFFCURVE",
"223 416 OFFCURVE",
"178 384 CURVE",
"179 340 LINE",
"209 364 OFFCURVE",
"259 402 OFFCURVE",
"301 402 CURVE SMOOTH",
"324 402 OFFCURVE",
"344 398 OFFCURVE",
"358 387 CURVE SMOOTH",
"396 358 OFFCURVE",
"398 327 OFFCURVE",
"398 276 CURVE SMOOTH",
"398 46 LINE",
"374 33 OFFCURVE",
"342 30 OFFCURVE",
"327 30 CURVE",
"327 0 LINE"
);
}
);
width = 580;
}
);
leftKerningGroup = nhookleft;
rightKerningGroup = n;
rightMetricsKey = n;
unicode = 0272;
},
{
color = 6;
glyphname = eng;
lastChange = "2022-03-18 09:39:33 +0000";
layers = (
{
layerId = "6D97EE47-94AA-478E-ABFB-936E6C32B491";
paths = (
{
closed = 1;
nodes = (
"282 -247 OFFCURVE",
"342 -235 OFFCURVE",
"384 -210 CURVE SMOOTH",
"426 -185 OFFCURVE",
"455 -147 OFFCURVE",
"467 -110 CURVE SMOOTH",
"472 -94 OFFCURVE",
"476 -64 OFFCURVE",
"477 -46 CURVE SMOOTH",
"478 -29 OFFCURVE",
"479 6 OFFCURVE",
"479 10 CURVE SMOOTH",
"479 314 LINE SMOOTH",
"479 374 OFFCURVE",
"466 419 OFFCURVE",
"415 447 CURVE SMOOTH",
"396 458 OFFCURVE",
"374 464 OFFCURVE",
"350 464 CURVE SMOOTH",
"277 464 OFFCURVE",
"190 391 OFFCURVE",
"151 364 CURVE",
"168 332 LINE",
"196 354 OFFCURVE",
"253 402 OFFCURVE",
"301 402 CURVE SMOOTH",
"324 402 OFFCURVE",
"344 398 OFFCURVE",
"358 387 CURVE SMOOTH",
"396 358 OFFCURVE",
"398 327 OFFCURVE",
"398 276 CURVE SMOOTH",
"398 0 LINE SMOOTH",
"398 -75 OFFCURVE",
"400 -155 OFFCURVE",
"358 -175 CURVE SMOOTH",
"321 -193 OFFCURVE",
"274 -168 OFFCURVE",
"246 -143 CURVE",
"225 -235 LINE"
);
},
{
closed = 1;
nodes = (
"265 0 LINE",
"265 30 LINE",
"248 30 OFFCURVE",
"213 33 OFFCURVE",
"186 46 CURVE",
"186 456 LINE",
"166 470 LINE",
"34 415 LINE",
"43 389 LINE",
"62 392 OFFCURVE",
"87 392 OFFCURVE",
"105 385 CURVE",
"105 46 LINE",
"78 33 OFFCURVE",
"43 30 OFFCURVE",
"26 30 CURVE",
"26 0 LINE"
);
}
);
width = 529;
}
);
leftKerningGroup = n;
leftMetricsKey = n;
rightKerningGroup = n;
rightMetricsKey = "=n+28";
unicode = 014B;
},
{
color = 6;
glyphname = o;
lastChange = "2022-03-18 09:39:33 +0000";
layers = (
{
anchors = (
{
name = BOTTOM;
position = "{270, 0}";
},
{
name = CENTER;
position = "{264, 222}";
},
{
name = TOP;
position = "{265, 456}";
}
);
layerId = "6D97EE47-94AA-478E-ABFB-936E6C32B491";
paths = (
{
closed = 1;
nodes = (
"295 -8 OFFCURVE",
"324 -3 OFFCURVE",
"352 9 CURVE SMOOTH",
"440 46 OFFCURVE",
"496 136 OFFCURVE",
"496 231 CURVE SMOOTH",
"496 259 OFFCURVE",
"490 289 OFFCURVE",
"479 317 CURVE SMOOTH",
"443 409 OFFCURVE",
"354 464 OFFCURVE",
"263 464 CURVE SMOOTH",
"235 464 OFFCURVE",
"206 459 OFFCURVE",
"178 447 CURVE SMOOTH",
"90 411 OFFCURVE",
"34 321 OFFCURVE",
"34 226 CURVE SMOOTH",
"34 197 OFFCURVE",
"39 167 OFFCURVE",
"50 139 CURVE SMOOTH",
"87 47 OFFCURVE",
"175 -8 OFFCURVE",
"266 -8 CURVE SMOOTH"
);
},
{
closed = 1;
nodes = (
"213 36 OFFCURVE",
"147 103 OFFCURVE",
"128 198 CURVE SMOOTH",
"124 217 OFFCURVE",
"122 236 OFFCURVE",
"122 254 CURVE SMOOTH",
"122 337 OFFCURVE",
"163 404 OFFCURVE",
"225 418 CURVE SMOOTH",
"233 420 OFFCURVE",
"240 421 OFFCURVE",
"248 421 CURVE SMOOTH",
"316 421 OFFCURVE",
"382 353 OFFCURVE",
"402 258 CURVE SMOOTH",
"405 240 OFFCURVE",
"407 222 OFFCURVE",
"407 204 CURVE SMOOTH",
"407 121 OFFCURVE",
"367 52 OFFCURVE",
"304 38 CURVE SMOOTH",
"297 36 OFFCURVE",
"289 36 OFFCURVE",
"282 36 CURVE SMOOTH"
);
}
);
width = 520;
}
);
leftKerningGroup = o;
rightKerningGroup = o;
unicode = 006F;
},
{
color = 3;
glyphname = oogonek;
lastChange = "2022-03-18 09:39:33 +0000";
layers = (
{
components = (
{
alignment = -1;
name = ogonekcomb;
transform = "{1, 0, 0, 1, 188, 0}";
},
{
name = o;
}
);
layerId = "6D97EE47-94AA-478E-ABFB-936E6C32B491";
paths = (
{
closed = 1;
nodes = (
"340 0 LINE",
"359 18 LINE",
"342 30 LINE",
"301 0 LINE"
);
}
);
width = 520;
}
);
leftKerningGroup = o;
leftMetricsKey = o;
rightKerningGroup = o;
rightMetricsKey = o;
unicode = 01EB;
},
{
color = 3;
glyphname = oslash;
lastChange = "2022-03-18 09:39:33 +0000";
layers = (
{
components = (
{
name = o;
}
);
layerId = "6D97EE47-94AA-478E-ABFB-936E6C32B491";
paths = (
{
closed = 1;
nodes = (
"448 503 LINE",
"413 522 LINE",
"84 -50 LINE",
"119 -69 LINE"
);
}
);
width = 520;
}
);
leftKerningGroup = o;
leftMetricsKey = o;
rightKerningGroup = o;
rightMetricsKey = o;
unicode = 00F8;
},
{
color = 3;
glyphname = oslashacute;
lastChange = "2022-03-18 09:39:33 +0000";
layers = (
{
components = (
{
name = o;
},
{
name = acutecomb;
transform = "{1, 0, 0, 1, 215, 0}";
}
);
layerId = "6D97EE47-94AA-478E-ABFB-936E6C32B491";
paths = (
{
closed = 1;
nodes = (
"448 503 LINE",
"413 522 LINE",
"84 -50 LINE",
"119 -69 LINE"
);
}
);
width = 520;
}
);
leftKerningGroup = o;
rightKerningGroup = o;
unicode = 01FF;
},
{
color = 6;
glyphname = oe;
lastChange = "2022-03-18 09:39:33 +0000";
layers = (
{
anchors = (
{
name = TOP;
position = "{265, 456}";
}
);
layerId = "6D97EE47-94AA-478E-ABFB-936E6C32B491";
paths = (
{
closed = 1;
nodes = (
"295 -8 OFFCURVE",
"324 -3 OFFCURVE",
"352 9 CURVE SMOOTH",
"400 29 OFFCURVE",
"439 66 OFFCURVE",
"464 110 CURVE",
"446 178 OFFCURVE",
"465 281 OFFCURVE",
"479 317 CURVE",
"443 409 OFFCURVE",
"354 464 OFFCURVE",
"263 464 CURVE SMOOTH",
"235 464 OFFCURVE",
"206 459 OFFCURVE",
"178 447 CURVE SMOOTH",
"90 411 OFFCURVE",
"34 321 OFFCURVE",
"34 226 CURVE SMOOTH",
"34 197 OFFCURVE",
"39 167 OFFCURVE",
"50 139 CURVE SMOOTH",
"87 47 OFFCURVE",
"175 -8 OFFCURVE",
"266 -8 CURVE SMOOTH"
);
},
{
closed = 1;
nodes = (
"213 36 OFFCURVE",
"147 103 OFFCURVE",
"128 198 CURVE SMOOTH",
"124 217 OFFCURVE",
"122 236 OFFCURVE",
"122 254 CURVE SMOOTH",
"122 337 OFFCURVE",
"163 404 OFFCURVE",
"225 418 CURVE SMOOTH",
"233 420 OFFCURVE",
"240 421 OFFCURVE",
"248 421 CURVE SMOOTH",
"316 421 OFFCURVE",
"382 353 OFFCURVE",
"402 258 CURVE SMOOTH",
"405 240 OFFCURVE",
"407 222 OFFCURVE",
"407 204 CURVE SMOOTH",
"407 121 OFFCURVE",
"367 52 OFFCURVE",
"304 38 CURVE SMOOTH",
"297 36 OFFCURVE",
"289 36 OFFCURVE",
"282 36 CURVE SMOOTH"
);
},
{
closed = 1;
nodes = (
"627 -45 OFFCURVE",
"733 30 OFFCURVE",
"774 90 CURVE",
"753 108 LINE",
"713 72 OFFCURVE",
"641 42 OFFCURVE",
"565 89 CURVE SMOOTH",
"463 153 OFFCURVE",
"448 344 OFFCURVE",
"553 400 CURVE SMOOTH",
"622 436 OFFCURVE",
"686 387 OFFCURVE",
"686 322 CURVE",
"471 300 LINE",
"471 261 LINE",
"775 282 LINE",
"787 394 OFFCURVE",
"711 463 OFFCURVE",
"626 464 CURVE SMOOTH",
"578 464 OFFCURVE",
"526 444 OFFCURVE",
"485 406 CURVE SMOOTH",
"443 366 OFFCURVE",
"409 300 OFFCURVE",
"407 221 CURVE SMOOTH",
"406 144 OFFCURVE",
"435 54 OFFCURVE",
"519 11 CURVE SMOOTH"
);
}
);
width = 798;
}
);
leftKerningGroup = o;
leftMetricsKey = o;
rightKerningGroup = e;
rightMetricsKey = e;
unicode = 0153;
},
{
color = 6;
glyphname = p;
lastChange = "2022-03-18 09:39:33 +0000";
layers = (
{
layerId = "6D97EE47-94AA-478E-ABFB-936E6C32B491";
paths = (
{
closed = 1;
nodes = (
"275 -276 LINE",
"275 -246 LINE",
"256 -246 OFFCURVE",
"218 -243 OFFCURVE",
"188 -230 CURVE",
"188 456 LINE",
"168 470 LINE",
"36 415 LINE",
"45 389 LINE",
"64 392 OFFCURVE",
"89 392 OFFCURVE",
"107 385 CURVE",
"107 -230 LINE",
"80 -243 OFFCURVE",
"45 -246 OFFCURVE",
"28 -246 CURVE",
"28 -276 LINE"
);
},
{
closed = 1;
nodes = (
"296 -8 OFFCURVE",
"351 8 OFFCURVE",
"395 39 CURVE SMOOTH",
"458 84 OFFCURVE",
"505 171 OFFCURVE",
"505 261 CURVE SMOOTH",
"505 298 OFFCURVE",
"497 335 OFFCURVE",
"479 371 CURVE SMOOTH",
"452 425 OFFCURVE",
"400 464 OFFCURVE",
"342 464 CURVE SMOOTH",
"287 464 OFFCURVE",
"226 428 OFFCURVE",
"176 372 CURVE",
"176 331 LINE",
"210 366 OFFCURVE",
"255 395 OFFCURVE",
"299 395 CURVE SMOOTH",
"341 395 OFFCURVE",
"380 366 OFFCURVE",
"403 325 CURVE SMOOTH",
"420 296 OFFCURVE",
"430 256 OFFCURVE",
"430 215 CURVE SMOOTH",
"430 158 OFFCURVE",
"411 100 OFFCURVE",
"366 69 CURVE SMOOTH",
"339 50 OFFCURVE",
"309 42 OFFCURVE",
"282 42 CURVE SMOOTH",
"237 42 OFFCURVE",
"196 64 OFFCURVE",
"176 99 CURVE",
"176 -1 LINE",
"197 -6 OFFCURVE",
"218 -8 OFFCURVE",
"240 -8 CURVE SMOOTH"
);
}
);
width = 529;
}
);
leftKerningGroup = p;
leftMetricsKey = "=n+2";
rightKerningGroup = o;
rightMetricsKey = o;
unicode = 0070;
},
{
color = 6;
glyphname = thorn;
lastChange = "2022-03-18 09:39:33 +0000";
layers = (
{
layerId = "6D97EE47-94AA-478E-ABFB-936E6C32B491";
paths = (
{
closed = 1;
nodes = (
"265 -281 LINE",
"265 -251 LINE",
"248 -251 OFFCURVE",
"213 -248 OFFCURVE",
"186 -235 CURVE",
"186 775 LINE",
"166 789 LINE",
"34 734 LINE",
"43 708 LINE",
"62 711 OFFCURVE",
"87 711 OFFCURVE",
"105 704 CURVE",
"105 -235 LINE",
"78 -248 OFFCURVE",
"43 -251 OFFCURVE",
"26 -251 CURVE",
"26 -281 LINE"
);
},
{
closed = 1;
nodes = (
"231 4 OFFCURVE",
"307 20 OFFCURVE",
"370 61 CURVE SMOOTH",
"460 118 OFFCURVE",
"514 264 OFFCURVE",
"454 383 CURVE SMOOTH",
"401 487 OFFCURVE",
"257 508 OFFCURVE",
"157 411 CURVE",
"157 374 LINE",
"222 426 OFFCURVE",
"332 414 OFFCURVE",
"380 333 CURVE SMOOTH",
"419 266 OFFCURVE",
"421 135 OFFCURVE",
"345 86 CURVE SMOOTH",
"273 40 OFFCURVE",
"189 67 OFFCURVE",
"157 123 CURVE",
"158 21 LINE"
);
}
);
width = 503;
}
);
leftKerningGroup = thorn;
leftMetricsKey = n;
rightKerningGroup = o;
rightMetricsKey = o;
unicode = 00FE;
},
{
color = 6;
glyphname = q;
lastChange = "2022-03-18 09:39:33 +0000";
layers = (
{
layerId = "6D97EE47-94AA-478E-ABFB-936E6C32B491";
paths = (
{
closed = 1;
nodes = (
"508 -276 LINE",
"508 -246 LINE",
"491 -246 OFFCURVE",
"456 -243 OFFCURVE",
"429 -230 CURVE",
"429 473 LINE",
"404 480 LINE",
"370 434 LINE",
"348 434 LINE",
"348 -230 LINE",
"318 -243 OFFCURVE",
"280 -246 OFFCURVE",
"261 -246 CURVE",
"261 -276 LINE"
);
},
{
closed = 1;
nodes = (
"285 -8 OFFCURVE",
"323 27 OFFCURVE",
"370 84 CURVE",
"370 127 LINE",
"302 23 OFFCURVE",
"198 62 OFFCURVE",
"153 114 CURVE SMOOTH",
"83 197 OFFCURVE",
"95 346 OFFCURVE",
"175 390 CURVE SMOOTH",
"252 433 OFFCURVE",
"340 406 OFFCURVE",
"370 325 CURVE",
"370 434 LINE",
"292 480 OFFCURVE",
"224 470 OFFCURVE",
"152 424 CURVE SMOOTH",
"12 334 OFFCURVE",
"4 140 OFFCURVE",
"87 49 CURVE SMOOTH",
"123 11 OFFCURVE",
"171 -8 OFFCURVE",
"217 -8 CURVE SMOOTH"
);
}
);
width = 520;
}
);
leftKerningGroup = o;
leftMetricsKey = o;
rightKerningGroup = n;
rightMetricsKey = "=n-10";
unicode = 0071;
},
{
color = 6;
glyphname = r;
lastChange = "2022-03-18 09:39:33 +0000";
layers = (
{
anchors = (
{
name = BOTTOM;
position = "{137, 0}";
},
{
name = TOP;
position = "{189, 456}";
}
);
layerId = "6D97EE47-94AA-478E-ABFB-936E6C32B491";
paths = (
{
closed = 1;
nodes = (
"265 0 LINE",
"265 30 LINE",
"246 30 OFFCURVE",
"208 33 OFFCURVE",
"178 46 CURVE",
"178 456 LINE",
"158 470 LINE",
"26 415 LINE",
"35 389 LINE",
"54 392 OFFCURVE",
"79 392 OFFCURVE",
"97 385 CURVE",
"97 46 LINE",
"73 33 OFFCURVE",
"41 30 OFFCURVE",
"26 30 CURVE",
"26 0 LINE"
);
},
{
closed = 1;
nodes = (
"176 294 OFFCURVE",
"201 363 OFFCURVE",
"249 377 CURVE SMOOTH",
"284 388 OFFCURVE",
"311 372 OFFCURVE",
"326 359 CURVE",
"370 450 LINE",
"350 462 OFFCURVE",
"325 466 OFFCURVE",
"296 463 CURVE SMOOTH",
"221 454 OFFCURVE",
"172 343 OFFCURVE",
"130 288 CURVE",
"156 264 LINE"
);
}
);
width = 376;
}
);
leftKerningGroup = n;
leftMetricsKey = n;
rightKerningGroup = r;
unicode = 0072;
},
{
color = 6;
glyphname = s;
lastChange = "2022-03-18 09:39:33 +0000";
layers = (
{
anchors = (
{
name = BOTTOM;
position = "{179, 0}";
},
{
name = TOP;
position = "{203, 456}";
}
);
layerId = "6D97EE47-94AA-478E-ABFB-936E6C32B491";
paths = (
{
closed = 1;
nodes = (
"279 -8 OFFCURVE",
"344 43 OFFCURVE",
"336 141 CURVE SMOOTH",
"331 199 OFFCURVE",
"279 234 OFFCURVE",
"240 258 CURVE SMOOTH",
"207 279 OFFCURVE",
"163 298 OFFCURVE",
"148 327 CURVE SMOOTH",
"129 366 OFFCURVE",
"145 404 OFFCURVE",
"186 416 CURVE SMOOTH",
"195 418 OFFCURVE",
"204 419 OFFCURVE",
"213 419 CURVE SMOOTH",
"229 419 OFFCURVE",
"244 414 OFFCURVE",
"257 406 CURVE SMOOTH",
"275 394 OFFCURVE",
"292 371 OFFCURVE",
"297 332 CURVE",
"327 337 LINE",
"312 451 LINE",
"300 453 OFFCURVE",
"262 464 OFFCURVE",
"218 464 CURVE SMOOTH",
"205 464 OFFCURVE",
"192 463 OFFCURVE",
"178 461 CURVE SMOOTH",
"108 448 OFFCURVE",
"63 400 OFFCURVE",
"63 335 CURVE SMOOTH",
"63 258 OFFCURVE",
"146 210 OFFCURVE",
"186 184 CURVE SMOOTH",
"223 161 OFFCURVE",
"260 142 OFFCURVE",
"260 103 CURVE SMOOTH",
"260 68 OFFCURVE",
"235 42 OFFCURVE",
"197 38 CURVE SMOOTH",
"160 32 OFFCURVE",
"128 42 OFFCURVE",
"103 71 CURVE SMOOTH",
"87 88 OFFCURVE",
"73 122 OFFCURVE",
"67 154 CURVE",
"34 148 LINE",
"55 18 LINE",
"80 3 OFFCURVE",
"138 -8 OFFCURVE",
"184 -8 CURVE SMOOTH"
);
}
);
width = 371;
}
);
leftKerningGroup = s;
rightKerningGroup = s;
unicode = 0073;
},
{
color = 6;
glyphname = germandbls;
lastChange = "2022-03-18 09:39:33 +0000";
layers = (
{
layerId = "6D97EE47-94AA-478E-ABFB-936E6C32B491";
paths = (
{
closed = 1;
nodes = (
"531 -8 OFFCURVE",
"595 43 OFFCURVE",
"587 141 CURVE SMOOTH",
"582 200 OFFCURVE",
"535 253 OFFCURVE",
"498 283 CURVE SMOOTH",
"467 308 OFFCURVE",
"420 346 OFFCURVE",
"392 374 CURVE SMOOTH",
"371 395 OFFCURVE",
"359 409 OFFCURVE",
"359 432 CURVE SMOOTH",
"359 453 OFFCURVE",
"369 471 OFFCURVE",
"389 494 CURVE SMOOTH",
"406 513 OFFCURVE",
"442 547 OFFCURVE",
"493 588 CURVE",
"498 606 OFFCURVE",
"502 623 OFFCURVE",
"502 646 CURVE SMOOTH",
"502 665 OFFCURVE",
"498 684 OFFCURVE",
"491 701 CURVE SMOOTH",
"461 773 OFFCURVE",
"395 797 OFFCURVE",
"351 797 CURVE SMOOTH",
"290 797 OFFCURVE",
"227 772 OFFCURVE",
"179 719 CURVE SMOOTH",
"109 642 OFFCURVE",
"107 538 OFFCURVE",
"107 456 CURVE",
"57 456 LINE",
"46 400 LINE",
"107 400 LINE",
"107 46 LINE",
"80 33 OFFCURVE",
"45 30 OFFCURVE",
"28 30 CURVE",
"28 0 LINE",
"259 0 LINE",
"259 30 LINE",
"244 30 OFFCURVE",
"212 33 OFFCURVE",
"188 46 CURVE",
"187 537 LINE SMOOTH",
"187 602 OFFCURVE",
"190 653 OFFCURVE",
"223 694 CURVE SMOOTH",
"247 724 OFFCURVE",
"281 742 OFFCURVE",
"322 739 CURVE SMOOTH",
"362 736 OFFCURVE",
"399 713 OFFCURVE",
"416 673 CURVE SMOOTH",
"421 661 OFFCURVE",
"423 650 OFFCURVE",
"423 639 CURVE SMOOTH",
"423 612 OFFCURVE",
"422 600 OFFCURVE",
"417 586 CURVE",
"386 558 OFFCURVE",
"350 523 OFFCURVE",
"330 495 CURVE SMOOTH",
"310 466 OFFCURVE",
"300 443 OFFCURVE",
"299 419 CURVE SMOOTH",
"298 396 OFFCURVE",
"301 374 OFFCURVE",
"320 344 CURVE SMOOTH",
"348 300 OFFCURVE",
"396 259 OFFCURVE",
"437 223 CURVE SMOOTH",
"480 185 OFFCURVE",
"514 153 OFFCURVE",
"514 103 CURVE SMOOTH",
"514 68 OFFCURVE",
"485 41 OFFCURVE",
"448 37 CURVE SMOOTH",
"413 33 OFFCURVE",
"391 41 OFFCURVE",
"365 69 CURVE SMOOTH",
"349 86 OFFCURVE",
"339 122 OFFCURVE",
"333 154 CURVE",
"300 148 LINE",
"322 18 LINE",
"346 3 OFFCURVE",
"389 -8 OFFCURVE",
"435 -8 CURVE SMOOTH"
);
}
);
width = 622;
}
);
leftKerningGroup = f;
leftMetricsKey = f;
rightKerningGroup = s;
rightMetricsKey = s;
unicode = 00DF;
},
{
color = 6;
glyphname = longs;
lastChange = "2022-03-18 09:39:33 +0000";
layers = (
{
layerId = "6D97EE47-94AA-478E-ABFB-936E6C32B491";
paths = (
{
closed = 1;
nodes = (
"275 0 LINE",
"275 30 LINE",
"256 30 OFFCURVE",
"218 33 OFFCURVE",
"188 46 CURVE",
"188 489 LINE SMOOTH",
"188 601 OFFCURVE",
"189 649 OFFCURVE",
"225 689 CURVE SMOOTH",
"274 744 OFFCURVE",
"355 738 OFFCURVE",
"404 684 CURVE",
"474 752 LINE",
"418 807 OFFCURVE",
"286 823 OFFCURVE",
"189 729 CURVE SMOOTH",
"110 653 OFFCURVE",
"107 548 OFFCURVE",
"107 456 CURVE",
"47 456 LINE",
"36 400 LINE",
"107 400 LINE",
"107 46 LINE",
"80 33 OFFCURVE",
"45 30 OFFCURVE",
"28 30 CURVE",
"28 0 LINE"
);
}
);
width = 304;
}
);
leftKerningGroup = f;
leftMetricsKey = f;
rightKerningGroup = longs;
rightMetricsKey = "=f-60";
unicode = 017F;
},
{
color = 6;
glyphname = t;
lastChange = "2022-03-18 09:39:33 +0000";
layers = (
{
anchors = (
{
name = BOTTOM;
position = "{168, 0}";
}
);
layerId = "6D97EE47-94AA-478E-ABFB-936E6C32B491";
paths = (
{
closed = 1;
nodes = (
"212 -8 OFFCURVE",
"275 24 OFFCURVE",
"295 41 CURVE",
"281 66 LINE",
"262 56 OFFCURVE",
"200 39 OFFCURVE",
"175 56 CURVE SMOOTH",
"156 68 OFFCURVE",
"154 85 OFFCURVE",
"154 127 CURVE SMOOTH",
"154 400 LINE",
"293 400 LINE",
"293 456 LINE",
"154 456 LINE",
"154 533 LINE",
"134 542 LINE",
"106 507 OFFCURVE",
"59 454 OFFCURVE",
"20 431 CURVE",
"20 400 LINE",
"73 400 LINE",
"73 102 LINE SMOOTH",
"73 34 OFFCURVE",
"104 -8 OFFCURVE",
"158 -8 CURVE SMOOTH"
);
}
);
width = 309;
}
);
leftKerningGroup = t;
rightKerningGroup = t;
unicode = 0074;
},
{
color = 3;
glyphname = tbar;
lastChange = "2022-03-18 09:39:33 +0000";
layers = (
{
components = (
{
name = t;
}
);
layerId = "6D97EE47-94AA-478E-ABFB-936E6C32B491";
paths = (
{
closed = 1;
nodes = (
"272 233 LINE",
"272 271 LINE",
"25 271 LINE",
"25 233 LINE"
);
}
);
width = 309;
}
);
leftKerningGroup = t;
leftMetricsKey = t;
rightKerningGroup = t;
rightMetricsKey = t;
unicode = 0167;
},
{
color = 6;
glyphname = u;
lastChange = "2022-03-18 09:39:33 +0000";
layers = (
{
anchors = (
{
name = BOTTOM;
position = "{287, 0}";
},
{
name = TOP;
position = "{287, 456}";
}
);
layerId = "6D97EE47-94AA-478E-ABFB-936E6C32B491";
paths = (
{
closed = 1;
nodes = (
"281 -8 OFFCURVE",
"343 35 OFFCURVE",
"387 68 CURVE",
"388 108 LINE",
"357 84 OFFCURVE",
"312 53 OFFCURVE",
"275 53 CURVE SMOOTH",
"252 53 OFFCURVE",
"232 58 OFFCURVE",
"218 69 CURVE SMOOTH",
"180 98 OFFCURVE",
"178 128 OFFCURVE",
"178 179 CURVE SMOOTH",
"178 456 LINE",
"158 470 LINE",
"26 415 LINE",
"35 389 LINE",
"54 392 OFFCURVE",
"79 392 OFFCURVE",
"97 385 CURVE",
"97 141 LINE SMOOTH",
"97 82 OFFCURVE",
"110 37 OFFCURVE",
"161 8 CURVE SMOOTH",
"180 -3 OFFCURVE",
"202 -8 OFFCURVE",
"226 -8 CURVE SMOOTH"
);
},
{
closed = 1;
nodes = (
"549 52 LINE",
"537 79 LINE",
"517 72 OFFCURVE",
"488 63 OFFCURVE",
"460 66 CURVE",
"460 456 LINE",
"440 470 LINE",
"308 415 LINE",
"317 389 LINE",
"336 392 OFFCURVE",
"360 392 OFFCURVE",
"378 385 CURVE",
"380 92 LINE",
"380 69 LINE SMOOTH",
"380 47 OFFCURVE",
"381 8 OFFCURVE",
"426 -8 CURVE"
);
}
);
width = 571;
}
);
leftKerningGroup = u;
leftMetricsKey = n;
rightKerningGroup = n;
rightMetricsKey = n;
unicode = 0075;
},
{
color = 3;
glyphname = uogonek;
lastChange = "2022-03-18 09:39:33 +0000";
layers = (
{
components = (
{
alignment = -1;
name = ogonekcomb;
transform = "{1, 0, 0, 1, 286, 0}";
},
{
name = u;
}
);
layerId = "6D97EE47-94AA-478E-ABFB-936E6C32B491";
paths = (
{
closed = 1;
nodes = (
"438 -1 OFFCURVE",
"446 6 OFFCURVE",
"463 17 CURVE SMOOTH",
"479 27 OFFCURVE",
"496 36 OFFCURVE",
"519 46 CURVE",
"440 30 LINE",
"399 0 LINE",
"404 0 LINE",
"416 -21 LINE"
);
}
);
width = 571;
}
);
leftKerningGroup = u;
leftMetricsKey = u;
rightKerningGroup = n;
rightMetricsKey = u;
unicode = 0173;
},
{
color = 6;
glyphname = v;
lastChange = "2022-03-18 09:39:33 +0000";
layers = (
{
layerId = "6D97EE47-94AA-478E-ABFB-936E6C32B491";
paths = (
{
closed = 1;
nodes = (
"269 -14 LINE",
"441 411 LINE",
"463 423 OFFCURVE",
"489 426 OFFCURVE",
"502 426 CURVE",
"502 456 LINE",
"316 456 LINE",
"316 426 LINE",
"331 426 OFFCURVE",
"363 423 OFFCURVE",
"387 410 CURVE",
"387 409 LINE",
"268 115 LINE",
"156 409 LINE",
"156 410 LINE",
"180 423 OFFCURVE",
"212 426 OFFCURVE",
"227 426 CURVE",
"227 456 LINE",
"10 456 LINE",
"10 426 LINE",
"23 426 OFFCURVE",
"50 423 OFFCURVE",
"71 411 CURVE",
"235 -14 LINE"
);
}
);
width = 512;
}
);
leftKerningGroup = v;
rightKerningGroup = v;
unicode = 0076;
},
{
color = 6;
glyphname = w;
lastChange = "2022-03-18 09:39:33 +0000";
layers = (
{
anchors = (
{
name = TOP;
position = "{376, 456}";
}
);
layerId = "6D97EE47-94AA-478E-ABFB-936E6C32B491";
paths = (
{
closed = 1;
nodes = (
"252 -14 LINE",
"363 274 LINE",
"467 -14 LINE",
"502 -14 LINE",
"647 410 LINE",
"669 423 OFFCURVE",
"697 426 OFFCURVE",
"710 426 CURVE",
"710 456 LINE",
"526 456 LINE",
"526 426 LINE",
"541 426 OFFCURVE",
"573 423 OFFCURVE",
"597 410 CURVE",
"500 125 LINE",
"397 407 LINE",
"363 407 LINE",
"254 122 LINE",
"155 410 LINE",
"179 423 OFFCURVE",
"211 426 OFFCURVE",
"226 426 CURVE",
"226 456 LINE",
"10 456 LINE",
"10 426 LINE",
"23 426 OFFCURVE",
"51 423 OFFCURVE",
"73 410 CURVE",
"218 -14 LINE"
);
}
);
width = 720;
}
);
leftKerningGroup = v;
leftMetricsKey = v;
rightKerningGroup = v;
rightMetricsKey = v;
unicode = 0077;
},
{
color = 6;
glyphname = x;
lastChange = "2022-03-18 09:39:33 +0000";
layers = (
{
layerId = "6D97EE47-94AA-478E-ABFB-936E6C32B491";
paths = (
{
closed = 1;
nodes = (
"477 0 LINE",
"477 30 LINE",
"464 30 OFFCURVE",
"437 33 OFFCURVE",
"416 45 CURVE",
"170 410 LINE",
"192 423 OFFCURVE",
"220 426 OFFCURVE",
"233 426 CURVE",
"233 456 LINE",
"15 456 LINE",
"15 426 LINE",
"27 426 OFFCURVE",
"53 423 OFFCURVE",
"75 412 CURVE",
"322 46 LINE",
"300 33 OFFCURVE",
"272 30 OFFCURVE",
"259 30 CURVE",
"259 0 LINE"
);
},
{
closed = 1;
nodes = (
"185 0 LINE",
"185 30 LINE",
"173 30 OFFCURVE",
"146 33 OFFCURVE",
"126 46 CURVE",
"236 192 LINE",
"210 231 LINE",
"70 44 LINE",
"49 33 OFFCURVE",
"22 30 OFFCURVE",
"10 30 CURVE",
"10 0 LINE"
);
},
{
closed = 1;
nodes = (
"407 411 LINE",
"428 423 OFFCURVE",
"455 426 OFFCURVE",
"467 426 CURVE",
"467 456 LINE",
"292 456 LINE",
"292 426 LINE",
"304 426 OFFCURVE",
"331 423 OFFCURVE",
"351 410 CURVE",
"248 274 LINE",
"274 236 LINE"
);
}
);
width = 487;
}
);
leftKerningGroup = x;
leftMetricsKey = v;
rightKerningGroup = x;
rightMetricsKey = v;
unicode = 0078;
},
{
color = 6;
glyphname = y;
lastChange = "2022-03-18 09:39:33 +0000";
layers = (
{
anchors = (
{
name = TOP;
position = "{268, 456}";
}
);
layerId = "6D97EE47-94AA-478E-ABFB-936E6C32B491";
paths = (
{
closed = 1;
nodes = (
"133 -264 OFFCURVE",
"150 -245 OFFCURVE",
"175 -208 CURVE SMOOTH",
"203 -167 OFFCURVE",
"242 -81 OFFCURVE",
"257 -43 CURVE SMOOTH",
"440 409 LINE",
"462 423 OFFCURVE",
"490 426 OFFCURVE",
"503 426 CURVE",
"503 456 LINE",
"316 456 LINE",
"316 426 LINE",
"331 426 OFFCURVE",
"363 423 OFFCURVE",
"387 410 CURVE",
"387 409 LINE",
"268 116 LINE",
"155 408 LINE",
"156 410 LINE",
"180 423 OFFCURVE",
"212 426 OFFCURVE",
"227 426 CURVE",
"227 456 LINE",
"10 456 LINE",
"10 426 LINE",
"23 426 OFFCURVE",
"50 423 OFFCURVE",
"71 411 CURVE",
"225 11 LINE",
"202 -35 OFFCURVE",
"169 -94 OFFCURVE",
"143 -124 CURVE SMOOTH",
"118 -156 OFFCURVE",
"86 -183 OFFCURVE",
"52 -204 CURVE",
"109 -279 LINE"
);
}
);
width = 513;
}
);
leftKerningGroup = y;
leftMetricsKey = v;
rightKerningGroup = y;
rightMetricsKey = v;
unicode = 0079;
},
{
color = 6;
glyphname = z;
lastChange = "2022-03-18 09:39:33 +0000";
layers = (
{
anchors = (
{
name = TOP;
position = "{217, 456}";
}
);
layerId = "6D97EE47-94AA-478E-ABFB-936E6C32B491";
paths = (
{
closed = 1;
nodes = (
"388 0 LINE",
"423 150 LINE",
"395 158 LINE",
"391 145 OFFCURVE",
"367 86 OFFCURVE",
"341 50 CURVE",
"145 50 LINE",
"401 431 LINE",
"391 456 LINE",
"56 456 LINE",
"50 302 LINE",
"79 300 LINE",
"86 335 OFFCURVE",
"91 369 OFFCURVE",
"102 406 CURVE",
"290 406 LINE",
"34 24 LINE",
"44 0 LINE"
);
}
);
width = 457;
}
);
leftKerningGroup = z;
rightKerningGroup = z;
unicode = 007A;
},
{
color = 6;
glyphname = a.sc;
lastChange = "2022-03-18 09:39:33 +0000";
layers = (
{
anchors = (
{
name = BOTTOM;
position = "{279, 0}";
},
{
name = TOP;
position = "{293, 509}";
}
);
layerId = "6D97EE47-94AA-478E-ABFB-936E6C32B491";
paths = (
{
closed = 1;
nodes = (
"209 0 LINE",
"209 27 LINE",
"192 27 OFFCURVE",
"157 30 OFFCURVE",
"130 41 CURVE",
"178 159 LINE",
"365 159 LINE",
"408 41 LINE",
"381 30 OFFCURVE",
"346 27 OFFCURVE",
"329 27 CURVE",
"329 0 LINE",
"556 0 LINE",
"556 27 LINE",
"541 27 OFFCURVE",
"511 30 OFFCURVE",
"487 41 CURVE",
"310 530 LINE",
"240 505 LINE",
"251 475 LINE",
"75 40 LINE",
"50 30 OFFCURVE",
"19 27 OFFCURVE",
"4 27 CURVE",
"4 0 LINE"
);
},
{
closed = 1;
nodes = (
"277 404 LINE",
"349 205 LINE",
"196 205 LINE"
);
}
);
width = 550;
}
);
leftKerningGroup = a.sc;
leftMetricsKey = A;
rightKerningGroup = a.sc;
rightMetricsKey = A;
unicode = 1D00;
},
{
color = 6;
glyphname = b.sc;
lastChange = "2022-03-18 09:39:33 +0000";
layers = (
{
layerId = "6D97EE47-94AA-478E-ABFB-936E6C32B491";
paths = (
{
closed = 1;
nodes = (
"299 0 LINE SMOOTH",
"435 0 OFFCURVE",
"496 101 OFFCURVE",
"476 180 CURVE SMOOTH",
"461 239 OFFCURVE",
"407 275 OFFCURVE",
"371 291 CURVE",
"421 323 OFFCURVE",
"447 389 OFFCURVE",
"422 443 CURVE SMOOTH",
"401 491 OFFCURVE",
"350 517 OFFCURVE",
"282 517 CURVE SMOOTH",
"213 517 OFFCURVE",
"148 511 OFFCURVE",
"89 505 CURVE SMOOTH",
"50 502 LINE",
"52 475 LINE",
"69 477 OFFCURVE",
"102 477 OFFCURVE",
"129 469 CURVE",
"129 41 LINE",
"102 30 OFFCURVE",
"67 27 OFFCURVE",
"50 27 CURVE",
"50 0 LINE"
);
},
{
closed = 1;
nodes = (
"298 38 OFFCURVE",
"232 41 OFFCURVE",
"210 56 CURVE",
"210 252 LINE",
"245 253 OFFCURVE",
"286 251 OFFCURVE",
"319 238 CURVE SMOOTH",
"357 225 OFFCURVE",
"384 196 OFFCURVE",
"392 161 CURVE SMOOTH",
"405 110 OFFCURVE",
"384 65 OFFCURVE",
"336 50 CURVE SMOOTH"
);
},
{
closed = 1;
nodes = (
"210 473 LINE",
"286 481 OFFCURVE",
"328 460 OFFCURVE",
"348 413 CURVE SMOOTH",
"363 374 OFFCURVE",
"351 330 OFFCURVE",
"320 310 CURVE SMOOTH",
"293 292 OFFCURVE",
"238 288 OFFCURVE",
"210 290 CURVE"
);
}
);
width = 505;
}
);
leftKerningGroup = h.sc;
leftMetricsKey = B;
rightKerningGroup = b.sc;
rightMetricsKey = B;
unicode = 0299;
},
{
color = 6;
glyphname = c.sc;
lastChange = "2022-03-18 09:39:33 +0000";
layers = (
{
anchors = (
{
name = BOTTOM;
position = "{299, 0}";
},
{
name = TOP;
position = "{329, 509}";
}
);
layerId = "6D97EE47-94AA-478E-ABFB-936E6C32B491";
paths = (
{
closed = 1;
nodes = (
"534 124 LINE",
"507 139 LINE",
"466 73 OFFCURVE",
"434 49 OFFCURVE",
"377 38 CURVE SMOOTH",
"281 19 OFFCURVE",
"174 98 OFFCURVE",
"146 207 CURVE SMOOTH",
"113 336 OFFCURVE",
"167 440 OFFCURVE",
"265 465 CURVE SMOOTH",
"360 489 OFFCURVE",
"449 450 OFFCURVE",
"473 373 CURVE",
"503 379 LINE",
"486 491 LINE",
"443 503 OFFCURVE",
"342 532 OFFCURVE",
"252 508 CURVE SMOOTH",
"106 469 OFFCURVE",
"21 323 OFFCURVE",
"59 184 CURVE SMOOTH",
"104 20 OFFCURVE",
"268 -45 OFFCURVE",
"474 11 CURVE"
);
}
);
width = 559;
}
);
leftKerningGroup = o.sc;
leftMetricsKey = C;
rightKerningGroup = c.sc;
rightMetricsKey = C;
unicode = 1D04;
},
{
color = 6;
glyphname = d.sc;
lastChange = "2022-03-18 09:39:33 +0000";
layers = (
{
anchors = (
{
name = TOP;
position = "{300, 494}";
}
);
layerId = "6D97EE47-94AA-478E-ABFB-936E6C32B491";
paths = (
{
closed = 1;
nodes = (
"188 0 LINE",
"210 0 LINE",
"266 0 LINE SMOOTH",
"315 0 OFFCURVE",
"368 5 OFFCURVE",
"395 13 CURVE SMOOTH",
"521 46 OFFCURVE",
"605 151 OFFCURVE",
"605 264 CURVE SMOOTH",
"605 283 OFFCURVE",
"602 304 OFFCURVE",
"596 325 CURVE SMOOTH",
"572 410 OFFCURVE",
"506 472 OFFCURVE",
"418 499 CURVE SMOOTH",
"372 513 OFFCURVE",
"325 517 OFFCURVE",
"278 517 CURVE SMOOTH",
"207 517 OFFCURVE",
"129 507 OFFCURVE",
"62 501 CURVE SMOOTH",
"50 500 LINE",
"52 473 LINE",
"68 475 OFFCURVE",
"102 475 OFFCURVE",
"129 467 CURVE",
"129 41 LINE",
"102 30 OFFCURVE",
"67 27 OFFCURVE",
"50 27 CURVE",
"50 0 LINE"
);
},
{
closed = 1;
nodes = (
"276 42 OFFCURVE",
"241 49 OFFCURVE",
"210 61 CURVE",
"210 471 LINE",
"228 473 OFFCURVE",
"245 474 OFFCURVE",
"263 474 CURVE SMOOTH",
"390 474 OFFCURVE",
"481 405 OFFCURVE",
"507 302 CURVE SMOOTH",
"512 282 OFFCURVE",
"515 264 OFFCURVE",
"515 245 CURVE SMOOTH",
"515 156 OFFCURVE",
"467 74 OFFCURVE",
"382 51 CURVE SMOOTH",
"358 45 OFFCURVE",
"334 42 OFFCURVE",
"311 42 CURVE SMOOTH"
);
}
);
width = 655;
}
);
leftKerningGroup = h.sc;
leftMetricsKey = D;
rightKerningGroup = o.sc;
rightMetricsKey = D;
unicode = 1D05;
},
{
color = 6;
glyphname = e.sc;
lastChange = "2022-03-18 09:39:33 +0000";
layers = (
{
anchors = (
{
name = BOTTOM;
position = "{275, 0}";
},
{
name = TOP;
position = "{263, 509}";
}
);
layerId = "6D97EE47-94AA-478E-ABFB-936E6C32B491";
paths = (
{
closed = 1;
nodes = (
"435 0 LINE",
"465 137 LINE",
"437 144 LINE",
"434 133 OFFCURVE",
"412 77 OFFCURVE",
"388 46 CURVE",
"210 46 LINE",
"210 233 LINE",
"333 233 LINE",
"342 212 OFFCURVE",
"342 185 OFFCURVE",
"342 172 CURVE",
"370 172 LINE",
"370 341 LINE",
"342 341 LINE",
"342 327 OFFCURVE",
"342 301 OFFCURVE",
"333 279 CURVE",
"210 279 LINE",
"210 463 LINE",
"379 463 LINE",
"389 438 OFFCURVE",
"392 410 OFFCURVE",
"394 391 CURVE",
"422 393 LINE",
"418 509 LINE",
"50 509 LINE",
"50 482 LINE",
"67 482 OFFCURVE",
"102 479 OFFCURVE",
"129 468 CURVE",
"129 41 LINE",
"102 30 OFFCURVE",
"67 27 OFFCURVE",
"50 27 CURVE",
"50 0 LINE"
);
}
);
width = 490;
}
);
leftKerningGroup = h.sc;
leftMetricsKey = E;
rightKerningGroup = e.sc;
rightMetricsKey = E;
unicode = 1D07;
},
{
color = 6;
glyphname = f.sc;
lastChange = "2022-03-18 09:39:33 +0000";
layers = (
{
layerId = "6D97EE47-94AA-478E-ABFB-936E6C32B491";
paths = (
{
closed = 1;
nodes = (
"298 0 LINE",
"298 27 LINE",
"279 27 OFFCURVE",
"240 30 OFFCURVE",
"210 41 CURVE",
"210 221 LINE",
"328 221 LINE",
"337 199 OFFCURVE",
"337 173 OFFCURVE",
"337 160 CURVE",
"364 160 LINE",
"364 329 LINE",
"337 329 LINE",
"337 315 OFFCURVE",
"337 289 OFFCURVE",
"328 267 CURVE",
"210 267 LINE",
"210 463 LINE",
"379 463 LINE",
"389 438 OFFCURVE",
"392 410 OFFCURVE",
"394 391 CURVE",
"422 393 LINE",
"418 509 LINE",
"50 509 LINE",
"50 482 LINE",
"67 482 OFFCURVE",
"102 479 OFFCURVE",
"129 468 CURVE",
"129 41 LINE",
"102 30 OFFCURVE",
"67 27 OFFCURVE",
"50 27 CURVE",
"50 0 LINE"
);
}
);
width = 447;
}
);
leftKerningGroup = h.sc;
leftMetricsKey = F;
rightKerningGroup = f.sc;
rightMetricsKey = F;
unicode = A730;
},
{
color = 6;
glyphname = g.sc;
lastChange = "2022-03-18 09:39:33 +0000";
layers = (
{
anchors = (
{
name = BOTTOM;
position = "{324, 11}";
},
{
name = TOP;
position = "{324, 509}";
}
);
layerId = "6D97EE47-94AA-478E-ABFB-936E6C32B491";
paths = (
{
closed = 1;
nodes = (
"406 -13 OFFCURVE",
"476 12 OFFCURVE",
"543 13 CURVE",
"543 46 LINE",
"535 48 OFFCURVE",
"523 55 OFFCURVE",
"520 59 CURVE",
"520 164 LINE",
"538 175 OFFCURVE",
"561 178 OFFCURVE",
"573 178 CURVE",
"573 205 LINE",
"374 205 LINE",
"374 178 LINE",
"389 178 OFFCURVE",
"420 175 OFFCURVE",
"443 164 CURVE",
"443 56 LINE",
"289 -17 OFFCURVE",
"174 102 OFFCURVE",
"146 207 CURVE SMOOTH",
"116 323 OFFCURVE",
"168 439 OFFCURVE",
"265 465 CURVE SMOOTH",
"364 491 OFFCURVE",
"462 451 OFFCURVE",
"487 373 CURVE",
"518 379 LINE",
"501 491 LINE",
"460 504 OFFCURVE",
"341 531 OFFCURVE",
"252 507 CURVE SMOOTH",
"110 469 OFFCURVE",
"21 324 OFFCURVE",
"59 185 CURVE SMOOTH",
"88 73 OFFCURVE",
"186 1 OFFCURVE",
"314 -7 CURVE SMOOTH"
);
}
);
width = 613;
}
);
leftKerningGroup = o.sc;
leftMetricsKey = G;
rightKerningGroup = g.sc;
rightMetricsKey = G;
unicode = 0262;
},
{
color = 6;
glyphname = h.sc;
lastChange = "2022-03-18 09:39:33 +0000";
layers = (
{
anchors = (
{
name = BOTTOM;
position = "{515, 0}";
},
{
name = TOP;
position = "{342, 509}";
}
);
layerId = "6D97EE47-94AA-478E-ABFB-936E6C32B491";
paths = (
{
closed = 1;
nodes = (
"289 0 LINE",
"289 27 LINE",
"272 27 OFFCURVE",
"237 30 OFFCURVE",
"210 41 CURVE",
"210 235 LINE",
"474 235 LINE",
"474 41 LINE",
"447 30 OFFCURVE",
"412 27 OFFCURVE",
"395 27 CURVE",
"395 0 LINE",
"634 0 LINE",
"634 27 LINE",
"617 27 OFFCURVE",
"582 30 OFFCURVE",
"555 41 CURVE",
"555 468 LINE",
"582 479 OFFCURVE",
"617 482 OFFCURVE",
"634 482 CURVE",
"634 509 LINE",
"395 509 LINE",
"395 482 LINE",
"412 482 OFFCURVE",
"447 479 OFFCURVE",
"474 468 CURVE",
"474 281 LINE",
"210 281 LINE",
"210 468 LINE",
"237 479 OFFCURVE",
"272 482 OFFCURVE",
"289 482 CURVE",
"289 509 LINE",
"50 509 LINE",
"50 482 LINE",
"67 482 OFFCURVE",
"102 479 OFFCURVE",
"129 468 CURVE",
"129 41 LINE",
"102 30 OFFCURVE",
"67 27 OFFCURVE",
"50 27 CURVE",
"50 0 LINE"
);
}
);
width = 684;
}
);
leftKerningGroup = h.sc;
leftMetricsKey = H;
rightKerningGroup = h.sc;
rightMetricsKey = H;
unicode = 029C;
},
{
color = 6;
glyphname = i.sc;
lastChange = "2022-03-18 09:39:33 +0000";
layers = (
{
anchors = (
{
name = BOTTOM;
position = "{170, 0}";
},
{
name = TOP;
position = "{170, 509}";
}
);
layerId = "6D97EE47-94AA-478E-ABFB-936E6C32B491";
paths = (
{
closed = 1;
nodes = (
"289 0 LINE",
"289 27 LINE",
"272 27 OFFCURVE",
"237 30 OFFCURVE",
"210 41 CURVE",
"210 468 LINE",
"237 479 OFFCURVE",
"272 482 OFFCURVE",
"289 482 CURVE",
"289 509 LINE",
"50 509 LINE",
"50 482 LINE",
"67 482 OFFCURVE",
"102 479 OFFCURVE",
"129 468 CURVE",
"129 41 LINE",
"102 30 OFFCURVE",
"67 27 OFFCURVE",
"50 27 CURVE",
"50 0 LINE"
);
}
);
width = 339;
}
);
leftKerningGroup = h.sc;
leftMetricsKey = I;
rightKerningGroup = h.sc;
rightMetricsKey = I;
unicode = 026A;
},
{
color = 6;
glyphname = j.sc;
lastChange = "2022-03-18 09:39:33 +0000";
layers = (
{
anchors = (
{
name = TOP;
position = "{171, 509}";
}
);
layerId = "6D97EE47-94AA-478E-ABFB-936E6C32B491";
paths = (
{
closed = 1;
nodes = (
"82 -237 OFFCURVE",
"186 -142 OFFCURVE",
"211 0 CURVE",
"211 468 LINE",
"238 479 OFFCURVE",
"273 482 OFFCURVE",
"290 482 CURVE",
"290 509 LINE",
"51 509 LINE",
"51 482 LINE",
"68 482 OFFCURVE",
"103 479 OFFCURVE",
"130 468 CURVE",
"130 3 LINE SMOOTH",
"130 -2 OFFCURVE",
"130 -6 OFFCURVE",
"129 -11 CURVE",
"123 -99 OFFCURVE",
"89 -177 OFFCURVE",
"46 -225 CURVE",
"66 -247 LINE"
);
}
);
width = 340;
}
);
leftKerningGroup = j.sc;
leftMetricsKey = J;
rightKerningGroup = h.sc;
rightMetricsKey = J;
unicode = 1D0A;
},
{
color = 6;
glyphname = k.sc;
lastChange = "2022-03-18 09:39:33 +0000";
layers = (
{
anchors = (
{
name = BOTTOM;
position = "{331, 0}";
}
);
layerId = "6D97EE47-94AA-478E-ABFB-936E6C32B491";
paths = (
{
closed = 1;
nodes = (
"577 0 LINE",
"510 22 OFFCURVE",
"495 47 OFFCURVE",
"457 92 CURVE SMOOTH",
"414 142 OFFCURVE",
"338 249 OFFCURVE",
"310 288 CURVE",
"478 469 LINE",
"504 479 OFFCURVE",
"538 482 OFFCURVE",
"555 482 CURVE",
"555 509 LINE",
"341 509 LINE",
"341 482 LINE",
"356 482 OFFCURVE",
"388 479 OFFCURVE",
"413 468 CURVE",
"228 269 LINE",
"250 240 OFFCURVE",
"356 80 OFFCURVE",
"393 42 CURVE SMOOTH",
"433 1 OFFCURVE",
"466 -28 OFFCURVE",
"572 -27 CURVE"
);
},
{
closed = 1;
nodes = (
"293 0 LINE",
"293 27 LINE",
"275 27 OFFCURVE",
"238 30 OFFCURVE",
"210 41 CURVE",
"210 468 LINE",
"237 479 OFFCURVE",
"272 482 OFFCURVE",
"289 482 CURVE",
"289 509 LINE",
"50 509 LINE",
"50 482 LINE",
"67 482 OFFCURVE",
"102 479 OFFCURVE",
"129 468 CURVE",
"129 41 LINE",
"102 30 OFFCURVE",
"67 27 OFFCURVE",
"50 27 CURVE",
"50 0 LINE"
);
}
);
width = 571;
}
);
leftKerningGroup = h.sc;
leftMetricsKey = K;
rightKerningGroup = k.sc;
rightMetricsKey = K;
unicode = 1D0B;
},
{
color = 6;
glyphname = l.sc;
lastChange = "2022-03-18 09:39:33 +0000";
layers = (
{
anchors = (
{
name = BOTTOM;
position = "{268, 0}";
},
{
name = TOP;
position = "{170, 509}";
}
);
layerId = "6D97EE47-94AA-478E-ABFB-936E6C32B491";
paths = (
{
closed = 1;
nodes = (
"435 0 LINE",
"476 130 LINE",
"449 139 LINE",
"442 122 OFFCURVE",
"416 71 OFFCURVE",
"396 46 CURVE",
"210 46 LINE",
"210 468 LINE",
"237 479 OFFCURVE",
"272 482 OFFCURVE",
"289 482 CURVE",
"289 509 LINE",
"50 509 LINE",
"50 482 LINE",
"67 482 OFFCURVE",
"102 479 OFFCURVE",
"129 468 CURVE",
"129 41 LINE",
"102 30 OFFCURVE",
"67 27 OFFCURVE",
"50 27 CURVE",
"50 0 LINE"
);
}
);
width = 480;
}
);
leftKerningGroup = h.sc;
leftMetricsKey = L;
rightKerningGroup = e.sc;
rightMetricsKey = L;
unicode = 029F;
},
{
color = 6;
glyphname = m.sc;
lastChange = "2022-03-18 09:39:33 +0000";
layers = (
{
layerId = "6D97EE47-94AA-478E-ABFB-936E6C32B491";
paths = (
{
closed = 1;
nodes = (
"246 0 LINE",
"246 27 LINE",
"229 27 OFFCURVE",
"194 30 OFFCURVE",
"167 41 CURVE",
"186 406 LINE",
"351 0 LINE",
"544 374 LINE",
"557 41 LINE",
"530 30 OFFCURVE",
"495 27 OFFCURVE",
"478 27 CURVE",
"478 0 LINE",
"717 0 LINE",
"717 27 LINE",
"700 27 OFFCURVE",
"665 30 OFFCURVE",
"638 41 CURVE",
"622 468 LINE",
"649 479 OFFCURVE",
"684 482 OFFCURVE",
"701 482 CURVE",
"701 509 LINE",
"561 509 LINE",
"377 151 LINE",
"232 509 LINE",
"62 509 LINE",
"62 482 LINE",
"79 482 OFFCURVE",
"114 479 OFFCURVE",
"141 468 CURVE",
"119 41 LINE",
"92 30 OFFCURVE",
"57 27 OFFCURVE",
"40 27 CURVE",
"40 0 LINE"
);
}
);
width = 767;
}
);
leftKerningGroup = m.sc;
leftMetricsKey = M;
rightKerningGroup = m.sc;
rightMetricsKey = M;
unicode = 1D0D;
},
{
color = 6;
glyphname = n.sc;
lastChange = "2022-03-18 09:39:33 +0000";
layers = (
{
anchors = (
{
name = BOTTOM;
position = "{321, 0}";
},
{
name = TOP;
position = "{321, 509}";
}
);
layerId = "6D97EE47-94AA-478E-ABFB-936E6C32B491";
paths = (
{
closed = 1;
nodes = (
"517 -8 LINE",
"517 468 LINE",
"544 479 OFFCURVE",
"579 482 OFFCURVE",
"596 482 CURVE",
"596 509 LINE",
"390 509 LINE",
"390 482 LINE",
"407 482 OFFCURVE",
"442 479 OFFCURVE",
"469 468 CURVE",
"469 133 LINE",
"186 509 LINE",
"40 509 LINE",
"40 482 LINE",
"57 482 OFFCURVE",
"92 479 OFFCURVE",
"119 468 CURVE",
"119 41 LINE",
"92 30 OFFCURVE",
"57 27 OFFCURVE",
"40 27 CURVE",
"40 0 LINE",
"246 0 LINE",
"246 27 LINE",
"229 27 OFFCURVE",
"194 30 OFFCURVE",
"167 41 CURVE",
"167 399 LINE",
"474 -8 LINE"
);
}
);
width = 636;
}
);
leftKerningGroup = h.sc;
leftMetricsKey = N;
rightKerningGroup = h.sc;
rightMetricsKey = N;
unicode = 0274;
},
{
color = 6;
glyphname = o.sc;
lastChange = "2022-03-18 09:39:33 +0000";
layers = (
{
anchors = (
{
name = BOTTOM;
position = "{328, 0}";
},
{
name = TOP;
position = "{318, 509}";
}
);
layerId = "6D97EE47-94AA-478E-ABFB-936E6C32B491";
paths = (
{
closed = 1;
nodes = (
"347 -8 OFFCURVE",
"381 -2 OFFCURVE",
"414 11 CURVE SMOOTH",
"517 53 OFFCURVE",
"582 154 OFFCURVE",
"582 259 CURVE SMOOTH",
"582 291 OFFCURVE",
"576 324 OFFCURVE",
"563 355 CURVE SMOOTH",
"522 457 OFFCURVE",
"421 517 OFFCURVE",
"317 517 CURVE SMOOTH",
"284 517 OFFCURVE",
"250 511 OFFCURVE",
"218 498 CURVE SMOOTH",
"115 457 OFFCURVE",
"50 356 OFFCURVE",
"50 251 CURVE SMOOTH",
"50 218 OFFCURVE",
"56 186 OFFCURVE",
"69 154 CURVE SMOOTH",
"109 52 OFFCURVE",
"209 -8 OFFCURVE",
"314 -8 CURVE SMOOTH"
);
},
{
closed = 1;
nodes = (
"268 38 OFFCURVE",
"190 96 OFFCURVE",
"155 188 CURVE SMOOTH",
"143 221 OFFCURVE",
"136 255 OFFCURVE",
"136 287 CURVE SMOOTH",
"136 366 OFFCURVE",
"173 435 OFFCURVE",
"235 461 CURVE SMOOTH",
"252 468 OFFCURVE",
"269 471 OFFCURVE",
"287 471 CURVE SMOOTH",
"361 471 OFFCURVE",
"440 413 OFFCURVE",
"476 322 CURVE SMOOTH",
"488 289 OFFCURVE",
"495 255 OFFCURVE",
"495 223 CURVE SMOOTH",
"495 143 OFFCURVE",
"458 74 OFFCURVE",
"397 49 CURVE SMOOTH",
"379 42 OFFCURVE",
"362 38 OFFCURVE",
"343 38 CURVE SMOOTH"
);
}
);
width = 632;
}
);
leftKerningGroup = o.sc;
leftMetricsKey = O;
rightKerningGroup = o.sc;
rightMetricsKey = O;
unicode = 1D0F;
},
{
color = 6;
glyphname = p.sc;
lastChange = "2022-03-18 09:39:33 +0000";
layers = (
{
layerId = "6D97EE47-94AA-478E-ABFB-936E6C32B491";
paths = (
{
closed = 1;
nodes = (
"298 0 LINE",
"298 27 LINE",
"279 27 OFFCURVE",
"240 30 OFFCURVE",
"210 41 CURVE",
"210 473 LINE",
"303 488 OFFCURVE",
"365 427 OFFCURVE",
"377 354 CURVE SMOOTH",
"390 278 OFFCURVE",
"359 223 OFFCURVE",
"258 218 CURVE",
"262 186 LINE",
"395 178 OFFCURVE",
"478 259 OFFCURVE",
"464 366 CURVE SMOOTH",
"452 459 OFFCURVE",
"352 517 OFFCURVE",
"265 517 CURVE SMOOTH",
"210 517 OFFCURVE",
"147 511 OFFCURVE",
"87 505 CURVE SMOOTH",
"50 502 LINE",
"52 475 LINE",
"69 477 OFFCURVE",
"102 477 OFFCURVE",
"129 469 CURVE",
"129 41 LINE",
"102 30 OFFCURVE",
"67 27 OFFCURVE",
"50 27 CURVE",
"50 0 LINE"
);
}
);
width = 516;
}
);
leftKerningGroup = h.sc;
leftMetricsKey = P;
rightKerningGroup = p.sc;
rightMetricsKey = P;
unicode = 1D18;
},
{
color = 6;
glyphname = r.sc;
lastChange = "2022-03-18 09:39:33 +0000";
layers = (
{
anchors = (
{
name = BOTTOM;
position = "{323, 0}";
},
{
name = TOP;
position = "{259, 509}";
}
);
layerId = "6D97EE47-94AA-478E-ABFB-936E6C32B491";
paths = (
{
closed = 1;
nodes = (
"555 7 LINE",
"495 31 OFFCURVE",
"476 51 OFFCURVE",
"438 100 CURVE SMOOTH",
"404 143 OFFCURVE",
"366 204 OFFCURVE",
"339 249 CURVE",
"439 297 OFFCURVE",
"455 384 OFFCURVE",
"435 435 CURVE SMOOTH",
"413 491 OFFCURVE",
"350 517 OFFCURVE",
"267 517 CURVE SMOOTH",
"196 517 OFFCURVE",
"131 509 OFFCURVE",
"66 503 CURVE SMOOTH",
"50 502 LINE",
"52 475 LINE",
"68 477 OFFCURVE",
"102 477 OFFCURVE",
"129 469 CURVE",
"129 41 LINE",
"102 30 OFFCURVE",
"67 27 OFFCURVE",
"50 27 CURVE",
"50 0 LINE",
"293 0 LINE",
"293 27 LINE",
"275 27 OFFCURVE",
"238 30 OFFCURVE",
"210 41 CURVE",
"210 216 LINE",
"229 218 OFFCURVE",
"247 221 OFFCURVE",
"264 224 CURVE",
"292 175 OFFCURVE",
"340 86 OFFCURVE",
"368 54 CURVE SMOOTH",
"407 9 OFFCURVE",
"444 -15 OFFCURVE",
"548 -20 CURVE"
);
},
{
closed = 1;
nodes = (
"210 472 LINE",
"291 479 OFFCURVE",
"338 455 OFFCURVE",
"354 400 CURVE SMOOTH",
"375 327 OFFCURVE",
"314 256 OFFCURVE",
"210 250 CURVE"
);
}
);
width = 549;
}
);
leftKerningGroup = h.sc;
leftMetricsKey = R;
rightKerningGroup = r.sc;
rightMetricsKey = R;
unicode = 0280;
},
{
color = 6;
glyphname = s.sc;
lastChange = "2022-03-18 09:39:33 +0000";
layers = (
{
anchors = (
{
name = BOTTOM;
position = "{220, 0}";
},
{
name = TOP;
position = "{233, 509}";
}
);
layerId = "6D97EE47-94AA-478E-ABFB-936E6C32B491";
paths = (
{
closed = 1;
nodes = (
"242 -8 OFFCURVE",
"269 -5 OFFCURVE",
"291 4 CURVE SMOOTH",
"351 29 OFFCURVE",
"380 70 OFFCURVE",
"380 127 CURVE SMOOTH",
"380 193 OFFCURVE",
"341 240 OFFCURVE",
"278 280 CURVE SMOOTH",
"242 303 OFFCURVE",
"186 336 OFFCURVE",
"170 366 CURVE SMOOTH",
"164 377 OFFCURVE",
"162 389 OFFCURVE",
"162 400 CURVE SMOOTH",
"162 435 OFFCURVE",
"189 469 OFFCURVE",
"237 469 CURVE SMOOTH",
"259 469 OFFCURVE",
"281 462 OFFCURVE",
"296 451 CURVE SMOOTH",
"316 437 OFFCURVE",
"335 412 OFFCURVE",
"340 372 CURVE",
"371 376 LINE",
"355 503 LINE",
"341 504 OFFCURVE",
"300 517 OFFCURVE",
"250 517 CURVE SMOOTH",
"236 517 OFFCURVE",
"221 516 OFFCURVE",
"206 513 CURVE SMOOTH",
"124 497 OFFCURVE",
"81 452 OFFCURVE",
"81 382 CURVE SMOOTH",
"81 302 OFFCURVE",
"168 250 OFFCURVE",
"213 219 CURVE SMOOTH",
"255 190 OFFCURVE",
"293 160 OFFCURVE",
"296 124 CURVE SMOOTH",
"300 78 OFFCURVE",
"270 45 OFFCURVE",
"224 40 CURVE SMOOTH",
"219 39 OFFCURVE",
"213 39 OFFCURVE",
"207 39 CURVE SMOOTH",
"168 39 OFFCURVE",
"140 54 OFFCURVE",
"119 81 CURVE SMOOTH",
"103 101 OFFCURVE",
"87 136 OFFCURVE",
"79 173 CURVE",
"46 166 LINE",
"70 21 LINE",
"75 14 OFFCURVE",
"146 -8 OFFCURVE",
"215 -8 CURVE SMOOTH"
);
}
);
width = 431;
}
);
leftKerningGroup = s.sc;
leftMetricsKey = S;
rightKerningGroup = s.sc;
rightMetricsKey = S;
unicode = A731;
},
{
color = 6;
glyphname = t.sc;
lastChange = "2022-03-18 09:39:33 +0000";
layers = (
{
anchors = (
{
name = BOTTOM;
position = "{248, 0}";
},
{
name = TOP;
position = "{248, 491}";
}
);
layerId = "6D97EE47-94AA-478E-ABFB-936E6C32B491";
paths = (
{
closed = 1;
nodes = (
"368 0 LINE",
"368 27 LINE",
"351 27 OFFCURVE",
"316 30 OFFCURVE",
"289 41 CURVE",
"289 463 LINE",
"437 463 LINE",
"442 423 OFFCURVE",
"442 384 OFFCURVE",
"441 349 CURVE",
"470 346 LINE",
"493 509 LINE",
"10 509 LINE",
"10 349 LINE",
"39 349 LINE",
"45 385 OFFCURVE",
"51 423 OFFCURVE",
"62 463 CURVE",
"208 463 LINE",
"208 41 LINE",
"181 30 OFFCURVE",
"146 27 OFFCURVE",
"129 27 CURVE",
"129 0 LINE"
);
}
);
width = 503;
}
);
leftKerningGroup = t.sc;
leftMetricsKey = T;
rightKerningGroup = t.sc;
rightMetricsKey = T;
unicode = 1D1B;
},
{
color = 6;
glyphname = u.sc;
lastChange = "2022-03-18 09:39:33 +0000";
layers = (
{
anchors = (
{
name = BOTTOM;
position = "{350, 0}";
},
{
name = TOP;
position = "{352, 509}";
}
);
layerId = "6D97EE47-94AA-478E-ABFB-936E6C32B491";
paths = (
{
closed = 1;
nodes = (
"401 -8 OFFCURVE",
"499 13 OFFCURVE",
"529 105 CURVE SMOOTH",
"544 149 OFFCURVE",
"544 225 OFFCURVE",
"544 286 CURVE SMOOTH",
"544 468 LINE",
"571 479 OFFCURVE",
"606 482 OFFCURVE",
"623 482 CURVE",
"623 509 LINE",
"417 509 LINE",
"417 482 LINE",
"434 482 OFFCURVE",
"469 479 OFFCURVE",
"496 468 CURVE",
"496 291 LINE SMOOTH",
"496 224 OFFCURVE",
"497 164 OFFCURVE",
"486 127 CURVE SMOOTH",
"470 73 OFFCURVE",
"420 46 OFFCURVE",
"349 46 CURVE SMOOTH",
"283 46 OFFCURVE",
"236 80 OFFCURVE",
"220 129 CURVE SMOOTH",
"208 166 OFFCURVE",
"210 247 OFFCURVE",
"210 283 CURVE SMOOTH",
"210 468 LINE",
"237 479 OFFCURVE",
"272 482 OFFCURVE",
"289 482 CURVE",
"289 509 LINE",
"50 509 LINE",
"50 482 LINE",
"67 482 OFFCURVE",
"102 479 OFFCURVE",
"129 468 CURVE",
"129 279 LINE SMOOTH",
"129 207 OFFCURVE",
"129 143 OFFCURVE",
"147 101 CURVE SMOOTH",
"176 33 OFFCURVE",
"247 -8 OFFCURVE",
"342 -8 CURVE SMOOTH"
);
}
);
width = 663;
}
);
leftKerningGroup = u.sc;
leftMetricsKey = U;
rightKerningGroup = u.sc;
rightMetricsKey = U;
unicode = 1D1C;
},
{
color = 6;
glyphname = v.sc;
lastChange = "2022-03-18 09:39:33 +0000";
layers = (
{
layerId = "6D97EE47-94AA-478E-ABFB-936E6C32B491";
paths = (
{
closed = 1;
nodes = (
"294 -8 LINE",
"489 469 LINE",
"512 479 OFFCURVE",
"540 482 OFFCURVE",
"555 482 CURVE",
"555 509 LINE",
"360 509 LINE",
"360 482 LINE",
"377 482 OFFCURVE",
"412 479 OFFCURVE",
"439 468 CURVE",
"297 120 LINE",
"164 468 LINE",
"191 479 OFFCURVE",
"226 482 OFFCURVE",
"243 482 CURVE",
"243 509 LINE",
"4 509 LINE",
"4 482 LINE",
"20 482 OFFCURVE",
"52 479 OFFCURVE",
"77 468 CURVE",
"260 -8 LINE"
);
}
);
width = 559;
}
);
leftKerningGroup = v.sc;
leftMetricsKey = V;
rightKerningGroup = v.sc;
rightMetricsKey = V;
unicode = 1D20;
},
{
color = 6;
glyphname = w.sc;
lastChange = "2022-03-18 09:39:33 +0000";
layers = (
{
layerId = "6D97EE47-94AA-478E-ABFB-936E6C32B491";
paths = (
{
closed = 1;
nodes = (
"238 -8 LINE",
"382 327 LINE",
"512 -8 LINE",
"546 -8 LINE",
"674 468 LINE",
"697 479 OFFCURVE",
"725 482 OFFCURVE",
"740 482 CURVE",
"740 509 LINE",
"548 509 LINE",
"548 482 LINE",
"565 482 OFFCURVE",
"600 479 OFFCURVE",
"627 468 CURVE",
"539 144 LINE",
"420 452 LINE",
"386 452 LINE",
"249 134 LINE",
"159 468 LINE",
"186 479 OFFCURVE",
"221 482 OFFCURVE",
"238 482 CURVE",
"238 509 LINE",
"4 509 LINE",
"4 482 LINE",
"19 482 OFFCURVE",
"50 479 OFFCURVE",
"75 468 CURVE",
"204 -8 LINE"
);
}
);
width = 716;
}
);
leftKerningGroup = w.sc;
leftMetricsKey = W;
rightKerningGroup = w.sc;
rightMetricsKey = W;
unicode = 1D21;
},
{
color = 6;
glyphname = y.sc;
lastChange = "2022-03-18 09:39:33 +0000";
layers = (
{
anchors = (
{
name = TOP;
position = "{274, 509}";
}
);
layerId = "6D97EE47-94AA-478E-ABFB-936E6C32B491";
paths = (
{
closed = 1;
nodes = (
"383 0 LINE",
"383 27 LINE",
"366 27 OFFCURVE",
"331 30 OFFCURVE",
"304 41 CURVE",
"304 219 LINE",
"443 468 LINE",
"464 479 OFFCURVE",
"490 482 OFFCURVE",
"504 482 CURVE",
"504 509 LINE",
"318 509 LINE",
"318 482 LINE",
"333 482 OFFCURVE",
"365 479 OFFCURVE",
"390 468 CURVE",
"276 262 LINE",
"162 468 LINE",
"187 479 OFFCURVE",
"219 482 OFFCURVE",
"234 482 CURVE",
"234 509 LINE",
"4 509 LINE",
"4 482 LINE",
"19 482 OFFCURVE",
"47 479 OFFCURVE",
"70 468 CURVE",
"223 193 LINE",
"223 41 LINE",
"196 30 OFFCURVE",
"161 27 OFFCURVE",
"144 27 CURVE",
"144 0 LINE"
);
}
);
width = 508;
}
);
leftKerningGroup = v.sc;
leftMetricsKey = Y;
rightKerningGroup = v.sc;
rightMetricsKey = Y;
unicode = 028F;
},
{
color = 6;
glyphname = z.sc;
lastChange = "2022-03-18 09:39:33 +0000";
layers = (
{
anchors = (
{
name = TOP;
position = "{226, 509}";
}
);
layerId = "6D97EE47-94AA-478E-ABFB-936E6C32B491";
paths = (
{
closed = 1;
nodes = (
"415 0 LINE",
"450 148 LINE",
"422 156 LINE",
"419 143 OFFCURVE",
"393 81 OFFCURVE",
"366 46 CURVE",
"126 46 LINE",
"415 474 LINE",
"399 509 LINE",
"37 509 LINE",
"32 368 LINE",
"59 366 LINE",
"65 399 OFFCURVE",
"69 430 OFFCURVE",
"79 463 CURVE",
"314 463 LINE",
"25 35 LINE",
"39 0 LINE"
);
}
);
width = 475;
}
);
leftKerningGroup = z.sc;
leftMetricsKey = Z;
rightKerningGroup = z.sc;
rightMetricsKey = Z;
unicode = 1D22;
},
{
color = 3;
glyphname = c_t.dlig;
lastChange = "2022-03-18 09:39:33 +0000";
layers = (
{
components = (
{
name = c;
},
{
name = t;
transform = "{1, 0, 0, 1, 434, 0}";
}
);
layerId = "6D97EE47-94AA-478E-ABFB-936E6C32B491";
paths = (
{
closed = 1;
nodes = (
"327 425 LINE",
"266 506 OFFCURVE",
"282 676 OFFCURVE",
"402 676 CURVE SMOOTH",
"461 676 OFFCURVE",
"494 642 OFFCURVE",
"510 594 CURVE",
"510 456 LINE",
"588 456 LINE",
"588 607 LINE",
"559 681 OFFCURVE",
"502 721 OFFCURVE",
"422 721 CURVE SMOOTH",
"241 721 OFFCURVE",
"217 509 OFFCURVE",
"299 411 CURVE"
);
}
);
width = 743;
}
);
leftKerningGroup = o;
leftMetricsKey = o;
rightKerningGroup = t;
rightMetricsKey = t;
},
{
color = 6;
glyphname = f_b.liga;
lastChange = "2022-03-18 09:39:33 +0000";
layers = (
{
layerId = "6D97EE47-94AA-478E-ABFB-936E6C32B491";
paths = (
{
closed = 1;
nodes = (
"283 0 LINE",
"283 30 LINE",
"263 30 OFFCURVE",
"220 33 OFFCURVE",
"188 46 CURVE",
"188 400 LINE",
"334 400 LINE",
"334 456 LINE",
"186 456 LINE",
"187 504 OFFCURVE",
"177 636 OFFCURVE",
"225 689 CURVE SMOOTH",
"282 752 OFFCURVE",
"388 733 OFFCURVE",
"438 654 CURVE",
"474 742 LINE",
"403 813 OFFCURVE",
"284 821 OFFCURVE",
"189 729 CURVE SMOOTH",
"110 653 OFFCURVE",
"107 548 OFFCURVE",
"107 456 CURVE",
"57 456 LINE",
"46 400 LINE",
"107 400 LINE",
"107 46 LINE",
"80 33 OFFCURVE",
"45 30 OFFCURVE",
"28 30 CURVE",
"28 0 LINE"
);
},
{
closed = 1;
nodes = (
"513 23 LINE",
"513 783 LINE",
"493 797 LINE",
"432 768 LINE",
"432 23 LINE"
);
},
{
closed = 1;
nodes = (
"528 -29 OFFCURVE",
"643 -18 OFFCURVE",
"721 37 CURVE SMOOTH",
"810 101 OFFCURVE",
"866 249 OFFCURVE",
"805 371 CURVE SMOOTH",
"751 477 OFFCURVE",
"604 499 OFFCURVE",
"502 383 CURVE",
"502 342 LINE",
"568 412 OFFCURVE",
"681 408 OFFCURVE",
"729 325 CURVE SMOOTH",
"769 257 OFFCURVE",
"770 117 OFFCURVE",
"692 67 CURVE SMOOTH",
"619 20 OFFCURVE",
"534 41 OFFCURVE",
"501 97 CURVE",
"432 23 LINE"
);
}
);
width = 855;
}
);
leftKerningGroup = f;
leftMetricsKey = f;
rightKerningGroup = o;
rightMetricsKey = b;
},
{
color = 6;
glyphname = f_f.liga;
lastChange = "2022-03-18 09:39:33 +0000";
layers = (
{
layerId = "6D97EE47-94AA-478E-ABFB-936E6C32B491";
paths = (
{
closed = 1;
nodes = (
"283 0 LINE",
"283 30 LINE",
"263 30 OFFCURVE",
"220 33 OFFCURVE",
"188 46 CURVE",
"188 404 LINE",
"334 404 LINE",
"334 440 LINE",
"312 456 LINE",
"186 456 LINE",
"187 504 OFFCURVE",
"176 628 OFFCURVE",
"225 680 CURVE SMOOTH",
"282 741 OFFCURVE",
"410 733 OFFCURVE",
"476 618 CURVE",
"517 711 LINE",
"419 801 OFFCURVE",
"286 810 OFFCURVE",
"189 720 CURVE SMOOTH",
"109 645 OFFCURVE",
"107 548 OFFCURVE",
"107 456 CURVE",
"57 456 LINE",
"46 400 LINE",
"107 400 LINE",
"107 46 LINE",
"80 33 OFFCURVE",
"45 30 OFFCURVE",
"28 30 CURVE",
"28 0 LINE"
);
},
{
closed = 1;
nodes = (
"431 404 LINE",
"431 456 LINE",
"275 456 LINE",
"275 404 LINE"
);
},
{
closed = 1;
nodes = (
"608 0 LINE",
"608 30 LINE",
"588 30 OFFCURVE",
"545 33 OFFCURVE",
"513 46 CURVE",
"513 400 LINE",
"659 400 LINE",
"659 456 LINE",
"511 456 LINE",
"512 504 OFFCURVE",
"502 636 OFFCURVE",
"550 689 CURVE SMOOTH",
"599 744 OFFCURVE",
"680 738 OFFCURVE",
"729 684 CURVE",
"799 752 LINE",
"743 807 OFFCURVE",
"611 823 OFFCURVE",
"514 729 CURVE SMOOTH",
"435 653 OFFCURVE",
"432 548 OFFCURVE",
"432 456 CURVE",
"382 456 LINE",
"371 404 LINE",
"432 404 LINE",
"432 46 LINE",
"405 33 OFFCURVE",
"370 30 OFFCURVE",
"353 30 CURVE",
"353 0 LINE"
);
}
);
width = 689;
}
);
leftKerningGroup = f;
leftMetricsKey = f;
rightKerningGroup = f;
rightMetricsKey = f;
},
{
color = 6;
glyphname = f_f_b.liga;
lastChange = "2022-03-18 09:39:33 +0000";
layers = (
{
layerId = "6D97EE47-94AA-478E-ABFB-936E6C32B491";
paths = (
{
closed = 1;
nodes = (
"608 0 LINE",
"608 30 LINE",
"588 30 OFFCURVE",
"545 33 OFFCURVE",
"513 46 CURVE",
"513 400 LINE",
"659 400 LINE",
"659 456 LINE",
"511 456 LINE",
"512 504 OFFCURVE",
"502 636 OFFCURVE",
"550 689 CURVE SMOOTH",
"607 752 OFFCURVE",
"713 733 OFFCURVE",
"763 654 CURVE",
"799 742 LINE",
"728 813 OFFCURVE",
"609 821 OFFCURVE",
"514 729 CURVE SMOOTH",
"435 653 OFFCURVE",
"432 548 OFFCURVE",
"432 456 CURVE",
"275 456 LINE",
"275 404 LINE",
"432 404 LINE",
"432 46 LINE",
"405 33 OFFCURVE",
"370 30 OFFCURVE",
"353 30 CURVE",
"353 0 LINE"
);
},
{
closed = 1;
nodes = (
"283 0 LINE",
"283 30 LINE",
"263 30 OFFCURVE",
"220 33 OFFCURVE",
"188 46 CURVE",
"188 404 LINE",
"334 404 LINE",
"334 440 LINE",
"312 456 LINE",
"186 456 LINE",
"187 504 OFFCURVE",
"176 628 OFFCURVE",
"225 680 CURVE SMOOTH",
"282 741 OFFCURVE",
"410 733 OFFCURVE",
"476 618 CURVE",
"517 711 LINE",
"419 801 OFFCURVE",
"286 810 OFFCURVE",
"189 720 CURVE SMOOTH",
"109 645 OFFCURVE",
"107 548 OFFCURVE",
"107 456 CURVE",
"57 456 LINE",
"46 400 LINE",
"107 400 LINE",
"107 46 LINE",
"80 33 OFFCURVE",
"45 30 OFFCURVE",
"28 30 CURVE",
"28 0 LINE"
);
},
{
closed = 1;
nodes = (
"838 23 LINE",
"838 783 LINE",
"818 797 LINE",
"757 768 LINE",
"757 23 LINE"
);
},
{
closed = 1;
nodes = (
"853 -29 OFFCURVE",
"968 -18 OFFCURVE",
"1046 37 CURVE SMOOTH",
"1135 101 OFFCURVE",
"1191 249 OFFCURVE",
"1130 371 CURVE SMOOTH",
"1076 477 OFFCURVE",
"929 499 OFFCURVE",
"827 383 CURVE",
"827 342 LINE",
"893 412 OFFCURVE",
"1006 408 OFFCURVE",
"1054 325 CURVE SMOOTH",
"1094 257 OFFCURVE",
"1095 117 OFFCURVE",
"1017 67 CURVE SMOOTH",
"944 20 OFFCURVE",
"859 41 OFFCURVE",
"826 97 CURVE",
"757 23 LINE"
);
}
);
width = 1180;
}
);
leftKerningGroup = f;
leftMetricsKey = f;
rightKerningGroup = o;
rightMetricsKey = b;
},
{
color = 6;
glyphname = f_f_f_l.liga;
lastChange = "2022-03-18 09:39:33 +0000";
layers = (
{
layerId = "6D97EE47-94AA-478E-ABFB-936E6C32B491";
paths = (
{
closed = 1;
nodes = (
"608 0 LINE",
"608 30 LINE",
"588 30 OFFCURVE",
"545 33 OFFCURVE",
"513 46 CURVE",
"513 404 LINE",
"659 404 LINE",
"659 440 LINE",
"637 456 LINE",
"511 456 LINE",
"512 504 OFFCURVE",
"501 628 OFFCURVE",
"550 680 CURVE SMOOTH",
"607 741 OFFCURVE",
"735 733 OFFCURVE",
"801 618 CURVE",
"842 711 LINE",
"744 801 OFFCURVE",
"611 810 OFFCURVE",
"514 720 CURVE SMOOTH",
"434 645 OFFCURVE",
"432 548 OFFCURVE",
"432 456 CURVE",
"276 456 LINE",
"276 404 LINE",
"432 404 LINE",
"432 46 LINE",
"405 33 OFFCURVE",
"370 30 OFFCURVE",
"353 30 CURVE",
"353 0 LINE"
);
},
{
closed = 1;
nodes = (
"283 0 LINE",
"283 30 LINE",
"263 30 OFFCURVE",
"220 33 OFFCURVE",
"188 46 CURVE",
"188 404 LINE",
"334 404 LINE",
"334 440 LINE",
"312 456 LINE",
"186 456 LINE",
"187 504 OFFCURVE",
"177 612 OFFCURVE",
"225 665 CURVE SMOOTH",
"282 728 OFFCURVE",
"400 742 OFFCURVE",
"472 608 CURVE",
"517 699 LINE",
"421 793 OFFCURVE",
"286 799 OFFCURVE",
"189 705 CURVE SMOOTH",
"110 629 OFFCURVE",
"107 548 OFFCURVE",
"107 456 CURVE",
"57 456 LINE",
"46 400 LINE",
"107 400 LINE",
"107 46 LINE",
"80 33 OFFCURVE",
"45 30 OFFCURVE",
"28 30 CURVE",
"28 0 LINE"
);
},
{
closed = 1;
nodes = (
"933 0 LINE",
"933 30 LINE",
"913 30 OFFCURVE",
"870 33 OFFCURVE",
"838 46 CURVE",
"838 400 LINE",
"984 400 LINE",
"984 456 LINE",
"836 456 LINE",
"837 504 OFFCURVE",
"827 636 OFFCURVE",
"875 689 CURVE SMOOTH",
"932 752 OFFCURVE",
"1038 733 OFFCURVE",
"1088 654 CURVE",
"1124 742 LINE",
"1053 813 OFFCURVE",
"934 821 OFFCURVE",
"839 729 CURVE SMOOTH",
"760 653 OFFCURVE",
"757 548 OFFCURVE",
"757 456 CURVE",
"608 456 LINE",
"608 404 LINE",
"757 404 LINE",
"757 46 LINE",
"730 33 OFFCURVE",
"695 30 OFFCURVE",
"678 30 CURVE",
"678 0 LINE"
);
},
{
closed = 1;
nodes = (
"1242 0 LINE",
"1242 30 LINE",
"1225 30 OFFCURVE",
"1190 33 OFFCURVE",
"1163 46 CURVE",
"1163 783 LINE",
"1143 797 LINE",
"1082 768 LINE",
"1082 46 LINE",
"1055 33 OFFCURVE",
"1020 30 OFFCURVE",
"1003 30 CURVE",
"1003 0 LINE"
);
}
);
width = 1264;
}
);
leftKerningGroup = f;
leftMetricsKey = f;
rightKerningGroup = n;
rightMetricsKey = l;
},
{
color = 6;
glyphname = f_f_h.liga;
lastChange = "2022-03-18 09:39:33 +0000";
layers = (
{
layerId = "6D97EE47-94AA-478E-ABFB-936E6C32B491";
paths = (
{
closed = 1;
nodes = (
"283 0 LINE",
"283 30 LINE",
"263 30 OFFCURVE",
"220 33 OFFCURVE",
"188 46 CURVE",
"188 404 LINE",
"431 404 LINE",
"431 456 LINE",
"186 456 LINE",
"187 504 OFFCURVE",
"176 628 OFFCURVE",
"225 680 CURVE SMOOTH",
"282 741 OFFCURVE",
"410 733 OFFCURVE",
"476 618 CURVE",
"517 711 LINE",
"419 801 OFFCURVE",
"286 810 OFFCURVE",
"189 720 CURVE SMOOTH",
"109 645 OFFCURVE",
"107 548 OFFCURVE",
"107 456 CURVE",
"57 456 LINE",
"46 400 LINE",
"107 400 LINE",
"107 46 LINE",
"80 33 OFFCURVE",
"45 30 OFFCURVE",
"28 30 CURVE",
"28 0 LINE"
);
},
{
closed = 1;
nodes = (
"608 0 LINE",
"608 30 LINE",
"588 30 OFFCURVE",
"545 33 OFFCURVE",
"513 46 CURVE",
"513 400 LINE",
"659 400 LINE",
"659 456 LINE",
"511 456 LINE",
"512 504 OFFCURVE",
"502 636 OFFCURVE",
"550 689 CURVE SMOOTH",
"607 752 OFFCURVE",
"713 733 OFFCURVE",
"763 654 CURVE",
"799 742 LINE",
"728 813 OFFCURVE",
"609 821 OFFCURVE",
"514 729 CURVE SMOOTH",
"435 653 OFFCURVE",
"432 548 OFFCURVE",
"432 456 CURVE",
"382 456 LINE",
"371 404 LINE",
"432 404 LINE",
"432 46 LINE",
"405 33 OFFCURVE",
"370 30 OFFCURVE",
"353 30 CURVE",
"353 0 LINE"
);
},
{
closed = 1;
nodes = (
"917 0 LINE",
"917 30 LINE",
"900 30 OFFCURVE",
"865 33 OFFCURVE",
"838 46 CURVE",
"838 783 LINE",
"818 797 LINE",
"757 768 LINE",
"757 46 LINE",
"730 33 OFFCURVE",
"695 30 OFFCURVE",
"678 30 CURVE",
"678 0 LINE"
);
},
{
closed = 1;
nodes = (
"1217 0 LINE",
"1217 30 LINE",
"1200 30 OFFCURVE",
"1165 33 OFFCURVE",
"1138 46 CURVE",
"1138 314 LINE SMOOTH",
"1138 374 OFFCURVE",
"1125 419 OFFCURVE",
"1074 447 CURVE SMOOTH",
"1055 458 OFFCURVE",
"1033 464 OFFCURVE",
"1009 464 CURVE SMOOTH",
"937 464 OFFCURVE",
"849 391 OFFCURVE",
"811 364 CURVE",
"827 332 LINE",
"856 354 OFFCURVE",
"913 402 OFFCURVE",
"961 402 CURVE SMOOTH",
"983 402 OFFCURVE",
"1003 398 OFFCURVE",
"1017 387 CURVE SMOOTH",
"1055 358 OFFCURVE",
"1057 327 OFFCURVE",
"1057 276 CURVE SMOOTH",
"1057 46 LINE",
"1030 33 OFFCURVE",
"995 30 OFFCURVE",
"978 30 CURVE",
"978 0 LINE"
);
}
);
width = 1239;
}
);
leftKerningGroup = f;
leftMetricsKey = f;
rightKerningGroup = n;
rightMetricsKey = h;
},
{
color = 6;
glyphname = f_f_i.liga;
lastChange = "2022-03-18 09:39:33 +0000";
layers = (
{
layerId = "6D97EE47-94AA-478E-ABFB-936E6C32B491";
paths = (
{
closed = 1;
nodes = (
"188 0 LINE",
"188 404 LINE",
"334 404 LINE",
"334 440 LINE",
"312 456 LINE",
"186 456 LINE",
"187 504 OFFCURVE",
"176 628 OFFCURVE",
"225 680 CURVE SMOOTH",
"282 741 OFFCURVE",
"410 733 OFFCURVE",
"476 618 CURVE",
"517 711 LINE",
"419 801 OFFCURVE",
"286 810 OFFCURVE",
"189 720 CURVE SMOOTH",
"109 645 OFFCURVE",
"107 548 OFFCURVE",
"107 456 CURVE",
"57 456 LINE",
"46 400 LINE",
"107 400 LINE",
"107 0 LINE"
);
},
{
closed = 1;
nodes = (
"107 0 LINE",
"107 46 LINE",
"80 33 OFFCURVE",
"45 30 OFFCURVE",
"28 30 CURVE",
"28 0 LINE"
);
},
{
closed = 1;
nodes = (
"283 0 LINE",
"283 30 LINE",
"263 30 OFFCURVE",
"220 33 OFFCURVE",
"188 46 CURVE",
"188 0 LINE"
);
},
{
closed = 1;
nodes = (
"432 0 LINE",
"432 46 LINE",
"405 33 OFFCURVE",
"370 30 OFFCURVE",
"353 30 CURVE",
"353 0 LINE"
);
},
{
closed = 1;
nodes = (
"608 0 LINE",
"608 30 LINE",
"588 30 OFFCURVE",
"545 33 OFFCURVE",
"513 46 CURVE",
"513 0 LINE"
);
},
{
closed = 1;
nodes = (
"757 0 LINE",
"757 46 LINE",
"730 33 OFFCURVE",
"695 30 OFFCURVE",
"678 30 CURVE",
"678 0 LINE"
);
},
{
closed = 1;
nodes = (
"401 404 LINE",
"401 456 LINE",
"275 456 LINE",
"275 404 LINE"
);
},
{
closed = 1;
nodes = (
"917 0 LINE",
"917 30 LINE",
"900 30 OFFCURVE",
"865 33 OFFCURVE",
"838 46 CURVE",
"838 0 LINE"
);
},
{
closed = 1;
nodes = (
"513 0 LINE",
"513 404 LINE",
"659 404 LINE",
"659 440 LINE",
"637 456 LINE",
"511 456 LINE",
"512 504 OFFCURVE",
"502 636 OFFCURVE",
"550 689 CURVE SMOOTH",
"617 764 OFFCURVE",
"728 726 OFFCURVE",
"759 640 CURVE",
"809 652 OFFCURVE",
"833 698 OFFCURVE",
"817 732 CURVE SMOOTH",
"799 771 OFFCURVE",
"753 794 OFFCURVE",
"697 796 CURVE SMOOTH",
"632 798 OFFCURVE",
"574 787 OFFCURVE",
"514 729 CURVE SMOOTH",
"435 653 OFFCURVE",
"432 548 OFFCURVE",
"432 456 CURVE",
"382 456 LINE",
"371 404 LINE",
"432 404 LINE",
"432 0 LINE"
);
},
{
closed = 1;
nodes = (
"838 0 LINE",
"838 429 LINE",
"757 415 LINE",
"757 0 LINE"
);
},
{
closed = 1;
nodes = (
"838 404 LINE",
"838 438 LINE",
"812 456 LINE",
"593 456 LINE",
"593 404 LINE"
);
}
);
width = 939;
}
);
leftKerningGroup = f;
leftMetricsKey = f;
rightKerningGroup = i;
rightMetricsKey = i;
},
{
color = 6;
glyphname = f_f_j.liga;
lastChange = "2022-03-18 09:39:33 +0000";
layers = (
{
layerId = "6D97EE47-94AA-478E-ABFB-936E6C32B491";
paths = (
{
closed = 1;
nodes = (
"188 0 LINE",
"188 404 LINE",
"334 404 LINE",
"334 440 LINE",
"312 456 LINE",
"186 456 LINE",
"187 504 OFFCURVE",
"176 628 OFFCURVE",
"225 680 CURVE SMOOTH",
"282 741 OFFCURVE",
"410 733 OFFCURVE",
"476 618 CURVE",
"517 711 LINE",
"419 801 OFFCURVE",
"286 810 OFFCURVE",
"189 720 CURVE SMOOTH",
"109 645 OFFCURVE",
"107 548 OFFCURVE",
"107 456 CURVE",
"57 456 LINE",
"46 400 LINE",
"107 400 LINE",
"107 0 LINE"
);
},
{
closed = 1;
nodes = (
"107 0 LINE",
"107 46 LINE",
"80 33 OFFCURVE",
"45 30 OFFCURVE",
"28 30 CURVE",
"28 0 LINE"
);
},
{
closed = 1;
nodes = (
"283 0 LINE",
"283 30 LINE",
"263 30 OFFCURVE",
"220 33 OFFCURVE",
"188 46 CURVE",
"188 0 LINE"
);
},
{
closed = 1;
nodes = (
"432 0 LINE",
"432 46 LINE",
"405 33 OFFCURVE",
"370 30 OFFCURVE",
"353 30 CURVE",
"353 0 LINE"
);
},
{
closed = 1;
nodes = (
"608 0 LINE",
"608 30 LINE",
"588 30 OFFCURVE",
"545 33 OFFCURVE",
"513 46 CURVE",
"513 0 LINE"
);
},
{
closed = 1;
nodes = (
"409 404 LINE",
"409 456 LINE",
"283 456 LINE",
"283 404 LINE"
);
},
{
closed = 1;
nodes = (
"677 -270 OFFCURVE",
"800 -182 OFFCURVE",
"838 -20 CURVE",
"838 428 LINE",
"757 411 LINE",
"757 13 LINE SMOOTH",
"757 -16 OFFCURVE",
"754 -46 OFFCURVE",
"749 -69 CURVE SMOOTH",
"727 -159 OFFCURVE",
"672 -231 OFFCURVE",
"638 -262 CURVE",
"655 -284 LINE"
);
},
{
closed = 1;
nodes = (
"513 0 LINE",
"513 404 LINE",
"659 404 LINE",
"659 440 LINE",
"637 456 LINE",
"511 456 LINE",
"512 504 OFFCURVE",
"502 636 OFFCURVE",
"550 689 CURVE SMOOTH",
"617 764 OFFCURVE",
"728 726 OFFCURVE",
"759 640 CURVE",
"809 652 OFFCURVE",
"833 698 OFFCURVE",
"817 732 CURVE SMOOTH",
"799 771 OFFCURVE",
"753 794 OFFCURVE",
"697 796 CURVE SMOOTH",
"632 798 OFFCURVE",
"574 787 OFFCURVE",
"514 729 CURVE SMOOTH",
"435 653 OFFCURVE",
"432 548 OFFCURVE",
"432 456 CURVE",
"382 456 LINE",
"371 404 LINE",
"432 404 LINE",
"432 0 LINE"
);
},
{
closed = 1;
nodes = (
"838 404 LINE",
"838 438 LINE",
"812 456 LINE",
"593 456 LINE",
"593 404 LINE"
);
}
);
width = 884;
}
);
leftKerningGroup = f;
leftMetricsKey = f;
rightKerningGroup = j;
rightMetricsKey = j;
},
{
color = 6;
glyphname = f_f_k.liga;
lastChange = "2022-03-18 09:39:33 +0000";
layers = (
{
layerId = "6D97EE47-94AA-478E-ABFB-936E6C32B491";
paths = (
{
closed = 1;
nodes = (
"188 0 LINE",
"188 404 LINE",
"334 404 LINE",
"334 440 LINE",
"312 456 LINE",
"186 456 LINE",
"187 504 OFFCURVE",
"176 628 OFFCURVE",
"225 680 CURVE SMOOTH",
"282 741 OFFCURVE",
"410 733 OFFCURVE",
"476 618 CURVE",
"517 711 LINE",
"419 801 OFFCURVE",
"286 810 OFFCURVE",
"189 720 CURVE SMOOTH",
"109 645 OFFCURVE",
"107 548 OFFCURVE",
"107 456 CURVE",
"57 456 LINE",
"46 400 LINE",
"107 400 LINE",
"107 0 LINE"
);
},
{
closed = 1;
nodes = (
"107 0 LINE",
"107 46 LINE",
"80 33 OFFCURVE",
"45 30 OFFCURVE",
"28 30 CURVE",
"28 0 LINE"
);
},
{
closed = 1;
nodes = (
"283 0 LINE",
"283 30 LINE",
"263 30 OFFCURVE",
"220 33 OFFCURVE",
"188 46 CURVE",
"188 0 LINE"
);
},
{
closed = 1;
nodes = (
"432 0 LINE",
"432 46 LINE",
"405 33 OFFCURVE",
"370 30 OFFCURVE",
"353 30 CURVE",
"353 0 LINE"
);
},
{
closed = 1;
nodes = (
"608 0 LINE",
"608 30 LINE",
"588 30 OFFCURVE",
"545 33 OFFCURVE",
"513 46 CURVE",
"513 0 LINE"
);
},
{
closed = 1;
nodes = (
"757 0 LINE",
"757 46 LINE",
"730 33 OFFCURVE",
"695 30 OFFCURVE",
"678 30 CURVE",
"678 0 LINE"
);
},
{
closed = 1;
nodes = (
"409 404 LINE",
"409 456 LINE",
"283 456 LINE",
"283 404 LINE"
);
},
{
closed = 1;
nodes = (
"917 0 LINE",
"917 30 LINE",
"900 30 OFFCURVE",
"865 33 OFFCURVE",
"838 46 CURVE",
"838 0 LINE"
);
},
{
closed = 1;
nodes = (
"513 0 LINE",
"513 400 LINE",
"659 400 LINE",
"659 456 LINE",
"511 456 LINE",
"512 504 OFFCURVE",
"502 636 OFFCURVE",
"550 689 CURVE SMOOTH",
"607 752 OFFCURVE",
"713 733 OFFCURVE",
"763 654 CURVE",
"799 742 LINE",
"728 813 OFFCURVE",
"609 821 OFFCURVE",
"514 729 CURVE SMOOTH",
"435 653 OFFCURVE",
"432 548 OFFCURVE",
"432 456 CURVE",
"382 456 LINE",
"371 404 LINE",
"432 404 LINE",
"432 0 LINE"
);
},
{
closed = 1;
nodes = (
"1184 -2 LINE",
"1131 17 OFFCURVE",
"1109 42 OFFCURVE",
"1074 81 CURVE SMOOTH",
"1031 129 OFFCURVE",
"961 222 OFFCURVE",
"931 264 CURVE",
"852 246 LINE",
"874 216 OFFCURVE",
"973 68 OFFCURVE",
"1008 31 CURVE SMOOTH",
"1046 -6 OFFCURVE",
"1079 -28 OFFCURVE",
"1179 -31 CURVE"
);
},
{
closed = 1;
nodes = (
"838 0 LINE",
"838 783 LINE",
"818 797 LINE",
"757 768 LINE",
"757 0 LINE"
);
},
{
closed = 1;
nodes = (
"1127 448 LINE",
"1056 448 LINE",
"852 246 LINE",
"887 210 LINE"
);
},
{
closed = 1;
nodes = (
"1015 456 LINE",
"936 456 LINE",
"936 426 LINE",
"953 426 OFFCURVE",
"988 423 OFFCURVE",
"1015 410 CURVE"
);
},
{
closed = 1;
nodes = (
"1086 408 LINE",
"1086 456 LINE",
"1015 456 LINE",
"1015 408 LINE"
);
},
{
closed = 1;
nodes = (
"1110 423 OFFCURVE",
"1142 426 OFFCURVE",
"1157 426 CURVE",
"1157 456 LINE",
"1086 456 LINE",
"1086 410 LINE"
);
}
);
width = 1194;
}
);
leftKerningGroup = f;
leftMetricsKey = f;
rightKerningGroup = k;
rightMetricsKey = k;
},
{
color = 6;
glyphname = f_f_l.liga;
lastChange = "2022-03-18 09:39:33 +0000";
layers = (
{
layerId = "6D97EE47-94AA-478E-ABFB-936E6C32B491";
paths = (
{
closed = 1;
nodes = (
"188 0 LINE",
"188 404 LINE",
"334 404 LINE",
"334 440 LINE",
"312 456 LINE",
"186 456 LINE",
"187 504 OFFCURVE",
"176 628 OFFCURVE",
"225 680 CURVE SMOOTH",
"282 741 OFFCURVE",
"410 733 OFFCURVE",
"476 618 CURVE",
"517 711 LINE",
"419 801 OFFCURVE",
"286 810 OFFCURVE",
"189 720 CURVE SMOOTH",
"109 645 OFFCURVE",
"107 548 OFFCURVE",
"107 456 CURVE",
"57 456 LINE",
"46 400 LINE",
"107 400 LINE",
"107 0 LINE"
);
},
{
closed = 1;
nodes = (
"107 0 LINE",
"107 46 LINE",
"80 33 OFFCURVE",
"45 30 OFFCURVE",
"28 30 CURVE",
"28 0 LINE"
);
},
{
closed = 1;
nodes = (
"283 0 LINE",
"283 30 LINE",
"263 30 OFFCURVE",
"220 33 OFFCURVE",
"188 46 CURVE",
"188 0 LINE"
);
},
{
closed = 1;
nodes = (
"432 0 LINE",
"432 46 LINE",
"405 33 OFFCURVE",
"370 30 OFFCURVE",
"353 30 CURVE",
"353 0 LINE"
);
},
{
closed = 1;
nodes = (
"608 0 LINE",
"608 30 LINE",
"588 30 OFFCURVE",
"545 33 OFFCURVE",
"513 46 CURVE",
"513 0 LINE"
);
},
{
closed = 1;
nodes = (
"757 0 LINE",
"757 46 LINE",
"730 33 OFFCURVE",
"695 30 OFFCURVE",
"678 30 CURVE",
"678 0 LINE"
);
},
{
closed = 1;
nodes = (
"409 404 LINE",
"409 456 LINE",
"283 456 LINE",
"283 404 LINE"
);
},
{
closed = 1;
nodes = (
"917 0 LINE",
"917 30 LINE",
"900 30 OFFCURVE",
"865 33 OFFCURVE",
"838 46 CURVE",
"838 0 LINE"
);
},
{
closed = 1;
nodes = (
"513 0 LINE",
"513 400 LINE",
"659 400 LINE",
"659 456 LINE",
"511 456 LINE",
"512 504 OFFCURVE",
"502 636 OFFCURVE",
"550 689 CURVE SMOOTH",
"607 752 OFFCURVE",
"713 733 OFFCURVE",
"763 654 CURVE",
"799 742 LINE",
"728 813 OFFCURVE",
"609 821 OFFCURVE",
"514 729 CURVE SMOOTH",
"435 653 OFFCURVE",
"432 548 OFFCURVE",
"432 456 CURVE",
"382 456 LINE",
"371 404 LINE",
"432 404 LINE",
"432 0 LINE"
);
},
{
closed = 1;
nodes = (
"838 0 LINE",
"838 783 LINE",
"818 797 LINE",
"757 768 LINE",
"757 0 LINE"
);
}
);
width = 939;
}
);
leftKerningGroup = f;
leftMetricsKey = f;
rightKerningGroup = n;
rightMetricsKey = l;
},
{
color = 6;
glyphname = f_f_t.liga;
lastChange = "2022-03-18 09:39:33 +0000";
layers = (
{
anchors = (
{
name = BOTTOM;
position = "{852, 0}";
}
);
layerId = "6D97EE47-94AA-478E-ABFB-936E6C32B491";
paths = (
{
closed = 1;
nodes = (
"188 0 LINE",
"188 404 LINE",
"334 404 LINE",
"334 440 LINE",
"312 456 LINE",
"186 456 LINE",
"187 504 OFFCURVE",
"176 628 OFFCURVE",
"225 680 CURVE SMOOTH",
"282 741 OFFCURVE",
"410 733 OFFCURVE",
"476 618 CURVE",
"517 711 LINE",
"419 801 OFFCURVE",
"286 810 OFFCURVE",
"189 720 CURVE SMOOTH",
"109 645 OFFCURVE",
"107 548 OFFCURVE",
"107 456 CURVE",
"57 456 LINE",
"46 400 LINE",
"107 400 LINE",
"107 0 LINE"
);
},
{
closed = 1;
nodes = (
"107 0 LINE",
"107 46 LINE",
"80 33 OFFCURVE",
"45 30 OFFCURVE",
"28 30 CURVE",
"28 0 LINE"
);
},
{
closed = 1;
nodes = (
"283 0 LINE",
"283 30 LINE",
"263 30 OFFCURVE",
"220 33 OFFCURVE",
"188 46 CURVE",
"188 0 LINE"
);
},
{
closed = 1;
nodes = (
"432 0 LINE",
"432 46 LINE",
"405 33 OFFCURVE",
"370 30 OFFCURVE",
"353 30 CURVE",
"353 0 LINE"
);
},
{
closed = 1;
nodes = (
"608 0 LINE",
"608 30 LINE",
"588 30 OFFCURVE",
"545 33 OFFCURVE",
"513 46 CURVE",
"513 0 LINE"
);
},
{
closed = 1;
nodes = (
"409 404 LINE",
"409 456 LINE",
"283 456 LINE",
"283 404 LINE"
);
},
{
closed = 1;
nodes = (
"513 0 LINE",
"513 404 LINE",
"659 404 LINE",
"659 440 LINE",
"637 456 LINE",
"511 456 LINE",
"512 504 OFFCURVE",
"502 636 OFFCURVE",
"550 689 CURVE SMOOTH",
"599 744 OFFCURVE",
"680 738 OFFCURVE",
"729 684 CURVE",
"799 752 LINE",
"743 807 OFFCURVE",
"611 823 OFFCURVE",
"514 729 CURVE SMOOTH",
"435 653 OFFCURVE",
"432 548 OFFCURVE",
"432 456 CURVE",
"382 456 LINE",
"371 404 LINE",
"432 404 LINE",
"432 0 LINE"
);
},
{
closed = 1;
nodes = (
"896 -8 OFFCURVE",
"959 24 OFFCURVE",
"979 41 CURVE",
"965 66 LINE",
"946 56 OFFCURVE",
"884 39 OFFCURVE",
"859 56 CURVE SMOOTH",
"840 68 OFFCURVE",
"838 85 OFFCURVE",
"838 127 CURVE SMOOTH",
"838 400 LINE",
"977 400 LINE",
"977 456 LINE",
"838 456 LINE",
"838 533 LINE",
"818 542 LINE",
"790 507 OFFCURVE",
"743 454 OFFCURVE",
"704 431 CURVE",
"704 404 LINE",
"757 404 LINE",
"757 102 LINE SMOOTH",
"757 34 OFFCURVE",
"788 -8 OFFCURVE",
"842 -8 CURVE SMOOTH"
);
},
{
closed = 1;
nodes = (
"767 404 LINE",
"767 456 LINE",
"607 456 LINE",
"607 404 LINE"
);
}
);
width = 993;
}
);
leftKerningGroup = f;
leftMetricsKey = f;
rightKerningGroup = t;
rightMetricsKey = t;
},
{
color = 6;
glyphname = f_h.liga;
lastChange = "2022-03-18 09:39:33 +0000";
layers = (
{
layerId = "6D97EE47-94AA-478E-ABFB-936E6C32B491";
paths = (
{
closed = 1;
nodes = (
"188 0 LINE",
"188 400 LINE",
"334 400 LINE",
"334 456 LINE",
"186 456 LINE",
"187 504 OFFCURVE",
"177 636 OFFCURVE",
"225 689 CURVE SMOOTH",
"282 752 OFFCURVE",
"388 733 OFFCURVE",
"438 654 CURVE",
"474 742 LINE",
"403 813 OFFCURVE",
"284 821 OFFCURVE",
"189 729 CURVE SMOOTH",
"110 653 OFFCURVE",
"107 548 OFFCURVE",
"107 456 CURVE",
"57 456 LINE",
"46 400 LINE",
"107 400 LINE",
"107 0 LINE"
);
},
{
closed = 1;
nodes = (
"107 0 LINE",
"107 46 LINE",
"80 33 OFFCURVE",
"45 30 OFFCURVE",
"28 30 CURVE",
"28 0 LINE"
);
},
{
closed = 1;
nodes = (
"283 0 LINE",
"283 30 LINE",
"263 30 OFFCURVE",
"220 33 OFFCURVE",
"188 46 CURVE",
"188 0 LINE"
);
},
{
closed = 1;
nodes = (
"432 0 LINE",
"432 46 LINE",
"405 33 OFFCURVE",
"370 30 OFFCURVE",
"353 30 CURVE",
"353 0 LINE"
);
},
{
closed = 1;
nodes = (
"592 0 LINE",
"592 30 LINE",
"575 30 OFFCURVE",
"540 33 OFFCURVE",
"513 46 CURVE",
"513 0 LINE"
);
},
{
closed = 1;
nodes = (
"732 0 LINE",
"732 46 LINE",
"705 33 OFFCURVE",
"670 30 OFFCURVE",
"653 30 CURVE",
"653 0 LINE"
);
},
{
closed = 1;
nodes = (
"513 0 LINE",
"513 783 LINE",
"493 797 LINE",
"432 768 LINE",
"432 0 LINE"
);
},
{
closed = 1;
nodes = (
"892 0 LINE",
"892 30 LINE",
"875 30 OFFCURVE",
"840 33 OFFCURVE",
"813 46 CURVE",
"813 0 LINE"
);
},
{
closed = 1;
nodes = (
"813 0 LINE",
"813 314 LINE SMOOTH",
"813 374 OFFCURVE",
"800 419 OFFCURVE",
"749 447 CURVE SMOOTH",
"730 458 OFFCURVE",
"708 464 OFFCURVE",
"684 464 CURVE SMOOTH",
"612 464 OFFCURVE",
"524 391 OFFCURVE",
"486 364 CURVE",
"502 332 LINE",
"531 354 OFFCURVE",
"588 402 OFFCURVE",
"636 402 CURVE SMOOTH",
"658 402 OFFCURVE",
"678 398 OFFCURVE",
"692 387 CURVE SMOOTH",
"730 358 OFFCURVE",
"732 327 OFFCURVE",
"732 276 CURVE SMOOTH",
"732 0 LINE"
);
}
);
width = 914;
}
);
leftKerningGroup = f;
leftMetricsKey = f;
rightKerningGroup = n;
rightMetricsKey = h;
},
{
color = 6;
glyphname = f_i.liga;
lastChange = "2022-03-18 09:39:33 +0000";
layers = (
{
layerId = "6D97EE47-94AA-478E-ABFB-936E6C32B491";
paths = (
{
closed = 1;
nodes = (
"188 0 LINE",
"188 404 LINE",
"334 404 LINE",
"334 440 LINE",
"312 456 LINE",
"186 456 LINE",
"187 504 OFFCURVE",
"177 636 OFFCURVE",
"225 689 CURVE SMOOTH",
"292 764 OFFCURVE",
"403 726 OFFCURVE",
"434 640 CURVE",
"484 652 OFFCURVE",
"508 698 OFFCURVE",
"492 732 CURVE SMOOTH",
"474 771 OFFCURVE",
"428 794 OFFCURVE",
"372 796 CURVE SMOOTH",
"307 798 OFFCURVE",
"249 787 OFFCURVE",
"189 729 CURVE SMOOTH",
"110 653 OFFCURVE",
"107 548 OFFCURVE",
"107 456 CURVE",
"57 456 LINE",
"46 400 LINE",
"107 400 LINE",
"107 0 LINE"
);
},
{
closed = 1;
nodes = (
"107 0 LINE",
"107 46 LINE",
"80 33 OFFCURVE",
"45 30 OFFCURVE",
"28 30 CURVE",
"28 0 LINE"
);
},
{
closed = 1;
nodes = (
"283 0 LINE",
"283 30 LINE",
"263 30 OFFCURVE",
"220 33 OFFCURVE",
"188 46 CURVE",
"188 0 LINE"
);
},
{
closed = 1;
nodes = (
"432 0 LINE",
"432 46 LINE",
"405 33 OFFCURVE",
"370 30 OFFCURVE",
"353 30 CURVE",
"353 0 LINE"
);
},
{
closed = 1;
nodes = (
"592 0 LINE",
"592 30 LINE",
"575 30 OFFCURVE",
"540 33 OFFCURVE",
"513 46 CURVE",
"513 0 LINE"
);
},
{
closed = 1;
nodes = (
"513 0 LINE",
"513 429 LINE",
"432 415 LINE",
"432 0 LINE"
);
},
{
closed = 1;
nodes = (
"513 404 LINE",
"513 438 LINE",
"487 456 LINE",
"268 456 LINE",
"268 404 LINE"
);
}
);
width = 614;
}
);
leftKerningGroup = f;
leftMetricsKey = f;
rightKerningGroup = i;
rightMetricsKey = i;
},
{
color = 6;
glyphname = f_j.liga;
lastChange = "2022-03-18 09:39:33 +0000";
layers = (
{
layerId = "6D97EE47-94AA-478E-ABFB-936E6C32B491";
paths = (
{
closed = 1;
nodes = (
"188 0 LINE",
"188 404 LINE",
"334 404 LINE",
"334 440 LINE",
"312 456 LINE",
"186 456 LINE",
"187 504 OFFCURVE",
"177 636 OFFCURVE",
"225 689 CURVE SMOOTH",
"292 764 OFFCURVE",
"403 726 OFFCURVE",
"434 640 CURVE",
"484 652 OFFCURVE",
"508 698 OFFCURVE",
"492 732 CURVE SMOOTH",
"474 771 OFFCURVE",
"428 794 OFFCURVE",
"372 796 CURVE SMOOTH",
"307 798 OFFCURVE",
"249 787 OFFCURVE",
"189 729 CURVE SMOOTH",
"110 653 OFFCURVE",
"107 548 OFFCURVE",
"107 456 CURVE",
"57 456 LINE",
"46 400 LINE",
"107 400 LINE",
"107 0 LINE"
);
},
{
closed = 1;
nodes = (
"107 0 LINE",
"107 46 LINE",
"80 33 OFFCURVE",
"45 30 OFFCURVE",
"28 30 CURVE",
"28 0 LINE"
);
},
{
closed = 1;
nodes = (
"283 0 LINE",
"283 30 LINE",
"263 30 OFFCURVE",
"220 33 OFFCURVE",
"188 46 CURVE",
"188 0 LINE"
);
},
{
closed = 1;
nodes = (
"352 -270 OFFCURVE",
"475 -182 OFFCURVE",
"513 -20 CURVE",
"513 428 LINE",
"432 411 LINE",
"432 13 LINE SMOOTH",
"432 -16 OFFCURVE",
"429 -46 OFFCURVE",
"424 -69 CURVE SMOOTH",
"402 -159 OFFCURVE",
"347 -231 OFFCURVE",
"313 -262 CURVE",
"330 -284 LINE"
);
},
{
closed = 1;
nodes = (
"513 404 LINE",
"513 438 LINE",
"487 456 LINE",
"268 456 LINE",
"268 404 LINE"
);
}
);
width = 559;
}
);
leftKerningGroup = f;
leftMetricsKey = f;
rightKerningGroup = j;
rightMetricsKey = j;
},
{
color = 6;
glyphname = f_k.liga;
lastChange = "2022-03-18 09:39:33 +0000";
layers = (
{
layerId = "6D97EE47-94AA-478E-ABFB-936E6C32B491";
paths = (
{
closed = 1;
nodes = (
"188 0 LINE",
"188 400 LINE",
"334 400 LINE",
"334 456 LINE",
"186 456 LINE",
"187 504 OFFCURVE",
"177 636 OFFCURVE",
"225 689 CURVE SMOOTH",
"282 752 OFFCURVE",
"388 733 OFFCURVE",
"438 654 CURVE",
"474 742 LINE",
"403 813 OFFCURVE",
"284 821 OFFCURVE",
"189 729 CURVE SMOOTH",
"110 653 OFFCURVE",
"107 548 OFFCURVE",
"107 456 CURVE",
"57 456 LINE",
"46 400 LINE",
"107 400 LINE",
"107 0 LINE"
);
},
{
closed = 1;
nodes = (
"107 0 LINE",
"107 46 LINE",
"80 33 OFFCURVE",
"45 30 OFFCURVE",
"28 30 CURVE",
"28 0 LINE"
);
},
{
closed = 1;
nodes = (
"283 0 LINE",
"283 30 LINE",
"263 30 OFFCURVE",
"220 33 OFFCURVE",
"188 46 CURVE",
"188 0 LINE"
);
},
{
closed = 1;
nodes = (
"432 0 LINE",
"432 46 LINE",
"405 33 OFFCURVE",
"370 30 OFFCURVE",
"353 30 CURVE",
"353 0 LINE"
);
},
{
closed = 1;
nodes = (
"592 0 LINE",
"592 30 LINE",
"575 30 OFFCURVE",
"540 33 OFFCURVE",
"513 46 CURVE",
"513 0 LINE"
);
},
{
closed = 1;
nodes = (
"859 -2 LINE",
"806 17 OFFCURVE",
"784 42 OFFCURVE",
"749 81 CURVE SMOOTH",
"706 129 OFFCURVE",
"636 222 OFFCURVE",
"606 264 CURVE",
"527 246 LINE",
"549 216 OFFCURVE",
"648 68 OFFCURVE",
"683 31 CURVE SMOOTH",
"721 -6 OFFCURVE",
"754 -28 OFFCURVE",
"854 -31 CURVE"
);
},
{
closed = 1;
nodes = (
"513 0 LINE",
"513 783 LINE",
"493 797 LINE",
"432 768 LINE",
"432 0 LINE"
);
},
{
closed = 1;
nodes = (
"802 448 LINE",
"731 448 LINE",
"527 246 LINE",
"562 210 LINE"
);
},
{
closed = 1;
nodes = (
"690 456 LINE",
"611 456 LINE",
"611 426 LINE",
"628 426 OFFCURVE",
"663 423 OFFCURVE",
"690 410 CURVE"
);
},
{
closed = 1;
nodes = (
"761 408 LINE",
"761 456 LINE",
"690 456 LINE",
"690 408 LINE"
);
},
{
closed = 1;
nodes = (
"785 423 OFFCURVE",
"817 426 OFFCURVE",
"832 426 CURVE",
"832 456 LINE",
"761 456 LINE",
"761 410 LINE"
);
}
);
width = 869;
}
);
leftKerningGroup = f;
leftMetricsKey = f;
rightKerningGroup = k;
rightMetricsKey = k;
},
{
color = 6;
glyphname = f_l.liga;
lastChange = "2022-03-18 09:39:33 +0000";
layers = (
{
layerId = "6D97EE47-94AA-478E-ABFB-936E6C32B491";
paths = (
{
closed = 1;
nodes = (
"188 0 LINE",
"188 400 LINE",
"334 400 LINE",
"334 456 LINE",
"186 456 LINE",
"187 504 OFFCURVE",
"177 636 OFFCURVE",
"225 689 CURVE SMOOTH",
"282 752 OFFCURVE",
"388 733 OFFCURVE",
"438 654 CURVE",
"474 742 LINE",
"403 813 OFFCURVE",
"284 821 OFFCURVE",
"189 729 CURVE SMOOTH",
"110 653 OFFCURVE",
"107 548 OFFCURVE",
"107 456 CURVE",
"57 456 LINE",
"46 400 LINE",
"107 400 LINE",
"107 0 LINE"
);
},
{
closed = 1;
nodes = (
"107 0 LINE",
"107 46 LINE",
"80 33 OFFCURVE",
"45 30 OFFCURVE",
"28 30 CURVE",
"28 0 LINE"
);
},
{
closed = 1;
nodes = (
"283 0 LINE",
"283 30 LINE",
"263 30 OFFCURVE",
"220 33 OFFCURVE",
"188 46 CURVE",
"188 0 LINE"
);
},
{
closed = 1;
nodes = (
"432 0 LINE",
"432 46 LINE",
"405 33 OFFCURVE",
"370 30 OFFCURVE",
"353 30 CURVE",
"353 0 LINE"
);
},
{
closed = 1;
nodes = (
"592 0 LINE",
"592 30 LINE",
"575 30 OFFCURVE",
"540 33 OFFCURVE",
"513 46 CURVE",
"513 0 LINE"
);
},
{
closed = 1;
nodes = (
"513 0 LINE",
"513 783 LINE",
"493 797 LINE",
"432 768 LINE",
"432 0 LINE"
);
}
);
width = 614;
}
);
leftKerningGroup = f;
leftMetricsKey = f;
rightKerningGroup = n;
rightMetricsKey = l;
},
{
color = 6;
glyphname = f_t.liga;
lastChange = "2022-03-18 09:39:33 +0000";
layers = (
{
anchors = (
{
name = BOTTOM;
position = "{527, 0}";
}
);
layerId = "6D97EE47-94AA-478E-ABFB-936E6C32B491";
paths = (
{
closed = 1;
nodes = (
"188 0 LINE",
"188 404 LINE",
"294 404 LINE",
"294 440 LINE",
"272 456 LINE",
"186 456 LINE",
"187 504 OFFCURVE",
"177 636 OFFCURVE",
"225 689 CURVE SMOOTH",
"274 744 OFFCURVE",
"355 738 OFFCURVE",
"404 684 CURVE",
"474 752 LINE",
"418 807 OFFCURVE",
"286 823 OFFCURVE",
"189 729 CURVE SMOOTH",
"110 653 OFFCURVE",
"107 548 OFFCURVE",
"107 456 CURVE",
"57 456 LINE",
"46 400 LINE",
"107 400 LINE",
"107 0 LINE"
);
},
{
closed = 1;
nodes = (
"107 0 LINE",
"107 46 LINE",
"80 33 OFFCURVE",
"45 30 OFFCURVE",
"28 30 CURVE",
"28 0 LINE"
);
},
{
closed = 1;
nodes = (
"283 0 LINE",
"283 30 LINE",
"263 30 OFFCURVE",
"220 33 OFFCURVE",
"188 46 CURVE",
"188 0 LINE"
);
},
{
closed = 1;
nodes = (
"531 -8 OFFCURVE",
"594 24 OFFCURVE",
"614 41 CURVE",
"600 66 LINE",
"581 56 OFFCURVE",
"519 39 OFFCURVE",
"494 56 CURVE SMOOTH",
"475 68 OFFCURVE",
"473 85 OFFCURVE",
"473 127 CURVE SMOOTH",
"473 400 LINE",
"612 400 LINE",
"612 456 LINE",
"473 456 LINE",
"473 533 LINE",
"453 542 LINE",
"425 507 OFFCURVE",
"378 454 OFFCURVE",
"339 431 CURVE",
"339 404 LINE",
"392 404 LINE",
"392 102 LINE SMOOTH",
"392 34 OFFCURVE",
"423 -8 OFFCURVE",
"477 -8 CURVE SMOOTH"
);
},
{
closed = 1;
nodes = (
"402 404 LINE",
"402 456 LINE",
"242 456 LINE",
"242 404 LINE"
);
}
);
width = 628;
}
);
leftKerningGroup = f;
leftMetricsKey = f;
rightKerningGroup = t;
rightMetricsKey = t;
},
{
color = 3;
glyphname = s_p.dlig;
lastChange = "2022-03-18 09:39:33 +0000";
layers = (
{
components = (
{
name = s;
},
{
name = p;
transform = "{1, 0, 0, 1, 361, 0}";
}
);
layerId = "6D97EE47-94AA-478E-ABFB-936E6C32B491";
paths = (
{
closed = 1;
nodes = (
"288 425 LINE",
"227 506 OFFCURVE",
"243 676 OFFCURVE",
"363 676 CURVE SMOOTH",
"422 676 OFFCURVE",
"455 642 OFFCURVE",
"471 594 CURVE",
"471 426 LINE",
"549 456 LINE",
"549 607 LINE",
"520 681 OFFCURVE",
"463 721 OFFCURVE",
"383 721 CURVE SMOOTH",
"202 721 OFFCURVE",
"178 509 OFFCURVE",
"260 411 CURVE"
);
}
);
width = 890;
}
);
leftKerningGroup = s;
leftMetricsKey = s;
rightKerningGroup = o;
rightMetricsKey = o;
},
{
color = 3;
glyphname = s_t.dlig;
lastChange = "2022-03-18 09:39:33 +0000";
layers = (
{
components = (
{
name = s;
}
);
layerId = "6D97EE47-94AA-478E-ABFB-936E6C32B491";
paths = (
{
closed = 1;
nodes = (
"601 -8 OFFCURVE",
"664 24 OFFCURVE",
"684 41 CURVE",
"670 66 LINE",
"651 56 OFFCURVE",
"590 40 OFFCURVE",
"564 56 CURVE SMOOTH",
"545 68 OFFCURVE",
"543 85 OFFCURVE",
"543 127 CURVE SMOOTH",
"543 400 LINE",
"682 400 LINE",
"682 456 LINE",
"543 456 LINE",
"497 511 LINE",
"470 481 OFFCURVE",
"438 448 OFFCURVE",
"409 431 CURVE",
"409 400 LINE",
"462 400 LINE",
"462 102 LINE SMOOTH",
"462 34 OFFCURVE",
"493 -8 OFFCURVE",
"547 -8 CURVE SMOOTH"
);
},
{
closed = 1;
nodes = (
"282 425 LINE",
"221 506 OFFCURVE",
"237 676 OFFCURVE",
"357 676 CURVE SMOOTH",
"416 676 OFFCURVE",
"449 642 OFFCURVE",
"465 594 CURVE",
"465 456 LINE",
"543 456 LINE",
"543 607 LINE",
"514 681 OFFCURVE",
"457 721 OFFCURVE",
"377 721 CURVE SMOOTH",
"196 721 OFFCURVE",
"172 509 OFFCURVE",
"254 411 CURVE"
);
}
);
width = 698;
}
);
leftKerningGroup = s;
leftMetricsKey = s;
rightKerningGroup = t;
rightMetricsKey = t;
},
{
color = 6;
glyphname = longs_b.liga;
lastChange = "2022-03-18 09:39:33 +0000";
layers = (
{
layerId = "6D97EE47-94AA-478E-ABFB-936E6C32B491";
paths = (
{
closed = 1;
nodes = (
"188 0 LINE",
"188 489 LINE SMOOTH",
"188 601 OFFCURVE",
"189 649 OFFCURVE",
"225 689 CURVE SMOOTH",
"282 752 OFFCURVE",
"388 733 OFFCURVE",
"438 654 CURVE",
"474 742 LINE",
"403 813 OFFCURVE",
"284 821 OFFCURVE",
"189 729 CURVE SMOOTH",
"110 653 OFFCURVE",
"107 548 OFFCURVE",
"107 456 CURVE",
"47 456 LINE",
"36 400 LINE",
"107 400 LINE",
"107 0 LINE"
);
},
{
closed = 1;
nodes = (
"107 0 LINE",
"107 46 LINE",
"80 33 OFFCURVE",
"45 30 OFFCURVE",
"28 30 CURVE",
"28 0 LINE"
);
},
{
closed = 1;
nodes = (
"275 0 LINE",
"275 30 LINE",
"256 30 OFFCURVE",
"218 33 OFFCURVE",
"188 46 CURVE",
"188 0 LINE"
);
},
{
closed = 1;
nodes = (
"513 23 LINE",
"513 783 LINE",
"493 797 LINE",
"432 768 LINE",
"432 23 LINE"
);
},
{
closed = 1;
nodes = (
"528 -29 OFFCURVE",
"643 -18 OFFCURVE",
"721 37 CURVE SMOOTH",
"811 100 OFFCURVE",
"866 249 OFFCURVE",
"805 371 CURVE SMOOTH",
"752 477 OFFCURVE",
"604 499 OFFCURVE",
"502 383 CURVE",
"502 342 LINE",
"568 412 OFFCURVE",
"681 408 OFFCURVE",
"729 325 CURVE SMOOTH",
"768 257 OFFCURVE",
"770 117 OFFCURVE",
"692 67 CURVE SMOOTH",
"619 20 OFFCURVE",
"534 41 OFFCURVE",
"501 97 CURVE",
"432 23 LINE"
);
}
);
width = 855;
}
);
leftKerningGroup = f;
leftMetricsKey = longs;
rightKerningGroup = o;
rightMetricsKey = b;
},
{
color = 6;
glyphname = longs_h.liga;
lastChange = "2022-03-18 09:39:33 +0000";
layers = (
{
layerId = "6D97EE47-94AA-478E-ABFB-936E6C32B491";
paths = (
{
closed = 1;
nodes = (
"188 0 LINE",
"188 489 LINE SMOOTH",
"188 601 OFFCURVE",
"189 649 OFFCURVE",
"225 689 CURVE SMOOTH",
"282 752 OFFCURVE",
"388 733 OFFCURVE",
"438 654 CURVE",
"474 742 LINE",
"403 813 OFFCURVE",
"284 821 OFFCURVE",
"189 729 CURVE SMOOTH",
"110 653 OFFCURVE",
"107 548 OFFCURVE",
"107 456 CURVE",
"47 456 LINE",
"36 400 LINE",
"107 400 LINE",
"107 0 LINE"
);
},
{
closed = 1;
nodes = (
"107 0 LINE",
"107 46 LINE",
"80 33 OFFCURVE",
"45 30 OFFCURVE",
"28 30 CURVE",
"28 0 LINE"
);
},
{
closed = 1;
nodes = (
"283 0 LINE",
"283 30 LINE",
"263 30 OFFCURVE",
"220 33 OFFCURVE",
"188 46 CURVE",
"188 0 LINE"
);
},
{
closed = 1;
nodes = (
"432 0 LINE",
"432 46 LINE",
"405 33 OFFCURVE",
"370 30 OFFCURVE",
"353 30 CURVE",
"353 0 LINE"
);
},
{
closed = 1;
nodes = (
"592 0 LINE",
"592 30 LINE",
"575 30 OFFCURVE",
"540 33 OFFCURVE",
"513 46 CURVE",
"513 0 LINE"
);
},
{
closed = 1;
nodes = (
"732 0 LINE",
"732 46 LINE",
"705 33 OFFCURVE",
"670 30 OFFCURVE",
"653 30 CURVE",
"653 0 LINE"
);
},
{
closed = 1;
nodes = (
"513 0 LINE",
"513 783 LINE",
"493 797 LINE",
"432 768 LINE",
"432 0 LINE"
);
},
{
closed = 1;
nodes = (
"892 0 LINE",
"892 30 LINE",
"875 30 OFFCURVE",
"840 33 OFFCURVE",
"813 46 CURVE",
"813 0 LINE"
);
},
{
closed = 1;
nodes = (
"813 0 LINE",
"813 314 LINE SMOOTH",
"813 374 OFFCURVE",
"799 418 OFFCURVE",
"749 447 CURVE SMOOTH",
"730 458 OFFCURVE",
"708 464 OFFCURVE",
"684 464 CURVE SMOOTH",
"612 464 OFFCURVE",
"524 391 OFFCURVE",
"486 364 CURVE",
"502 332 LINE",
"531 354 OFFCURVE",
"588 402 OFFCURVE",
"636 402 CURVE SMOOTH",
"658 402 OFFCURVE",
"678 398 OFFCURVE",
"692 387 CURVE SMOOTH",
"730 357 OFFCURVE",
"732 327 OFFCURVE",
"732 276 CURVE SMOOTH",
"732 0 LINE"
);
}
);
width = 914;
}
);
leftKerningGroup = f;
leftMetricsKey = longs;
rightKerningGroup = n;
rightMetricsKey = h;
},
{
color = 3;
glyphname = longs_i.liga;
lastChange = "2022-03-18 09:39:33 +0000";
layers = (
{
components = (
{
name = idotless;
transform = "{1, 0, 0, 1, 325, 0}";
}
);
layerId = "6D97EE47-94AA-478E-ABFB-936E6C32B491";
paths = (
{
closed = 1;
nodes = (
"188 0 LINE",
"188 489 LINE SMOOTH",
"188 601 OFFCURVE",
"189 649 OFFCURVE",
"225 689 CURVE SMOOTH",
"293 764 OFFCURVE",
"403 726 OFFCURVE",
"434 640 CURVE",
"484 652 OFFCURVE",
"508 698 OFFCURVE",
"492 732 CURVE SMOOTH",
"474 771 OFFCURVE",
"428 794 OFFCURVE",
"372 796 CURVE SMOOTH",
"307 798 OFFCURVE",
"249 787 OFFCURVE",
"189 729 CURVE SMOOTH",
"110 653 OFFCURVE",
"107 548 OFFCURVE",
"107 456 CURVE",
"47 456 LINE",
"36 400 LINE",
"107 400 LINE",
"107 0 LINE"
);
},
{
closed = 1;
nodes = (
"107 0 LINE",
"107 46 LINE",
"80 33 OFFCURVE",
"45 30 OFFCURVE",
"28 30 CURVE",
"28 0 LINE"
);
},
{
closed = 1;
nodes = (
"283 0 LINE",
"283 30 LINE",
"263 30 OFFCURVE",
"220 33 OFFCURVE",
"188 46 CURVE",
"188 0 LINE"
);
}
);
width = 614;
}
);
leftKerningGroup = f;
leftMetricsKey = longs;
rightKerningGroup = i;
rightMetricsKey = i;
},
{
color = 3;
glyphname = longs_j.liga;
lastChange = "2022-03-18 09:39:33 +0000";
layers = (
{
components = (
{
name = jdotless;
transform = "{1, 0, 0, 1, 343, 0}";
}
);
layerId = "6D97EE47-94AA-478E-ABFB-936E6C32B491";
paths = (
{
closed = 1;
nodes = (
"188 0 LINE",
"188 489 LINE SMOOTH",
"188 601 OFFCURVE",
"189 649 OFFCURVE",
"225 689 CURVE SMOOTH",
"293 764 OFFCURVE",
"403 726 OFFCURVE",
"434 640 CURVE",
"484 652 OFFCURVE",
"508 698 OFFCURVE",
"492 732 CURVE SMOOTH",
"474 771 OFFCURVE",
"428 794 OFFCURVE",
"372 796 CURVE SMOOTH",
"307 798 OFFCURVE",
"249 787 OFFCURVE",
"189 729 CURVE SMOOTH",
"110 653 OFFCURVE",
"107 548 OFFCURVE",
"107 456 CURVE",
"47 456 LINE",
"36 400 LINE",
"107 400 LINE",
"107 0 LINE"
);
},
{
closed = 1;
nodes = (
"107 0 LINE",
"107 46 LINE",
"80 33 OFFCURVE",
"45 30 OFFCURVE",
"28 30 CURVE",
"28 0 LINE"
);
},
{
closed = 1;
nodes = (
"283 0 LINE",
"283 30 LINE",
"263 30 OFFCURVE",
"220 33 OFFCURVE",
"188 46 CURVE",
"188 0 LINE"
);
}
);
width = 567;
}
);
leftKerningGroup = f;
leftMetricsKey = longs;
rightKerningGroup = j;
rightMetricsKey = j;
},
{
color = 6;
glyphname = longs_k.liga;
lastChange = "2022-03-18 09:39:33 +0000";
layers = (
{
layerId = "6D97EE47-94AA-478E-ABFB-936E6C32B491";
paths = (
{
closed = 1;
nodes = (
"283 0 LINE",
"283 30 LINE",
"263 30 OFFCURVE",
"220 33 OFFCURVE",
"188 46 CURVE",
"188 489 LINE SMOOTH",
"188 601 OFFCURVE",
"189 649 OFFCURVE",
"225 689 CURVE SMOOTH",
"282 752 OFFCURVE",
"388 733 OFFCURVE",
"438 654 CURVE",
"474 742 LINE",
"403 813 OFFCURVE",
"284 821 OFFCURVE",
"189 729 CURVE SMOOTH",
"110 653 OFFCURVE",
"107 548 OFFCURVE",
"107 456 CURVE",
"47 456 LINE",
"36 400 LINE",
"107 400 LINE",
"107 46 LINE",
"80 33 OFFCURVE",
"45 30 OFFCURVE",
"28 30 CURVE",
"28 0 LINE"
);
},
{
closed = 1;
nodes = (
"592 0 LINE",
"592 30 LINE",
"575 30 OFFCURVE",
"540 33 OFFCURVE",
"513 46 CURVE",
"513 783 LINE",
"493 797 LINE",
"432 768 LINE",
"432 46 LINE",
"405 33 OFFCURVE",
"370 30 OFFCURVE",
"353 30 CURVE",
"353 0 LINE"
);
},
{
closed = 1;
nodes = (
"859 -2 LINE",
"806 17 OFFCURVE",
"784 42 OFFCURVE",
"749 81 CURVE SMOOTH",
"708 127 OFFCURVE",
"642 214 OFFCURVE",
"610 258 CURVE",
"766 413 LINE",
"790 423 OFFCURVE",
"818 426 OFFCURVE",
"832 426 CURVE",
"832 456 LINE",
"611 456 LINE",
"611 426 LINE",
"628 426 OFFCURVE",
"663 423 OFFCURVE",
"690 410 CURVE",
"690 408 LINE",
"691 408 LINE",
"527 246 LINE",
"549 216 OFFCURVE",
"647 67 OFFCURVE",
"683 31 CURVE SMOOTH",
"721 -7 OFFCURVE",
"754 -28 OFFCURVE",
"854 -31 CURVE"
);
}
);
width = 869;
}
);
leftKerningGroup = f;
leftMetricsKey = longs;
rightKerningGroup = k;
rightMetricsKey = k;
},
{
color = 6;
glyphname = longs_l.liga;
lastChange = "2022-03-18 09:39:33 +0000";
layers = (
{
layerId = "6D97EE47-94AA-478E-ABFB-936E6C32B491";
paths = (
{
closed = 1;
nodes = (
"188 0 LINE",
"188 489 LINE SMOOTH",
"188 601 OFFCURVE",
"189 649 OFFCURVE",
"225 689 CURVE SMOOTH",
"282 752 OFFCURVE",
"388 733 OFFCURVE",
"438 654 CURVE",
"474 742 LINE",
"403 813 OFFCURVE",
"284 821 OFFCURVE",
"189 729 CURVE SMOOTH",
"110 653 OFFCURVE",
"107 548 OFFCURVE",
"107 456 CURVE",
"47 456 LINE",
"36 400 LINE",
"107 400 LINE",
"107 0 LINE"
);
},
{
closed = 1;
nodes = (
"107 0 LINE",
"107 46 LINE",
"80 33 OFFCURVE",
"45 30 OFFCURVE",
"28 30 CURVE",
"28 0 LINE"
);
},
{
closed = 1;
nodes = (
"283 0 LINE",
"283 30 LINE",
"263 30 OFFCURVE",
"220 33 OFFCURVE",
"188 46 CURVE",
"188 0 LINE"
);
},
{
closed = 1;
nodes = (
"432 0 LINE",
"432 46 LINE",
"405 33 OFFCURVE",
"370 30 OFFCURVE",
"353 30 CURVE",
"353 0 LINE"
);
},
{
closed = 1;
nodes = (
"592 0 LINE",
"592 30 LINE",
"575 30 OFFCURVE",
"540 33 OFFCURVE",
"513 46 CURVE",
"513 0 LINE"
);
},
{
closed = 1;
nodes = (
"513 0 LINE",
"513 783 LINE",
"493 797 LINE",
"432 768 LINE",
"432 0 LINE"
);
}
);
width = 614;
}
);
leftKerningGroup = f;
leftMetricsKey = longs;
rightKerningGroup = n;
rightMetricsKey = l;
},
{
color = 6;
glyphname = longs_longs.liga;
lastChange = "2022-03-18 09:39:33 +0000";
layers = (
{
layerId = "6D97EE47-94AA-478E-ABFB-936E6C32B491";
paths = (
{
closed = 1;
nodes = (
"188 0 LINE",
"188 489 LINE SMOOTH",
"188 601 OFFCURVE",
"188 641 OFFCURVE",
"225 680 CURVE SMOOTH",
"282 741 OFFCURVE",
"410 733 OFFCURVE",
"476 618 CURVE",
"517 711 LINE",
"419 801 OFFCURVE",
"285 812 OFFCURVE",
"189 720 CURVE SMOOTH",
"110 644 OFFCURVE",
"107 548 OFFCURVE",
"107 456 CURVE",
"47 456 LINE",
"36 400 LINE",
"107 400 LINE",
"107 0 LINE"
);
},
{
closed = 1;
nodes = (
"107 0 LINE",
"107 46 LINE",
"80 33 OFFCURVE",
"45 30 OFFCURVE",
"28 30 CURVE",
"28 0 LINE"
);
},
{
closed = 1;
nodes = (
"283 0 LINE",
"283 30 LINE",
"263 30 OFFCURVE",
"220 33 OFFCURVE",
"188 46 CURVE",
"188 0 LINE"
);
},
{
closed = 1;
nodes = (
"432 0 LINE",
"432 46 LINE",
"405 33 OFFCURVE",
"370 30 OFFCURVE",
"353 30 CURVE",
"353 0 LINE"
);
},
{
closed = 1;
nodes = (
"608 0 LINE",
"608 30 LINE",
"588 30 OFFCURVE",
"545 33 OFFCURVE",
"513 46 CURVE",
"513 0 LINE"
);
},
{
closed = 1;
nodes = (
"513 0 LINE",
"513 489 LINE SMOOTH",
"513 601 OFFCURVE",
"514 649 OFFCURVE",
"550 689 CURVE SMOOTH",
"599 744 OFFCURVE",
"680 738 OFFCURVE",
"729 684 CURVE",
"799 752 LINE",
"743 807 OFFCURVE",
"611 823 OFFCURVE",
"514 729 CURVE SMOOTH",
"435 653 OFFCURVE",
"432 548 OFFCURVE",
"432 456 CURVE",
"372 456 LINE",
"361 400 LINE",
"432 400 LINE",
"432 0 LINE"
);
}
);
width = 629;
}
);
leftKerningGroup = f;
leftMetricsKey = longs;
rightKerningGroup = longs;
rightMetricsKey = longs;
},
{
color = 6;
glyphname = longs_longs_b.liga;
lastChange = "2022-03-18 09:39:33 +0000";
layers = (
{
layerId = "6D97EE47-94AA-478E-ABFB-936E6C32B491";
paths = (
{
closed = 1;
nodes = (
"188 0 LINE",
"188 489 LINE SMOOTH",
"188 601 OFFCURVE",
"188 641 OFFCURVE",
"225 680 CURVE SMOOTH",
"282 741 OFFCURVE",
"410 733 OFFCURVE",
"476 618 CURVE",
"517 711 LINE",
"419 801 OFFCURVE",
"285 812 OFFCURVE",
"189 720 CURVE SMOOTH",
"110 644 OFFCURVE",
"107 548 OFFCURVE",
"107 456 CURVE",
"47 456 LINE",
"36 400 LINE",
"107 400 LINE",
"107 0 LINE"
);
},
{
closed = 1;
nodes = (
"107 0 LINE",
"107 46 LINE",
"80 33 OFFCURVE",
"45 30 OFFCURVE",
"28 30 CURVE",
"28 0 LINE"
);
},
{
closed = 1;
nodes = (
"283 0 LINE",
"283 30 LINE",
"263 30 OFFCURVE",
"220 33 OFFCURVE",
"188 46 CURVE",
"188 0 LINE"
);
},
{
closed = 1;
nodes = (
"432 0 LINE",
"432 46 LINE",
"405 33 OFFCURVE",
"370 30 OFFCURVE",
"353 30 CURVE",
"353 0 LINE"
);
},
{
closed = 1;
nodes = (
"608 0 LINE",
"608 30 LINE",
"588 30 OFFCURVE",
"545 33 OFFCURVE",
"513 46 CURVE",
"513 0 LINE"
);
},
{
closed = 1;
nodes = (
"513 0 LINE",
"513 489 LINE SMOOTH",
"513 601 OFFCURVE",
"514 649 OFFCURVE",
"550 689 CURVE SMOOTH",
"607 752 OFFCURVE",
"713 733 OFFCURVE",
"763 654 CURVE",
"799 742 LINE",
"728 813 OFFCURVE",
"609 821 OFFCURVE",
"514 729 CURVE SMOOTH",
"435 653 OFFCURVE",
"432 548 OFFCURVE",
"432 456 CURVE",
"372 456 LINE",
"361 400 LINE",
"432 400 LINE",
"432 0 LINE"
);
},
{
closed = 1;
nodes = (
"838 23 LINE",
"838 783 LINE",
"818 797 LINE",
"757 768 LINE",
"757 23 LINE"
);
},
{
closed = 1;
nodes = (
"853 -29 OFFCURVE",
"968 -18 OFFCURVE",
"1046 37 CURVE SMOOTH",
"1136 100 OFFCURVE",
"1191 249 OFFCURVE",
"1130 371 CURVE SMOOTH",
"1077 477 OFFCURVE",
"929 499 OFFCURVE",
"827 383 CURVE",
"827 342 LINE",
"893 412 OFFCURVE",
"1006 408 OFFCURVE",
"1054 325 CURVE SMOOTH",
"1093 257 OFFCURVE",
"1095 117 OFFCURVE",
"1017 67 CURVE SMOOTH",
"944 20 OFFCURVE",
"859 41 OFFCURVE",
"826 97 CURVE",
"757 23 LINE"
);
}
);
width = 1180;
}
);
leftKerningGroup = f;
leftMetricsKey = longs;
rightKerningGroup = o;
rightMetricsKey = b;
},
{
color = 6;
glyphname = longs_longs_h.liga;
lastChange = "2022-03-18 09:39:33 +0000";
layers = (
{
layerId = "6D97EE47-94AA-478E-ABFB-936E6C32B491";
paths = (
{
closed = 1;
nodes = (
"188 0 LINE",
"188 489 LINE SMOOTH",
"188 601 OFFCURVE",
"188 641 OFFCURVE",
"225 680 CURVE SMOOTH",
"282 741 OFFCURVE",
"410 733 OFFCURVE",
"476 618 CURVE",
"517 711 LINE",
"419 801 OFFCURVE",
"285 812 OFFCURVE",
"189 720 CURVE SMOOTH",
"110 644 OFFCURVE",
"107 548 OFFCURVE",
"107 456 CURVE",
"47 456 LINE",
"36 400 LINE",
"107 400 LINE",
"107 0 LINE"
);
},
{
closed = 1;
nodes = (
"107 0 LINE",
"107 46 LINE",
"80 33 OFFCURVE",
"45 30 OFFCURVE",
"28 30 CURVE",
"28 0 LINE"
);
},
{
closed = 1;
nodes = (
"283 0 LINE",
"283 30 LINE",
"263 30 OFFCURVE",
"220 33 OFFCURVE",
"188 46 CURVE",
"188 0 LINE"
);
},
{
closed = 1;
nodes = (
"432 0 LINE",
"432 46 LINE",
"405 33 OFFCURVE",
"370 30 OFFCURVE",
"353 30 CURVE",
"353 0 LINE"
);
},
{
closed = 1;
nodes = (
"608 0 LINE",
"608 30 LINE",
"588 30 OFFCURVE",
"545 33 OFFCURVE",
"513 46 CURVE",
"513 0 LINE"
);
},
{
closed = 1;
nodes = (
"757 0 LINE",
"757 46 LINE",
"730 33 OFFCURVE",
"695 30 OFFCURVE",
"678 30 CURVE",
"678 0 LINE"
);
},
{
closed = 1;
nodes = (
"917 0 LINE",
"917 30 LINE",
"900 30 OFFCURVE",
"865 33 OFFCURVE",
"838 46 CURVE",
"838 0 LINE"
);
},
{
closed = 1;
nodes = (
"513 0 LINE",
"513 489 LINE SMOOTH",
"513 601 OFFCURVE",
"514 649 OFFCURVE",
"550 689 CURVE SMOOTH",
"607 752 OFFCURVE",
"713 733 OFFCURVE",
"763 654 CURVE",
"799 742 LINE",
"728 813 OFFCURVE",
"609 821 OFFCURVE",
"514 729 CURVE SMOOTH",
"435 653 OFFCURVE",
"432 548 OFFCURVE",
"432 456 CURVE",
"372 456 LINE",
"361 400 LINE",
"432 400 LINE",
"432 0 LINE"
);
},
{
closed = 1;
nodes = (
"1057 0 LINE",
"1057 46 LINE",
"1030 33 OFFCURVE",
"995 30 OFFCURVE",
"978 30 CURVE",
"978 0 LINE"
);
},
{
closed = 1;
nodes = (
"838 0 LINE",
"838 783 LINE",
"818 797 LINE",
"757 768 LINE",
"757 0 LINE"
);
},
{
closed = 1;
nodes = (
"1217 0 LINE",
"1217 30 LINE",
"1200 30 OFFCURVE",
"1165 33 OFFCURVE",
"1138 46 CURVE",
"1138 0 LINE"
);
},
{
closed = 1;
nodes = (
"1138 0 LINE",
"1138 314 LINE SMOOTH",
"1138 374 OFFCURVE",
"1124 418 OFFCURVE",
"1074 447 CURVE SMOOTH",
"1055 458 OFFCURVE",
"1033 464 OFFCURVE",
"1009 464 CURVE SMOOTH",
"937 464 OFFCURVE",
"849 391 OFFCURVE",
"811 364 CURVE",
"827 332 LINE",
"856 354 OFFCURVE",
"913 402 OFFCURVE",
"961 402 CURVE SMOOTH",
"983 402 OFFCURVE",
"1003 398 OFFCURVE",
"1017 387 CURVE SMOOTH",
"1055 357 OFFCURVE",
"1057 327 OFFCURVE",
"1057 276 CURVE SMOOTH",
"1057 0 LINE"
);
}
);
width = 1239;
}
);
leftKerningGroup = f;
leftMetricsKey = longs;
rightKerningGroup = n;
rightMetricsKey = h;
},
{
color = 6;
glyphname = longs_longs_i.liga;
lastChange = "2022-03-18 09:39:33 +0000";
layers = (
{
anchors = (
{
name = BOTTOM_1;
position = "{798, 0}";
},
{
name = TOP_1;
position = "{797, 456}";
}
);
layerId = "6D97EE47-94AA-478E-ABFB-936E6C32B491";
paths = (
{
closed = 1;
nodes = (
"188 0 LINE",
"188 489 LINE SMOOTH",
"188 601 OFFCURVE",
"188 641 OFFCURVE",
"225 680 CURVE SMOOTH",
"282 741 OFFCURVE",
"410 733 OFFCURVE",
"476 618 CURVE",
"517 711 LINE",
"419 801 OFFCURVE",
"285 812 OFFCURVE",
"189 720 CURVE SMOOTH",
"110 644 OFFCURVE",
"107 548 OFFCURVE",
"107 456 CURVE",
"47 456 LINE",
"36 400 LINE",
"107 400 LINE",
"107 0 LINE"
);
},
{
closed = 1;
nodes = (
"107 0 LINE",
"107 46 LINE",
"80 33 OFFCURVE",
"45 30 OFFCURVE",
"28 30 CURVE",
"28 0 LINE"
);
},
{
closed = 1;
nodes = (
"283 0 LINE",
"283 30 LINE",
"263 30 OFFCURVE",
"220 33 OFFCURVE",
"188 46 CURVE",
"188 0 LINE"
);
},
{
closed = 1;
nodes = (
"432 0 LINE",
"432 46 LINE",
"405 33 OFFCURVE",
"370 30 OFFCURVE",
"353 30 CURVE",
"353 0 LINE"
);
},
{
closed = 1;
nodes = (
"608 0 LINE",
"608 30 LINE",
"588 30 OFFCURVE",
"545 33 OFFCURVE",
"513 46 CURVE",
"513 0 LINE"
);
},
{
closed = 1;
nodes = (
"513 0 LINE",
"513 489 LINE SMOOTH",
"513 601 OFFCURVE",
"514 649 OFFCURVE",
"550 689 CURVE SMOOTH",
"618 764 OFFCURVE",
"728 726 OFFCURVE",
"759 640 CURVE",
"809 652 OFFCURVE",
"833 698 OFFCURVE",
"817 732 CURVE SMOOTH",
"799 771 OFFCURVE",
"753 794 OFFCURVE",
"697 796 CURVE SMOOTH",
"632 798 OFFCURVE",
"574 787 OFFCURVE",
"514 729 CURVE SMOOTH",
"435 653 OFFCURVE",
"432 548 OFFCURVE",
"432 456 CURVE",
"372 456 LINE",
"361 400 LINE",
"432 400 LINE",
"432 0 LINE"
);
},
{
closed = 1;
nodes = (
"917 0 LINE",
"917 30 LINE",
"900 30 OFFCURVE",
"865 33 OFFCURVE",
"838 46 CURVE",
"838 456 LINE",
"818 470 LINE",
"686 415 LINE",
"695 389 LINE",
"714 392 OFFCURVE",
"739 392 OFFCURVE",
"757 385 CURVE",
"757 46 LINE",
"730 33 OFFCURVE",
"695 30 OFFCURVE",
"678 30 CURVE",
"678 0 LINE"
);
}
);
width = 939;
}
);
leftKerningGroup = f;
leftMetricsKey = longs;
rightKerningGroup = i;
rightMetricsKey = i;
},
